EnclosedAlnum-Medium.sfdir
StartChar: uF1D83
Encoding: 990595 990595 1
Width: 1000
Flags: MW
LayerCount: 2
Fore
SplineSet
50 300 m 0
 50 555 246 770 500 770 c 0
 741 770 950 566 950 300 c 0
 950 46 754 -170 500 -170 c 0
 259 -170 50 34 50 300 c 0
95 299 m 0
 95 67 276 -125 499 -125 c 0
 721 -125 905 62 905 300 c 0
 905 533 725 725 501 725 c 0
 282 725 95 542 95 299 c 0
380.299804688 450.5 m 1
 380.299804688 491.100585938 l 1
 460.799804688 491.100585938 498.599609375 519.799804688 517.5 537.299804688 c 1
 530.799804688 537.299804688 l 1
 530.799804688 104 l 1
 619.700195312 104 l 1
 619.700195312 62.7001953125 l 1
 383.799804688 62.7001953125 l 1
 383.799804688 104 l 1
 474.799804688 104 l 1
 474.799804688 466.600585938 l 1
 446.799804688 456.799804688 422.299804688 450.5 380.299804688 450.5 c 1
EndSplineSet
EndChar
StartChar: uF1D85
Encoding: 990597 990597 3
Width: 1000
Flags: MW
LayerCount: 2
Fore
SplineSet
50 300 m 0
 50 555 246 770 500 770 c 0
 741 770 950 566 950 300 c 0
 950 46 754 -170 500 -170 c 0
 259 -170 50 34 50 300 c 0
95 299 m 0
 95 67 276 -125 499 -125 c 0
 721 -125 905 62 905 300 c 0
 905 533 725 725 501 725 c 0
 282 725 95 542 95 299 c 0
318 127.100585938 m 1
 326.400390625 169.80078125 l 1
 349.5 138.30078125 376.799804688 120.80078125 400.599609375 111 c 0
 439.799804688 99.80078125 474.099609375 98.400390625 489.5 98.400390625 c 0
 529.400390625 98.400390625 560.900390625 109.600585938 584 127.80078125 c 0
 606.400390625 145.30078125 619 169.80078125 619 197.80078125 c 0xe8
 619 204.80078125 618.299804688 211.80078125 616.200195312 218.80078125 c 0
 610.599609375 242.600585938 594.5 263.600585938 569.299804688 277.600585938 c 0
 548.299804688 289.5 520.299804688 296.5 484.599609375 296.5 c 2
 407.599609375 296.5 l 1
 407.599609375 339.900390625 l 1
 468.5 342.700195312 476.200195312 343.400390625 483.200195312 344.100585938 c 0
 552.5 352.5 598 395.200195312 598 437.900390625 c 0
 598 456.80078125 587.5 473.600585938 569.299804688 484.80078125 c 0
 550.400390625 496.700195312 523.799804688 503 491.599609375 503 c 0
 462.200195312 503 432.799804688 497.400390625 407.599609375 488.30078125 c 0
 389.400390625 479.200195312 374.700195312 466.600585938 364.200195312 450.5 c 0
 360 444.200195312 356.5 437.200195312 353 430.200195312 c 1
 327.799804688 468.700195312 l 1
 346 496.700195312 367.700195312 514.900390625 388 526.100585938 c 0
 425.799804688 542.900390625 469.900390625 545 493.700195312 545 c 0
 539.900390625 545 584.700195312 535.200195312 619 518.400390625 c 0
 644.900390625 499.5 662.400390625 471.5 662.400390625 437.900390625 c 0xf0
 662.400390625 418.30078125 656.799804688 388.900390625 634.400390625 360.200195312 c 0
 622.5 345.5 600.799804688 330.80078125 567.200195312 318.200195312 c 1
 607.799804688 308.400390625 633 294.400390625 648.400390625 277.600585938 c 0
 670.799804688 253.80078125 682 225.100585938 682 196.400390625 c 0
 682 159.30078125 664.5 120.100585938 633 92.1005859375 c 4
 602.200195312 69.7001953125 551.799804688 55 490.200195312 55 c 0
 471.299804688 55 427.900390625 56.400390625 386.599609375 71.80078125 c 0
 364.200195312 82.30078125 339.700195312 99.80078125 318 127.100585938 c 1
EndSplineSet
EndChar
StartChar: uF1D89
Encoding: 990601 990601 7
Width: 1000
Flags: MW
LayerCount: 2
Fore
SplineSet
50 300 m 0
 50 555 246 770 500 770 c 0
 741 770 950 566 950 300 c 0
 950 46 754 -170 500 -170 c 0
 259 -170 50 34 50 300 c 0
95 299 m 0
 95 67 276 -125 499 -125 c 0
 721 -125 905 62 905 300 c 0
 905 533 725 725 501 725 c 0
 282 725 95 542 95 299 c 0
323.599609375 483.75 m 1
 323.599609375 533.450195312 l 1
 676.400390625 532.75 l 1
 676.400390625 487.25 l 1
 570 373.849609375 471.299804688 217.049804688 460.099609375 66.5498046875 c 5
 400.599609375 66.5498046875 l 1
 400.599609375 205.849609375 468.5 357.049804688 628.799804688 483.75 c 1
 323.599609375 483.75 l 1
EndSplineSet
EndChar
StartChar: uF1D8E
Encoding: 990606 990606 12
Width: 1000
Flags: MW
LayerCount: 2
Fore
SplineSet
50 300 m 0
 50 555 246 770 500 770 c 0
 741 770 950 566 950 300 c 0
 950 46 754 -170 500 -170 c 0
 259 -170 50 34 50 300 c 0
95 299 m 0
 95 67 276 -125 499 -125 c 0
 721 -125 905 62 905 300 c 0
 905 533 725 725 501 725 c 0
 282 725 95 542 95 299 c 0
515.400390625 422.5 m 1
 532.900390625 481.299804688 570 537.299804688 651.200195312 537.299804688 c 0
 744.299804688 537.299804688 801 466.600585938 801 387.5 c 0
 801 319.600585938 756.200195312 281.799804688 683.400390625 217.400390625 c 0
 660.299804688 197.100585938 627.400390625 164.900390625 571.400390625 111.700195312 c 1
 801 112.400390625 l 1
 801 62.7001953125 l 1
 521 62.7001953125 l 1
 521 108.200195312 l 1
 612 198.5 l 2
 679.200195312 260.799804688 742.200195312 310.5 742.200195312 385.400390625 c 0
 742.200195312 444.200195312 701.599609375 491.799804688 641.400390625 491.799804688 c 0
 556 491.799804688 547.599609375 385.400390625 544.799804688 384 c 1
 515.400390625 422.5 l 1
199 450.5 m 1
 199 491.100585938 l 1
 279.5 491.100585938 314.5 519.799804688 333.400390625 537.299804688 c 1
 346 537.299804688 l 1
 346 104 l 1
 434.200195312 104 l 1
 434.200195312 62.7001953125 l 1
 203.200195312 62.7001953125 l 1
 203.200195312 104 l 1
 290 104 l 1
 290 466.600585938 l 1
 265.5 456.799804688 241 450.5 199 450.5 c 1
EndSplineSet
EndChar
StartChar: uF1F88
Encoding: 991112 991112 994
Width: 1000
Flags: MW
LayerCount: 2
Fore
SplineSet
717 -197 m 5
 746 -166 768 -144 797 -96 c 4
 869 23 892 166 892 303 c 4
 892 668 729 784 717 803 c 5
 758 803 l 1
 826 742 950 603 950 304 c 0
 950 2 826 -136 758 -197 c 1
 717 -197 l 5
50 303 m 0
 50 603 173 742 241 803 c 1
 283 803 l 1
 254 772 231 750 202 701 c 0
 131 582 108 440 108 303 c 0
 108 -62 271 -178 283 -197 c 1
 241 -197 l 1
 177 -139 50 -1 50 303 c 0
327.799804688 459.799804688 m 1
 345.299804688 518.599609375 382.400390625 574.599609375 489.5 574.599609375 c 0
 615.5 574.599609375 672.200195312 503.900390625 672.200195312 424.799804688 c 0
 672.200195312 356.900390625 628.799804688 319.099609375 539.200195312 254.700195312 c 0
 504.200195312 234.400390625 453.799804688 202.200195312 383.799804688 149 c 1
 672.200195312 149.700195312 l 1
 672.200195312 100 l 1
 333.400390625 100 l 1
 333.400390625 145.5 l 1
 430.700195312 235.799804688 l 2
 531.5 298.099609375 614.099609375 347.799804688 614.099609375 422.700195312 c 0
 614.099609375 481.5 566.5 529.099609375 476.200195312 529.099609375 c 0
 369.799804688 529.099609375 360.700195312 422.700195312 357.900390625 421.299804688 c 1
 327.799804688 459.799804688 l 1
EndSplineSet
EndChar
StartChar: uF1F8C
Encoding: 991116 991116 998
Width: 1000
Flags: MW
LayerCount: 2
Fore
SplineSet
717 -197 m 5
 746 -166 768 -144 797 -96 c 4
 869 23 892 166 892 303 c 4
 892 668 729 784 717 803 c 5
 758 803 l 1
 826 742 950 603 950 304 c 0
 950 2 826 -136 758 -197 c 1
 717 -197 l 5
50 303 m 0
 50 603 173 742 241 803 c 1
 283 803 l 1
 254 772 231 750 202 701 c 0
 131 582 108 440 108 303 c 0
 108 -62 271 -178 283 -197 c 1
 241 -197 l 1
 177 -139 50 -1 50 303 c 0
311.700195312 326.099609375 m 0
 311.700195312 396.099609375 331.299804688 459.099609375 365.599609375 503.900390625 c 0
 411.799804688 548 481.799804688 574.599609375 561.599609375 574.599609375 c 0
 614.099609375 574.599609375 641.400390625 566.900390625 659.599609375 560.599609375 c 1
 659.599609375 518.599609375 l 1
 640.700195312 524.900390625 614.099609375 533.299804688 561.599609375 533.299804688 c 0
 504.200195312 533.299804688 460.799804688 513.700195312 429.299804688 485.700195312 c 0
 391.5 452.099609375 373.299804688 405.200195312 370.5 366 c 1
 413.900390625 403.099609375 481.099609375 423.400390625 546.900390625 423.400390625 c 0
 600.099609375 423.400390625 631.599609375 407.299804688 651.200195312 380.700195312 c 0
 677.099609375 344.299804688 686.900390625 309.299804688 688.299804688 268.700195312 c 0
 688.299804688 264.5 688.299804688 261 688.299804688 256.799804688 c 0
 688.299804688 202.200195312 675 165.099609375 640 128 c 0
 602.200195312 97.900390625 558.799804688 84.599609375 502.099609375 84.599609375 c 0
 451.700195312 84.599609375 388 97.900390625 351.599609375 145.5 c 0
 327.799804688 181.900390625 311.700195312 239.299804688 311.700195312 326.099609375 c 0
371.900390625 272.900390625 m 0
 371.900390625 266.599609375 371.200195312 260.299804688 372.599609375 254 c 0
 381 202.200195312 402.700195312 128 500.700195312 128 c 0
 580.5 128 615.5 174.900390625 626 205.700195312 c 0
 630.200195312 221.099609375 630.900390625 236.5 630.900390625 252.599609375 c 0
 630.900390625 262.400390625 631.599609375 270.799804688 630.200195312 278.5 c 0
 628.099609375 305.799804688 620.400390625 324 601.5 344.299804688 c 0
 570 377.200195312 530.099609375 380.700195312 506.299804688 380.700195312 c 0
 436.299804688 380.700195312 387.299804688 343.599609375 374.700195312 296 c 4
 372.599609375 288.299804688 371.900390625 280.599609375 371.900390625 272.900390625 c 0
EndSplineSet
EndChar
StartChar: uF1F92
Encoding: 991122 991122 1004
Width: 1000
Flags: MW
LayerCount: 2
Fore
SplineSet
717 -197 m 5
 746 -166 768 -144 797 -96 c 4
 869 23 892 166 892 303 c 4
 892 668 729 784 717 803 c 5
 758 803 l 1
 826 742 950 603 950 304 c 0
 950 2 826 -136 758 -197 c 1
 717 -197 l 5
50 303 m 0
 50 603 173 742 241 803 c 1
 283 803 l 1
 254 772 231 750 202 701 c 0
 131 582 108 440 108 303 c 0
 108 -62 271 -178 283 -197 c 1
 241 -197 l 1
 177 -139 50 -1 50 303 c 0
515.400390625 459.799804688 m 1
 532.900390625 518.599609375 570 574.599609375 651.200195312 574.599609375 c 0
 744.299804688 574.599609375 801 503.900390625 801 424.799804688 c 0
 801 356.900390625 756.200195312 319.099609375 683.400390625 254.700195312 c 0
 660.299804688 234.400390625 627.400390625 202.200195312 571.400390625 149 c 1
 801 149.700195312 l 1
 801 100 l 1
 521 100 l 1
 521 145.5 l 1
 612 235.799804688 l 2
 679.200195312 298.099609375 742.200195312 347.799804688 742.200195312 422.700195312 c 0
 742.200195312 481.5 701.599609375 529.099609375 641.400390625 529.099609375 c 0
 556 529.099609375 547.599609375 422.700195312 544.799804688 421.299804688 c 1
 515.400390625 459.799804688 l 1
199 487.799804688 m 1
 199 528.400390625 l 1
 279.5 528.400390625 314.5 557.099609375 333.400390625 574.599609375 c 1
 346 574.599609375 l 1
 346 141.299804688 l 1
 434.200195312 141.299804688 l 1
 434.200195312 100 l 1
 203.200195312 100 l 1
 203.200195312 141.299804688 l 1
 290 141.299804688 l 1
 290 503.900390625 l 1
 265.5 494.099609375 241 487.799804688 199 487.799804688 c 1
EndSplineSet
EndChar
StartChar: uF1F93
Encoding: 991123 991123 1005
Width: 1000
Flags: MW
LayerCount: 2
Fore
SplineSet
717 -197 m 5
 746 -166 768 -144 797 -96 c 4
 869 23 892 166 892 303 c 4
 892 668 729 784 717 803 c 5
 758 803 l 1
 826 742 950 603 950 304 c 0
 950 2 826 -136 758 -197 c 1
 717 -197 l 5
50 303 m 0
 50 603 173 742 241 803 c 1
 283 803 l 1
 254 772 231 750 202 701 c 0
 131 582 108 440 108 303 c 0
 108 -62 271 -178 283 -197 c 1
 241 -197 l 1
 177 -139 50 -1 50 303 c 0
512.599609375 156.700195312 m 1
 519.599609375 199.400390625 l 1
 542.700195312 167.900390625 570 150.400390625 593.799804688 140.599609375 c 0
 620.400390625 129.400390625 643.5 128 654 128 c 0
 680.599609375 128 701.599609375 139.200195312 717 157.400390625 c 0
 731.700195312 174.900390625 740.799804688 199.400390625 740.799804688 227.400390625 c 0xe8
 740.799804688 234.400390625 740.799804688 241.400390625 739.400390625 248.400390625 c 0
 735.900390625 272.200195312 724 293.200195312 707.200195312 307.200195312 c 0
 693.200195312 319.099609375 675 326.099609375 651.200195312 326.099609375 c 2
 599.400390625 326.099609375 l 1
 599.400390625 369.5 l 1
 640 372.299804688 644.900390625 373 649.799804688 373.700195312 c 0
 696 382.099609375 726.799804688 424.799804688 726.799804688 467.5 c 0
 726.799804688 486.400390625 719.099609375 503.200195312 707.200195312 514.400390625 c 0
 694.599609375 526.299804688 677.099609375 532.599609375 655.400390625 532.599609375 c 0
 635.799804688 532.599609375 616.200195312 527 599.400390625 517.900390625 c 0
 583.299804688 508.799804688 569.299804688 496.200195312 558.799804688 480.099609375 c 0
 554.599609375 473.799804688 551.099609375 466.799804688 547.599609375 459.799804688 c 1
 522.400390625 498.299804688 l 1
 540.599609375 526.299804688 560.900390625 544.5 581.200195312 555.700195312 c 0
 611.299804688 572.5 640.700195312 574.599609375 656.799804688 574.599609375 c 0
 687.599609375 574.599609375 717.700195312 564.799804688 740.799804688 548 c 0
 766.700195312 529.099609375 784.200195312 501.099609375 784.200195312 467.5 c 0xf0
 784.200195312 447.900390625 778.599609375 418.5 756.200195312 389.799804688 c 0
 744.299804688 375.099609375 728.200195312 360.400390625 705.799804688 347.799804688 c 1
 733.099609375 338 754.799804688 324 770.200195312 307.200195312 c 0
 792.599609375 283.400390625 803.799804688 254.700195312 803.799804688 226 c 0
 803.799804688 188.900390625 786.299804688 149.700195312 754.799804688 121.700195312 c 4
 729.599609375 99.2998046875 696.700195312 84.599609375 655.400390625 84.599609375 c 0
 642.799804688 84.599609375 612.700195312 86 579.799804688 101.400390625 c 0
 557.400390625 111.900390625 534.299804688 129.400390625 512.599609375 156.700195312 c 1
196.200195312 487.799804688 m 1
 196.200195312 528.400390625 l 1
 276.700195312 528.400390625 311.700195312 557.099609375 330.599609375 574.599609375 c 1
 343.200195312 574.599609375 l 1
 343.200195312 141.299804688 l 1
 431.400390625 141.299804688 l 1
 431.400390625 100 l 1
 200.400390625 100 l 1
 200.400390625 141.299804688 l 1
 287.200195312 141.299804688 l 1
 287.200195312 503.900390625 l 1
 262.700195312 494.099609375 238.200195312 487.799804688 196.200195312 487.799804688 c 1
EndSplineSet
EndChar
StartChar: uF1F94
Encoding: 991124 991124 1006
Width: 1000
Flags: MW
LayerCount: 2
Fore
SplineSet
717 -197 m 5
 746 -166 768 -144 797 -96 c 4
 869 23 892 166 892 303 c 4
 892 668 729 784 717 803 c 5
 758 803 l 1
 826 742 950 603 950 304 c 0
 950 2 826 -136 758 -197 c 1
 717 -197 l 5
50 303 m 0
 50 603 173 742 241 803 c 1
 283 803 l 1
 254 772 231 750 202 701 c 0
 131 582 108 440 108 303 c 0
 108 -62 271 -178 283 -197 c 1
 241 -197 l 1
 177 -139 50 -1 50 303 c 0
497.200195312 219.700195312 m 1
 497.200195312 253.299804688 l 0
 497.200195312 262.400390625 498.599609375 263.799804688 505.599609375 275 c 2
 675 558.5 l 1
 739.400390625 558.5 l 1
 739.400390625 262.400390625 l 1xe8
 808 262.400390625 l 1
 808 219.700195312 l 1
 739.400390625 219.700195312 l 1
 739.400390625 100 l 1
 683.400390625 100 l 1
 683.400390625 219.700195312 l 1xf0
 497.200195312 219.700195312 l 1
551.799804688 262.400390625 m 1
 687.599609375 262.400390625 l 1xe8
 687.599609375 532.599609375 l 1
 678.5 476.599609375 641.400390625 414.299804688 551.799804688 262.400390625 c 1
192 487.799804688 m 1
 192 528.400390625 l 1
 272.5 528.400390625 306.099609375 557.099609375 325 574.599609375 c 1
 339 574.599609375 l 1
 339 141.299804688 l 1
 425.799804688 141.299804688 l 1
 425.799804688 100 l 1
 194.799804688 100 l 1
 194.799804688 141.299804688 l 1
 283 141.299804688 l 1
 283 503.900390625 l 1
 258.5 494.099609375 234 487.799804688 192 487.799804688 c 1
EndSplineSet
EndChar
StartChar: uF1F95
Encoding: 991125 991125 1007
Width: 1000
Flags: MW
LayerCount: 2
Fore
SplineSet
717 -197 m 5
 746 -166 768 -144 797 -96 c 4
 869 23 892 166 892 303 c 4
 892 668 729 784 717 803 c 5
 758 803 l 1
 826 742 950 603 950 304 c 0
 950 2 826 -136 758 -197 c 1
 717 -197 l 5
50 303 m 0
 50 603 173 742 241 803 c 1
 283 803 l 1
 254 772 231 750 202 701 c 0
 131 582 108 440 108 303 c 0
 108 -62 271 -178 283 -197 c 1
 241 -197 l 1
 177 -139 50 -1 50 303 c 0
512.599609375 153.200195312 m 1
 536.400390625 192.400390625 l 1
 539.200195312 187.5 543.400390625 183.299804688 546.200195312 179.099609375 c 0
 558.799804688 162.299804688 572.799804688 150.400390625 586.799804688 142.700195312 c 0
 609.900390625 130.099609375 633 128 645.599609375 128 c 0
 666.599609375 128 694.599609375 136.400390625 714.200195312 160.900390625 c 0
 728.200195312 178.400390625 738 205 738 243.5 c 0
 738 251.200195312 737.299804688 258.900390625 736.599609375 265.900390625 c 0
 733.799804688 298.799804688 723.299804688 320.5 711.400390625 334.5 c 0
 697.400390625 350.599609375 680.599609375 356.200195312 666.599609375 356.200195312 c 0
 611.299804688 356.200195312 589.599609375 300.200195312 589.599609375 300.200195312 c 1
 542 300.200195312 l 1
 542 558.5 l 1
 777.200195312 558.5 l 1
 777.200195312 513.700195312 l 1
 592.400390625 513.700195312 l 1
 592.400390625 370.200195312 l 1
 615.5 387.700195312 635.099609375 398.900390625 668 398.900390625 c 0
 702.299804688 398.900390625 733.099609375 383.5 757.599609375 356.900390625 c 4
 783.5 328.900390625 801 289 801 242.799804688 c 0
 801 198 782.799804688 157.400390625 753.400390625 128.700195312 c 0
 726.099609375 101.400390625 689 84.599609375 647 84.599609375 c 0
 617.599609375 84.599609375 588.900390625 92.2998046875 564.400390625 106.299804688 c 0
 544.099609375 118.200195312 525.900390625 134.299804688 512.599609375 153.200195312 c 1
199 487.799804688 m 1
 199 528.400390625 l 1
 279.5 528.400390625 314.5 557.099609375 333.400390625 574.599609375 c 1
 346 574.599609375 l 1
 346 141.299804688 l 1
 434.200195312 141.299804688 l 1
 434.200195312 100 l 1
 203.200195312 100 l 1
 203.200195312 141.299804688 l 1
 290 141.299804688 l 1
 290 503.900390625 l 1
 265.5 494.099609375 241 487.799804688 199 487.799804688 c 1
EndSplineSet
EndChar
StartChar: uF1F98
Encoding: 991128 991128 1010
Width: 1000
Flags: MW
LayerCount: 2
Fore
SplineSet
717 -197 m 5
 746 -166 768 -144 797 -96 c 4
 869 23 892 166 892 303 c 4
 892 668 729 784 717 803 c 5
 758 803 l 1
 826 742 950 603 950 304 c 0
 950 2 826 -136 758 -197 c 1
 717 -197 l 5
50 303 m 0
 50 603 173 742 241 803 c 1
 283 803 l 1
 254 772 231 750 202 701 c 0
 131 582 108 440 108 303 c 0
 108 -62 271 -178 283 -197 c 1
 241 -197 l 1
 177 -139 50 -1 50 303 c 0
512.599609375 226 m 0xf2
 512.599609375 274.299804688 540.599609375 323.299804688 609.200195312 347.799804688 c 1
 554.599609375 363.900390625 522.400390625 406.599609375 522.400390625 451.400390625 c 0
 522.400390625 516.5 580.5 574.599609375 658.200195312 574.599609375 c 0
 659.599609375 574.599609375 659.599609375 574.599609375 661 574.599609375 c 4
 733.099609375 573.200195312 794 518.599609375 794 452.099609375 c 0xec
 794 410.099609375 767.400390625 369.5 705.799804688 347.799804688 c 1
 750.599609375 333.799804688 803.799804688 293.200195312 803.799804688 225.299804688 c 0
 803.799804688 151.799804688 740.799804688 84.599609375 658.200195312 84.599609375 c 0
 575.599609375 84.599609375 512.599609375 151.099609375 512.599609375 226 c 0xf2
568.599609375 226.700195312 m 0
 568.599609375 191.700195312 581.200195312 163.700195312 602.200195312 146.900390625 c 0
 616.900390625 135 635.799804688 128 658.200195312 128 c 0
 677.799804688 128 698.799804688 134.299804688 715.599609375 148.299804688 c 0
 733.799804688 163.700195312 746.400390625 189.599609375 746.400390625 227.400390625 c 0xf2
 746.400390625 233.700195312 745.700195312 240 745 246.299804688 c 0
 741.5 270.099609375 731.700195312 289.700195312 717 303.700195312 c 0
 701.599609375 318.400390625 681.299804688 326.099609375 656.799804688 326.099609375 c 0
 640 326.099609375 619.700195312 320.5 603.599609375 307.900390625 c 0
 586.799804688 294.599609375 573.5 274.299804688 570 243.5 c 0
 569.299804688 237.900390625 568.599609375 232.299804688 568.599609375 226.700195312 c 0
571.400390625 451.400390625 m 0
 571.400390625 425.5 580.5 404.5 596.599609375 390.5 c 0
 612 377.200195312 633 369.5 656.799804688 369.5 c 0
 680.599609375 369.5 700.900390625 376.5 715.599609375 388.400390625 c 0
 733.799804688 403.099609375 745 424.799804688 745 451.400390625 c 0
 745 458.400390625 743.599609375 465.400390625 742.200195312 471.700195312 c 0
 738 490.599609375 727.5 506.700195312 712.799804688 517.200195312 c 0
 698.099609375 527.700195312 679.900390625 533.299804688 658.200195312 533.299804688 c 0xec
 635.099609375 533.299804688 614.099609375 527 599.400390625 515.099609375 c 0
 584 502.5 574.200195312 485 571.400390625 463.299804688 c 0
 570.700195312 459.799804688 571.400390625 455.599609375 571.400390625 451.400390625 c 0
196.200195312 487.799804688 m 1
 196.200195312 528.400390625 l 1
 276.700195312 528.400390625 311.700195312 557.099609375 330.599609375 574.599609375 c 1
 343.200195312 574.599609375 l 1
 343.200195312 141.299804688 l 1
 431.400390625 141.299804688 l 1
 431.400390625 100 l 1
 200.400390625 100 l 1
 200.400390625 141.299804688 l 1
 287.200195312 141.299804688 l 1
 287.200195312 503.900390625 l 1
 262.700195312 494.099609375 238.200195312 487.799804688 196.200195312 487.799804688 c 1
EndSplineSet
EndChar
StartChar: uF1F99
Encoding: 991129 991129 1011
Width: 1000
Flags: MW
LayerCount: 2
Fore
SplineSet
717 -197 m 5
 746 -166 768 -144 797 -96 c 4
 869 23 892 166 892 303 c 4
 892 668 729 784 717 803 c 5
 758 803 l 1
 826 742 950 603 950 304 c 0
 950 2 826 -136 758 -197 c 1
 717 -197 l 5
50 303 m 0
 50 603 173 742 241 803 c 1
 283 803 l 1
 254 772 231 750 202 701 c 0
 131 582 108 440 108 303 c 0
 108 -62 271 -178 283 -197 c 1
 241 -197 l 1
 177 -139 50 -1 50 303 c 0
512.599609375 404.5 m 0
 512.599609375 455.599609375 525.900390625 494.099609375 563 532.599609375 c 0
 592.400390625 562 621.099609375 574.599609375 659.599609375 574.599609375 c 0
 686.900390625 574.599609375 721.200195312 565.5 749.200195312 534.700195312 c 0
 780 500.400390625 803.799804688 439.5 803.799804688 333.099609375 c 0
 803.799804688 254 779.299804688 186.799804688 742.200195312 142.700195312 c 0
 711.400390625 105.599609375 670.799804688 84.599609375 627.400390625 84.599609375 c 0
 584 84.599609375 558.799804688 97.900390625 533.599609375 116.799804688 c 1
 556 154.599609375 l 1
 572.099609375 143.400390625 589.599609375 128 628.799804688 128 c 0
 662.400390625 128 692.5 146.900390625 714.200195312 183.299804688 c 0
 727.5 206.400390625 737.299804688 235.799804688 742.200195312 271.5 c 0
 742.900390625 278.5 744.299804688 285.5 745 293.200195312 c 1
 714.200195312 256.799804688 673.599609375 235.099609375 626 235.099609375 c 0
 589.599609375 235.099609375 569.299804688 251.200195312 550.400390625 277.799804688 c 0
 521 318.400390625 512.599609375 356.200195312 512.599609375 404.5 c 0
570 404.5 m 0
 570 366.700195312 572.099609375 340.099609375 592.400390625 310.700195312 c 0
 605.700195312 291.799804688 624.599609375 278.5 654 278.5 c 0
 680.599609375 278.5 703 291.099609375 718.400390625 310.700195312 c 4
 733.799804688 330.299804688 743.599609375 357.599609375 743.599609375 387 c 0
 743.599609375 433.200195312 730.299804688 532.599609375 661 532.599609375 c 0
 641.400390625 532.599609375 624.599609375 526.299804688 612 516.5 c 0
 590.299804688 499.700195312 578.400390625 473.799804688 574.200195312 454.900390625 c 0
 570 438.099609375 570 422 570 404.5 c 0
196.200195312 487.799804688 m 1
 196.200195312 528.400390625 l 1
 276.700195312 528.400390625 311.700195312 557.099609375 330.599609375 574.599609375 c 1
 343.200195312 574.599609375 l 1
 343.200195312 141.299804688 l 1
 431.400390625 141.299804688 l 1
 431.400390625 100 l 1
 200.400390625 100 l 1
 200.400390625 141.299804688 l 1
 287.200195312 141.299804688 l 1
 287.200195312 503.900390625 l 1
 262.700195312 494.099609375 238.200195312 487.799804688 196.200195312 487.799804688 c 1
EndSplineSet
EndChar
StartChar: uF1FAA
Encoding: 991146 991146 26
Width: 1000
Flags: MW
LayerCount: 2
Fore
SplineSet
50 300 m 0
 50 555 246 770 500 770 c 0
 741 770 950 566 950 300 c 0
 950 46 754 -170 500 -170 c 0
 259 -170 50 34 50 300 c 0
95 299 m 0
 95 67 276 -125 499 -125 c 0
 721 -125 905 62 905 300 c 0
 905 533 725 725 501 725 c 0
 282 725 95 542 95 299 c 0
530.099609375 296.5 m 0
 530.099609375 366.5 549.700195312 429.5 584 474.30078125 c 0
 616.900390625 518.400390625 663.799804688 545 717 545 c 0
 752 545 773.700195312 537.30078125 791.900390625 531 c 1
 791.900390625 489 l 1
 773 495.30078125 752 503.700195312 717 503.700195312 c 0
 678.5 503.700195312 649.799804688 484.100585938 628.799804688 456.100585938 c 0
 603.599609375 422.5 591 375.600585938 588.900390625 336.400390625 c 1
 618.299804688 373.5 663.099609375 393.80078125 707.200195312 393.80078125 c 0
 742.900390625 393.80078125 763.900390625 377.700195312 783.5 351.100585938 c 0
 809.400390625 314.700195312 819.200195312 279.700195312 820.599609375 239.100585938 c 0
 820.599609375 234.900390625 820.599609375 231.400390625 820.599609375 227.200195312 c 0
 820.599609375 172.600585938 807.299804688 135.5 772.299804688 98.400390625 c 0
 744.299804688 68.30078125 714.900390625 55 677.099609375 55 c 0
 643.5 55 600.799804688 68.30078125 570 115.900390625 c 0
 546.200195312 152.30078125 530.099609375 209.700195312 530.099609375 296.5 c 0
590.299804688 243.30078125 m 0
 590.299804688 237 590.299804688 230.700195312 591 224.400390625 c 0
 596.599609375 172.600585938 611.299804688 98.400390625 676.400390625 98.400390625 c 0
 729.599609375 98.400390625 752.700195312 145.30078125 759.700195312 176.100585938 c 0
 762.5 191.5 763.200195312 206.900390625 763.200195312 223 c 0
 763.200195312 232.80078125 763.200195312 241.200195312 762.5 248.900390625 c 0
 761.099609375 276.200195312 756.200195312 294.400390625 743.599609375 314.700195312 c 0
 722.599609375 347.600585938 696 351.100585938 679.900390625 351.100585938 c 0
 633 351.100585938 600.799804688 314 592.400390625 266.400390625 c 4
 591 258.700195312 590.299804688 251 590.299804688 243.30078125 c 0
179.400390625 430.200195312 m 1
 196.900390625 489 234 545 315.200195312 545 c 0
 408.299804688 545 465 474.30078125 465 395.200195312 c 0
 465 327.30078125 420.900390625 289.5 348.099609375 225.100585938 c 0
 325 204.80078125 291.400390625 172.600585938 235.400390625 119.400390625 c 1
 465 120.100585938 l 1
 465 70.400390625 l 1
 185 70.400390625 l 1
 185 115.900390625 l 1
 276 206.200195312 l 2
 343.200195312 268.5 406.900390625 318.200195312 406.900390625 393.100585938 c 0
 406.900390625 451.900390625 366.299804688 499.5 306.099609375 499.5 c 0
 220.700195312 499.5 212.299804688 393.100585938 209.5 391.700195312 c 1
 179.400390625 430.200195312 l 1
EndSplineSet
EndChar
StartChar: uF1FB2
Encoding: 991154 991154 1015
Width: 1000
Flags: MW
LayerCount: 2
Fore
SplineSet
717 -197 m 5
 746 -166 768 -144 797 -96 c 4
 869 23 892 166 892 303 c 4
 892 668 729 784 717 803 c 5
 758 803 l 1
 826 742 950 603 950 304 c 0
 950 2 826 -136 758 -197 c 1
 717 -197 l 5
50 303 m 0
 50 603 173 742 241 803 c 1
 283 803 l 1
 254 772 231 750 202 701 c 0
 131 582 108 440 108 303 c 0
 108 -62 271 -178 283 -197 c 1
 241 -197 l 1
 177 -139 50 -1 50 303 c 0
334.799804688 256.099609375 m 0
 334.799804688 337.299804688 392.200195312 422.700195312 539.200195312 422.700195312 c 0
 596.599609375 422.700195312 618.299804688 416.400390625 661 391.900390625 c 1
 652.599609375 345.700195312 l 1
 625.299804688 362.5 607.799804688 377.900390625 537.799804688 377.900390625 c 0
 449.599609375 377.900390625 402.700195312 331 392.200195312 278.5 c 4
 390.799804688 270.799804688 389.400390625 263.799804688 389.400390625 256.099609375 c 0
 389.400390625 188.200195312 448.200195312 137.099609375 536.400390625 137.099609375 c 0
 605.700195312 137.099609375 638.599609375 159.5 661 174.900390625 c 1
 665.200195312 128 l 1
 633.700195312 107 598.700195312 92.2998046875 535.700195312 92.2998046875 c 0
 406.900390625 92.2998046875 334.799804688 165.799804688 334.799804688 256.099609375 c 0
EndSplineSet
EndChar
StartChar: uF1FB8
Encoding: 991160 991160 1021
Width: 1000
Flags: MW
LayerCount: 2
Fore
SplineSet
717 -197 m 5
 746 -166 768 -144 797 -96 c 4
 869 23 892 166 892 303 c 4
 892 668 729 784 717 803 c 5
 758 803 l 1
 826 742 950 603 950 304 c 0
 950 2 826 -136 758 -197 c 1
 717 -197 l 5
50 303 m 0
 50 603 173 742 241 803 c 1
 283 803 l 1
 254 772 231 750 202 701 c 0
 131 582 108 440 108 303 c 0
 108 -62 271 -178 283 -197 c 1
 241 -197 l 1
 177 -139 50 -1 50 303 c 0
473.400390625 100 m 5
 473.400390625 411.5 l 5
 525.900390625 411.5 l 5
 525.900390625 100 l 5
 473.400390625 100 l 5
468.5 513 m 1
 468.5 575.299804688 l 1
 531.5 575.299804688 l 1
 531.5 513 l 1
 468.5 513 l 1
EndSplineSet
EndChar
StartChar: uF1FB9
Encoding: 991161 991161 1022
Width: 1000
Flags: MW
LayerCount: 2
Fore
SplineSet
717 -197 m 5
 746 -166 768 -144 797 -96 c 4
 869 23 892 166 892 303 c 4
 892 668 729 784 717 803 c 5
 758 803 l 1
 826 742 950 603 950 304 c 0
 950 2 826 -136 758 -197 c 1
 717 -197 l 5
50 303 m 0
 50 603 173 742 241 803 c 1
 283 803 l 1
 254 772 231 750 202 701 c 0
 131 582 108 440 108 303 c 0
 108 -62 271 -178 283 -197 c 1
 241 -197 l 1
 177 -139 50 -1 50 303 c 0
384.5 -19.7001953125 m 1
 395 23 l 1
 412.5 9 427.900390625 1.2998046875 449.599609375 1.2998046875 c 0
 478.299804688 1.2998046875 497.900390625 18.099609375 502.799804688 36.2998046875 c 0
 504.200195312 41.900390625 504.200195312 48.2001953125 504.200195312 54.5 c 2
 504.200195312 411.5 l 1
 556.700195312 411.5 l 1
 556.700195312 65 l 2xe8
 556.700195312 26.5 545.5 0.599609375 530.799804688 -16.2001953125 c 0
 512.599609375 -36.5 488.099609375 -43.5 468.5 -43.5 c 0
 434.900390625 -43.5 406.200195312 -32.2998046875 384.5 -19.7001953125 c 1
494.400390625 513 m 1
 494.400390625 575.299804688 l 1
 557.400390625 575.299804688 l 1
 557.400390625 513 l 1
 494.400390625 513 l 1
EndSplineSet
EndChar
StartChar: uF1FBA
Encoding: 991162 991162 1023
Width: 1000
Flags: MW
LayerCount: 2
Fore
SplineSet
717 -197 m 5
 746 -166 768 -144 797 -96 c 4
 869 23 892 166 892 303 c 4
 892 668 729 784 717 803 c 5
 758 803 l 1
 826 742 950 603 950 304 c 0
 950 2 826 -136 758 -197 c 1
 717 -197 l 5
50 303 m 0
 50 603 173 742 241 803 c 1
 283 803 l 1
 254 772 231 750 202 701 c 0
 131 582 108 440 108 303 c 0
 108 -62 271 -178 283 -197 c 1
 241 -197 l 1
 177 -139 50 -1 50 303 c 0
323.599609375 100 m 1
 323.599609375 605.400390625 l 1
 374 605.400390625 l 1
 374 256.099609375 l 1
 588.200195312 411.5 l 1
 661 411.5 l 1
 505.599609375 291.099609375 l 1
 676.400390625 100 l 1
 602.200195312 100 l 1
 455.200195312 256.799804688 l 1
 372.599609375 199.400390625 l 1
 372.599609375 100 l 1
 323.599609375 100 l 1
EndSplineSet
EndChar
StartChar: uF1FBE
Encoding: 991166 991166 1027
Width: 1000
Flags: MW
LayerCount: 2
Fore
SplineSet
717 -197 m 5
 746 -166 768 -144 797 -96 c 4
 869 23 892 166 892 303 c 4
 892 668 729 784 717 803 c 5
 758 803 l 1
 826 742 950 603 950 304 c 0
 950 2 826 -136 758 -197 c 1
 717 -197 l 5
50 303 m 0
 50 603 173 742 241 803 c 1
 283 803 l 1
 254 772 231 750 202 701 c 0
 131 582 108 440 108 303 c 0
 108 -62 271 -178 283 -197 c 1
 241 -197 l 1
 177 -139 50 -1 50 303 c 0
332.700195312 254.700195312 m 0
 332.700195312 335.200195312 390.799804688 422.700195312 499.299804688 422.700195312 c 0
 596.599609375 422.700195312 667.299804688 348.5 667.299804688 254 c 0
 667.299804688 158.799804688 593.099609375 92.2998046875 499.299804688 92.2998046875 c 0
 405.5 92.2998046875 332.700195312 158.799804688 332.700195312 254.700195312 c 0
387.299804688 261.700195312 m 0
 387.299804688 183.299804688 433.5 137.099609375 499.299804688 137.099609375 c 0
 555.299804688 137.099609375 612 174.200195312 612 261.700195312 c 0
 612 335.900390625 565.799804688 379.299804688 499.299804688 379.299804688 c 0
 445.400390625 379.299804688 387.299804688 346.400390625 387.299804688 261.700195312 c 0
EndSplineSet
EndChar
StartChar: uF1FBF
Encoding: 991167 991167 1028
Width: 1000
Flags: MW
LayerCount: 2
Fore
SplineSet
717 -197 m 5
 746 -166 768 -144 797 -96 c 4
 869 23 892 166 892 303 c 4
 892 668 729 784 717 803 c 5
 758 803 l 1
 826 742 950 603 950 304 c 0
 950 2 826 -136 758 -197 c 1
 717 -197 l 5
50 303 m 0
 50 603 173 742 241 803 c 1
 283 803 l 1
 254 772 231 750 202 701 c 0
 131 582 108 440 108 303 c 0
 108 -62 271 -178 283 -197 c 1
 241 -197 l 1
 177 -139 50 -1 50 303 c 0
318 -36.5 m 1
 318 411.5 l 1
 370.5 411.5 l 1
 370.5 377.200195312 l 1
 392.900390625 389.799804688 416 398.200195312 438.400390625 404.5 c 0
 481.799804688 416.400390625 517.5 414.299804688 540.599609375 413.599609375 c 0
 588.900390625 412.200195312 628.099609375 394.700195312 647.700195312 365.299804688 c 0
 667.299804688 335.200195312 682 299.5 682 256.799804688 c 0
 682 209.900390625 666.599609375 165.799804688 640 135 c 0
 613.400390625 109.099609375 567.200195312 92.2998046875 514 92.2998046875 c 0
 476.200195312 92.2998046875 444.700195312 99.2998046875 417.400390625 109.799804688 c 0
 400.599609375 116.099609375 386.599609375 123.799804688 372.599609375 132.200195312 c 1
 372.599609375 -36.5 l 1
 318 -36.5 l 1
372.599609375 188.200195312 m 2
 372.599609375 178.400390625 385.900390625 162.299804688 409 150.400390625 c 0
 425.799804688 142 448.200195312 135 474.799804688 135 c 0
 512.599609375 135 560.200195312 139.200195312 589.599609375 161.599609375 c 0
 616.900390625 182.599609375 626.700195312 219.700195312 626.700195312 255.400390625 c 0
 626.700195312 263.099609375 626 270.799804688 624.599609375 277.799804688 c 0
 618.299804688 303.700195312 610.599609375 334.5 586.799804688 352 c 0
 563 369.5 521.700195312 373.700195312 483.900390625 373.700195312 c 0
 453.099609375 373.700195312 430 366.700195312 411.799804688 359 c 0
 386.599609375 347.799804688 374 333.799804688 372.599609375 333.799804688 c 1
 372.599609375 188.200195312 l 2
EndSplineSet
EndChar
StartChar: uF1FC0
Encoding: 991168 991168 1029
Width: 1000
Flags: MW
LayerCount: 2
Fore
SplineSet
717 -197 m 5
 746 -166 768 -144 797 -96 c 4
 869 23 892 166 892 303 c 4
 892 668 729 784 717 803 c 5
 758 803 l 1
 826 742 950 603 950 304 c 0
 950 2 826 -136 758 -197 c 1
 717 -197 l 5
50 303 m 0
 50 603 173 742 241 803 c 1
 283 803 l 1
 254 772 231 750 202 701 c 0
 131 582 108 440 108 303 c 0
 108 -62 271 -178 283 -197 c 1
 241 -197 l 1
 177 -139 50 -1 50 303 c 0
317.299804688 254.700195312 m 0
 317.299804688 346.400390625 376.099609375 418.5 485.299804688 418.5 c 0
 553.900390625 418.5 598.700195312 394.700195312 629.5 371.599609375 c 1
 629.5 418.5 l 1
 682.700195312 418.5 l 1xf4
 682.700195312 -36.5 l 1
 626 -36.5 l 1
 626 135 l 1xf8
 585.400390625 109.799804688 530.799804688 92.2998046875 467.799804688 92.2998046875 c 0
 423 92.2998046875 382.400390625 107 358.599609375 130.799804688 c 0
 333.400390625 160.900390625 317.299804688 205 317.299804688 254.700195312 c 0
371.900390625 254.700195312 m 0
 371.900390625 219 383.099609375 177.700195312 413.900390625 156 c 4
 439.099609375 138.5 479 135.700195312 514.700195312 135.700195312 c 0
 571.400390625 135.700195312 629.5 166.5 629.5 196.599609375 c 2
 629.5 299.5 l 2
 629.5 319.799804688 600.099609375 374.400390625 524.5 374.400390625 c 0xf4
 488.099609375 374.400390625 433.5 367.400390625 402 339.400390625 c 0
 379.599609375 319.799804688 371.900390625 286.900390625 371.900390625 254.700195312 c 0
EndSplineSet
EndChar
StartChar: uF1FC3
Encoding: 991171 991171 1032
Width: 1000
Flags: MW
LayerCount: 2
Fore
SplineSet
717 -197 m 5
 746 -166 768 -144 797 -96 c 4
 869 23 892 166 892 303 c 4
 892 668 729 784 717 803 c 5
 758 803 l 1
 826 742 950 603 950 304 c 0
 950 2 826 -136 758 -197 c 1
 717 -197 l 5
50 303 m 0
 50 603 173 742 241 803 c 1
 283 803 l 1
 254 772 231 750 202 701 c 0
 131 582 108 440 108 303 c 0
 108 -62 271 -178 283 -197 c 1
 241 -197 l 1
 177 -139 50 -1 50 303 c 0
390.099609375 370.200195312 m 1
 390.099609375 411.5 l 1
 450.299804688 411.5 l 1
 450.299804688 499.700195312 l 1
 499.299804688 499.700195312 l 1
 499.299804688 411.5 l 1
 598 411.5 l 1
 598 370.200195312 l 1
 499.299804688 370.200195312 l 1
 499.299804688 198 l 2
 499.299804688 181.900390625 500.700195312 160.200195312 511.900390625 147.599609375 c 4
 517.5 141.299804688 525.200195312 137.099609375 537.099609375 137.099609375 c 0
 570 137.099609375 591 156 598.700195312 160.200195312 c 1
 609.900390625 118.900390625 l 1
 573.5 99.2998046875 537.099609375 92.2998046875 506.299804688 92.2998046875 c 0
 494.400390625 92.2998046875 479.700195312 95.7998046875 467.799804688 109.799804688 c 0
 457.299804688 123.099609375 448.900390625 144.799804688 448.900390625 181.900390625 c 2
 448.900390625 370.200195312 l 1
 390.099609375 370.200195312 l 1
EndSplineSet
EndChar
StartChar: uF1FC5
Encoding: 991173 991173 1034
Width: 1000
Flags: MW
LayerCount: 2
Fore
SplineSet
717 -197 m 5
 746 -166 768 -144 797 -96 c 4
 869 23 892 166 892 303 c 4
 892 668 729 784 717 803 c 5
 758 803 l 1
 826 742 950 603 950 304 c 0
 950 2 826 -136 758 -197 c 1
 717 -197 l 5
50 303 m 0
 50 603 173 742 241 803 c 1
 283 803 l 1
 254 772 231 750 202 701 c 0
 131 582 108 440 108 303 c 0
 108 -62 271 -178 283 -197 c 1
 241 -197 l 1
 177 -139 50 -1 50 303 c 0
315.200195312 411.5 m 1
 369.099609375 411.5 l 1
 451.700195312 240.700195312 l 2
 478.299804688 167.900390625 482.5 156.700195312 486 135 c 1
 492.299804688 181.200195312 623.900390625 384.200195312 633 411.5 c 1
 684.799804688 411.5 l 1
 515.400390625 100 l 1
 453.799804688 100 l 1
 315.200195312 411.5 l 1
EndSplineSet
EndChar
StartChar: uF1FC8
Encoding: 991176 991176 1037
Width: 1000
Flags: MW
LayerCount: 2
Fore
SplineSet
717 -197 m 5
 746 -166 768 -144 797 -96 c 4
 869 23 892 166 892 303 c 4
 892 668 729 784 717 803 c 5
 758 803 l 1
 826 742 950 603 950 304 c 0
 950 2 826 -136 758 -197 c 1
 717 -197 l 5
50 303 m 0
 50 603 173 742 241 803 c 1
 283 803 l 1
 254 772 231 750 202 701 c 0
 131 582 108 440 108 303 c 0
 108 -62 271 -178 283 -197 c 1
 241 -197 l 1
 177 -139 50 -1 50 303 c 0
315.200195312 411.5 m 1
 370.5 411.5 l 1
 514.700195312 168.599609375 495.799804688 173.5 508.400390625 135 c 1
 510.5 198.700195312 628.799804688 398.900390625 632.299804688 411.5 c 1
 684.799804688 411.5 l 1
 498.599609375 37 l 2
 475.5 2 456.599609375 -18.2998046875 435.599609375 -30.2001953125 c 4
 417.400390625 -40 400.599609375 -43.5 385.200195312 -43.5 c 0
 371.900390625 -43.5 350.900390625 -42.099609375 334.099609375 -37.900390625 c 1
 330.599609375 7.599609375 l 1
 353.700195312 -0.099609375 369.799804688 -4.2998046875 381.700195312 -4.2998046875 c 0
 391.5 -4.2998046875 399.200195312 -1.5 409.700195312 5.5 c 0
 427.900390625 17.400390625 443.299804688 41.900390625 470.599609375 89.5 c 0
 473.400390625 94.400390625 474.799804688 97.900390625 474.799804688 100.700195312 c 0
 474.799804688 104.200195312 472 107 469.200195312 112.599609375 c 2
 315.200195312 411.5 l 1
EndSplineSet
EndChar
StartChar: uF2023
Encoding: 991267 991267 1039
Width: 1000
Flags: MW
LayerCount: 2
Fore
SplineSet
717 -197 m 5
 746 -166 768 -144 797 -96 c 4
 869 23 892 166 892 303 c 4
 892 668 729 784 717 803 c 5
 758 803 l 1
 826 742 950 603 950 304 c 0
 950 2 826 -136 758 -197 c 1
 717 -197 l 5
50 303 m 0
 50 603 173 742 241 803 c 1
 283 803 l 1
 254 772 231 750 202 701 c 0
 131 582 108 440 108 303 c 0
 108 -62 271 -178 283 -197 c 1
 241 -197 l 1
 177 -139 50 -1 50 303 c 0
322.900390625 317 m 2
 322.900390625 330.299804688 l 2
 322.900390625 398.900390625 328.5 530.5 433.5 566.200195312 c 0
 452.400390625 571.099609375 472.700195312 574.599609375 499.299804688 574.599609375 c 0
 553.900390625 574.599609375 602.200195312 558.5 626 531.200195312 c 0
 668 483.599609375 675.700195312 403.099609375 677.099609375 352 c 0
 677.099609375 342.900390625 677.099609375 334.5 677.099609375 327.5 c 0
 677.099609375 185.400390625 641.400390625 116.799804688 565.799804688 92.2998046875 c 0
 547.599609375 87.400390625 526.599609375 84.599609375 499.299804688 84.599609375 c 0
 412.5 84.599609375 323.599609375 118.200195312 322.900390625 317 c 2
377.5 315.599609375 m 2
 377.5 200.099609375 405.5 153.900390625 448.900390625 136.400390625 c 4
 467.099609375 129.400390625 485.299804688 127.299804688 500.700195312 127.299804688 c 0
 521.700195312 127.299804688 547.599609375 131.5 570.700195312 146.200195312 c 0
 601.5 169.299804688 622.5 217.599609375 622.5 316.299804688 c 2
 622.5 359 l 2
 622.5 427.599609375 611.299804688 469.599609375 595.200195312 494.799804688 c 0
 567.900390625 524.900390625 530.099609375 531.200195312 499.299804688 531.200195312 c 0
 444.700195312 531.200195312 377.5 508.099609375 377.5 359 c 2
 377.5 315.599609375 l 2
EndSplineSet
EndChar
StartChar: uF2061
Encoding: 991329 991329 168
Width: 1000
Flags: MW
LayerCount: 2
Fore
SplineSet
50 300 m 0
 50 555 246 770 500 770 c 0
 741 770 950 566 950 300 c 0
 950 46 754 -170 500 -170 c 0
 259 -170 50 34 50 300 c 0
318 190.450195312 m 1
 554.599609375 190.450195312 l 1xf0
 554.599609375 70.75 l 1
 612.700195312 70.75 l 1
 612.700195312 190.450195312 l 1
 682 190.450195312 l 1
 682 233.150390625 l 1
 612.700195312 233.150390625 l 1xe8
 612.700195312 529.25 l 1
 542 529.25 l 1
 325.700195312 245.75 l 2
 318.700195312 234.549804688 318 233.150390625 318 224.049804688 c 0
 318 190.450195312 l 1
372.599609375 233.150390625 m 1
 492.299804688 385.049804688 546.900390625 447.349609375 560.900390625 503.349609375 c 1
 560.900390625 233.150390625 l 1xe8
 372.599609375 233.150390625 l 1
EndSplineSet
EndChar
StartChar: uF2064
Encoding: 991332 991332 171
Width: 1000
Flags: MW
LayerCount: 2
Fore
SplineSet
50 300 m 0
 50 555 246 770 500 770 c 0
 741 770 950 566 950 300 c 0
 950 46 754 -170 500 -170 c 0
 259 -170 50 34 50 300 c 0
323.599609375 483.75 m 1
 628.799804688 483.75 l 1
 468.5 357.049804688 400.599609375 205.849609375 400.599609375 66.5498046875 c 1
 460.099609375 66.5498046875 l 5
 471.299804688 217.049804688 570 373.849609375 676.400390625 487.25 c 1
 676.400390625 532.75 l 1
 323.599609375 533.450195312 l 1
 323.599609375 483.75 l 1
EndSplineSet
EndChar
StartChar: uF269C
Encoding: 992924 992924 1040
Width: 1000
Flags: MW
LayerCount: 2
Fore
SplineSet
717 -197 m 5
 746 -166 768 -144 797 -96 c 4
 869 23 892 166 892 303 c 4
 892 668 729 784 717 803 c 5
 758 803 l 1
 826 742 950 603 950 304 c 0
 950 2 826 -136 758 -197 c 1
 717 -197 l 5
50 303 m 0
 50 603 173 742 241 803 c 1
 283 803 l 1
 254 772 231 750 202 701 c 0
 131 582 108 440 108 303 c 0
 108 -62 271 -178 283 -197 c 1
 241 -197 l 1
 177 -139 50 -1 50 303 c 0
529.400390625 317 m 2
 529.400390625 330.299804688 l 2
 529.400390625 398.900390625 533.599609375 530.5 630.200195312 566.200195312 c 0
 642.799804688 571.099609375 657.5 574.599609375 675 574.599609375 c 0
 711.400390625 574.599609375 746.400390625 558.5 770.200195312 531.200195312 c 0
 812.200195312 483.599609375 819.200195312 403.099609375 820.599609375 352 c 0
 820.599609375 342.900390625 820.599609375 334.5 820.599609375 327.5 c 0
 820.599609375 185.400390625 784.900390625 116.799804688 718.400390625 92.2998046875 c 0
 706.5 87.400390625 693.200195312 84.599609375 675 84.599609375 c 0
 616.900390625 84.599609375 530.099609375 118.200195312 529.400390625 317 c 2
584 315.599609375 m 2
 584 200.099609375 612 153.900390625 641.400390625 136.400390625 c 4
 653.299804688 129.400390625 664.5 127.299804688 675 127.299804688 c 0
 689 127.299804688 707.200195312 131.5 722.599609375 146.200195312 c 0
 746.400390625 169.299804688 766 217.599609375 766 316.299804688 c 2
 766 359 l 2
 766 427.599609375 755.5 469.599609375 739.400390625 494.799804688 c 0
 720.5 524.900390625 695.299804688 531.200195312 675 531.200195312 c 0
 638.599609375 531.200195312 584 508.099609375 584 359 c 2
 584 315.599609375 l 2
179.400390625 317 m 2
 179.400390625 330.299804688 l 2
 179.400390625 398.900390625 183.599609375 530.5 280.200195312 566.200195312 c 0
 292.799804688 571.099609375 307.5 574.599609375 325 574.599609375 c 0
 361.400390625 574.599609375 396.400390625 558.5 420.200195312 531.200195312 c 0
 462.200195312 483.599609375 469.200195312 403.099609375 470.599609375 352 c 0
 470.599609375 342.900390625 470.599609375 334.5 470.599609375 327.5 c 0
 470.599609375 185.400390625 434.900390625 116.799804688 368.400390625 92.2998046875 c 0
 356.5 87.400390625 343.200195312 84.599609375 325 84.599609375 c 0
 266.900390625 84.599609375 180.099609375 118.200195312 179.400390625 317 c 2
234 315.599609375 m 2
 234 200.099609375 262 153.900390625 291.400390625 136.400390625 c 4
 303.299804688 129.400390625 314.5 127.299804688 325 127.299804688 c 0
 339 127.299804688 357.200195312 131.5 372.599609375 146.200195312 c 0
 396.400390625 169.299804688 416 217.599609375 416 316.299804688 c 2
 416 359 l 2
 416 427.599609375 405.5 469.599609375 389.400390625 494.799804688 c 0
 370.5 524.900390625 345.299804688 531.200195312 325 531.200195312 c 0
 288.599609375 531.200195312 234 508.099609375 234 359 c 2
 234 315.599609375 l 2
EndSplineSet
EndChar
StartChar: uF269D
Encoding: 992925 992925 1041
Width: 1000
Flags: MW
LayerCount: 2
Fore
SplineSet
717 -197 m 5
 746 -166 768 -144 797 -96 c 4
 869 23 892 166 892 303 c 4
 892 668 729 784 717 803 c 5
 758 803 l 1
 826 742 950 603 950 304 c 0
 950 2 826 -136 758 -197 c 1
 717 -197 l 5
50 303 m 0
 50 603 173 742 241 803 c 1
 283 803 l 1
 254 772 231 750 202 701 c 0
 131 582 108 440 108 303 c 0
 108 -62 271 -178 283 -197 c 1
 241 -197 l 1
 177 -139 50 -1 50 303 c 0
574.900390625 487.799804688 m 1
 574.900390625 528.400390625 l 1
 655.400390625 528.400390625 689.700195312 557.099609375 708.599609375 574.599609375 c 1
 721.900390625 574.599609375 l 1
 721.900390625 141.299804688 l 1
 809.400390625 141.299804688 l 1
 809.400390625 100 l 1
 578.400390625 100 l 1
 578.400390625 141.299804688 l 1
 665.900390625 141.299804688 l 1
 665.900390625 503.900390625 l 1
 641.400390625 494.099609375 616.900390625 487.799804688 574.900390625 487.799804688 c 1
190.599609375 317 m 2
 190.599609375 330.299804688 l 2
 190.599609375 398.900390625 195.5 530.5 292.099609375 566.200195312 c 0
 304.700195312 571.099609375 318.700195312 574.599609375 336.200195312 574.599609375 c 0
 372.599609375 574.599609375 407.599609375 558.5 431.400390625 531.200195312 c 0
 473.400390625 483.599609375 481.099609375 403.099609375 482.5 352 c 0
 482.5 342.900390625 482.5 334.5 482.5 327.5 c 0
 482.5 185.400390625 446.799804688 116.799804688 380.299804688 92.2998046875 c 0
 368.400390625 87.400390625 354.400390625 84.599609375 336.200195312 84.599609375 c 0
 278.099609375 84.599609375 191.299804688 118.200195312 190.599609375 317 c 2
245.200195312 315.599609375 m 2
 245.200195312 200.099609375 273.200195312 153.900390625 302.599609375 136.400390625 c 4
 314.5 129.400390625 326.400390625 127.299804688 336.900390625 127.299804688 c 0
 350.900390625 127.299804688 368.400390625 131.5 383.799804688 146.200195312 c 0
 407.599609375 169.299804688 427.900390625 217.599609375 427.900390625 316.299804688 c 2
 427.900390625 359 l 2
 427.900390625 427.599609375 416.700195312 469.599609375 400.599609375 494.799804688 c 0
 381.700195312 524.900390625 356.5 531.200195312 336.200195312 531.200195312 c 0
 299.799804688 531.200195312 245.200195312 508.099609375 245.200195312 359 c 2
 245.200195312 315.599609375 l 2
EndSplineSet
EndChar
StartChar: uF269F
Encoding: 992927 992927 1043
Width: 1000
Flags: MW
LayerCount: 2
Fore
SplineSet
717 -197 m 5
 746 -166 768 -144 797 -96 c 4
 869 23 892 166 892 303 c 4
 892 668 729 784 717 803 c 5
 758 803 l 1
 826 742 950 603 950 304 c 0
 950 2 826 -136 758 -197 c 1
 717 -197 l 5
50 303 m 0
 50 603 173 742 241 803 c 1
 283 803 l 1
 254 772 231 750 202 701 c 0
 131 582 108 440 108 303 c 0
 108 -62 271 -178 283 -197 c 1
 241 -197 l 1
 177 -139 50 -1 50 303 c 0
529.400390625 156.700195312 m 1
 537.099609375 199.400390625 l 1
 560.200195312 167.900390625 587.5 150.400390625 611.299804688 140.599609375 c 0
 637.900390625 129.400390625 661 128 671.5 128 c 0
 698.099609375 128 719.099609375 139.200195312 734.5 157.400390625 c 0
 749.200195312 174.900390625 757.599609375 199.400390625 757.599609375 227.400390625 c 0xe8
 757.599609375 234.400390625 757.599609375 241.400390625 756.200195312 248.400390625 c 0
 752.700195312 272.200195312 741.5 293.200195312 724.700195312 307.200195312 c 0
 710.700195312 319.099609375 691.799804688 326.099609375 668 326.099609375 c 2
 616.900390625 326.099609375 l 1
 616.900390625 369.5 l 1
 657.5 372.299804688 662.400390625 373 667.299804688 373.700195312 c 0
 713.5 382.099609375 743.599609375 424.799804688 743.599609375 467.5 c 0
 743.599609375 486.400390625 736.599609375 503.200195312 724.700195312 514.400390625 c 0
 712.099609375 526.299804688 694.599609375 532.599609375 672.900390625 532.599609375 c 0
 653.299804688 532.599609375 633.700195312 527 616.900390625 517.900390625 c 0
 600.799804688 508.799804688 586.099609375 496.200195312 575.599609375 480.099609375 c 0
 571.400390625 473.799804688 567.900390625 466.799804688 564.400390625 459.799804688 c 1
 539.200195312 498.299804688 l 1
 557.400390625 526.299804688 578.400390625 544.5 598.700195312 555.700195312 c 0
 628.799804688 572.5 658.200195312 574.599609375 674.299804688 574.599609375 c 0
 705.099609375 574.599609375 735.200195312 564.799804688 758.299804688 548 c 0
 784.200195312 529.099609375 801 501.099609375 801 467.5 c 0xf0
 801 447.900390625 796.099609375 418.5 773.700195312 389.799804688 c 0
 761.799804688 375.099609375 745.700195312 360.400390625 723.299804688 347.799804688 c 1
 750.599609375 338 772.299804688 324 787.700195312 307.200195312 c 0
 810.099609375 283.400390625 820.599609375 254.700195312 820.599609375 226 c 0
 820.599609375 188.900390625 803.799804688 149.700195312 772.299804688 121.700195312 c 4
 747.099609375 99.2998046875 713.5 84.599609375 672.200195312 84.599609375 c 0
 659.599609375 84.599609375 630.200195312 86 597.299804688 101.400390625 c 0
 574.900390625 111.900390625 551.099609375 129.400390625 529.400390625 156.700195312 c 1
179.400390625 317 m 2
 179.400390625 330.299804688 l 2
 179.400390625 398.900390625 184.299804688 530.5 280.900390625 566.200195312 c 0
 293.5 571.099609375 307.5 574.599609375 325 574.599609375 c 0
 361.400390625 574.599609375 396.400390625 558.5 420.200195312 531.200195312 c 0
 462.200195312 483.599609375 469.900390625 403.099609375 471.299804688 352 c 0
 471.299804688 342.900390625 471.299804688 334.5 471.299804688 327.5 c 0
 471.299804688 185.400390625 435.599609375 116.799804688 369.099609375 92.2998046875 c 0
 357.200195312 87.400390625 343.200195312 84.599609375 325 84.599609375 c 0
 266.900390625 84.599609375 180.099609375 118.200195312 179.400390625 317 c 2
234 315.599609375 m 2
 234 200.099609375 262 153.900390625 291.400390625 136.400390625 c 4
 303.299804688 129.400390625 315.200195312 127.299804688 325.700195312 127.299804688 c 0
 339.700195312 127.299804688 357.200195312 131.5 372.599609375 146.200195312 c 0
 396.400390625 169.299804688 416.700195312 217.599609375 416.700195312 316.299804688 c 2
 416.700195312 359 l 2
 416.700195312 427.599609375 405.5 469.599609375 389.400390625 494.799804688 c 0
 370.5 524.900390625 345.299804688 531.200195312 325 531.200195312 c 0
 288.599609375 531.200195312 234 508.099609375 234 359 c 2
 234 315.599609375 l 2
EndSplineSet
EndChar
StartChar: uF26A1
Encoding: 992929 992929 1045
Width: 1000
Flags: MW
LayerCount: 2
Fore
SplineSet
717 -197 m 5
 746 -166 768 -144 797 -96 c 4
 869 23 892 166 892 303 c 4
 892 668 729 784 717 803 c 5
 758 803 l 1
 826 742 950 603 950 304 c 0
 950 2 826 -136 758 -197 c 1
 717 -197 l 5
50 303 m 0
 50 603 173 742 241 803 c 1
 283 803 l 1
 254 772 231 750 202 701 c 0
 131 582 108 440 108 303 c 0
 108 -62 271 -178 283 -197 c 1
 241 -197 l 1
 177 -139 50 -1 50 303 c 0
530.099609375 153.200195312 m 1
 553.900390625 192.400390625 l 1
 556.700195312 187.5 560.200195312 183.299804688 563 179.099609375 c 0
 575.599609375 162.299804688 590.299804688 150.400390625 604.299804688 142.700195312 c 0
 627.400390625 130.099609375 650.5 128 663.099609375 128 c 0
 684.099609375 128 711.400390625 136.400390625 731 160.900390625 c 0
 745 178.400390625 754.799804688 205 754.799804688 243.5 c 0
 754.799804688 251.200195312 754.799804688 258.900390625 754.099609375 265.900390625 c 0
 751.299804688 298.799804688 740.799804688 320.5 728.900390625 334.5 c 0
 714.900390625 350.599609375 697.400390625 356.200195312 683.400390625 356.200195312 c 0
 628.099609375 356.200195312 606.400390625 300.200195312 606.400390625 300.200195312 c 1
 558.799804688 300.200195312 l 1
 558.799804688 558.5 l 1
 794.700195312 558.5 l 1
 794.700195312 513.700195312 l 1
 609.900390625 513.700195312 l 1
 609.900390625 370.200195312 l 1
 633 387.700195312 651.900390625 398.900390625 684.799804688 398.900390625 c 0
 719.099609375 398.900390625 750.599609375 383.5 775.099609375 356.900390625 c 4
 801 328.900390625 817.799804688 289 817.799804688 242.799804688 c 0
 817.799804688 198 800.299804688 157.400390625 770.900390625 128.700195312 c 0
 743.599609375 101.400390625 705.799804688 84.599609375 663.799804688 84.599609375 c 0
 634.400390625 84.599609375 606.400390625 92.2998046875 581.900390625 106.299804688 c 0
 561.599609375 118.200195312 543.400390625 134.299804688 530.099609375 153.200195312 c 1
182.200195312 317 m 2
 182.200195312 330.299804688 l 2
 182.200195312 398.900390625 187.099609375 530.5 283.700195312 566.200195312 c 0
 296.299804688 571.099609375 310.299804688 574.599609375 327.799804688 574.599609375 c 0
 364.200195312 574.599609375 399.200195312 558.5 423 531.200195312 c 0
 465 483.599609375 472.700195312 403.099609375 474.099609375 352 c 0
 474.099609375 342.900390625 474.099609375 334.5 474.099609375 327.5 c 0
 474.099609375 185.400390625 438.400390625 116.799804688 371.900390625 92.2998046875 c 0
 360 87.400390625 346 84.599609375 327.799804688 84.599609375 c 0
 269.700195312 84.599609375 182.900390625 118.200195312 182.200195312 317 c 2
236.799804688 315.599609375 m 2
 236.799804688 200.099609375 264.799804688 153.900390625 294.200195312 136.400390625 c 4
 306.099609375 129.400390625 318 127.299804688 328.5 127.299804688 c 0
 342.5 127.299804688 360 131.5 375.400390625 146.200195312 c 0
 399.200195312 169.299804688 419.5 217.599609375 419.5 316.299804688 c 2
 419.5 359 l 2
 419.5 427.599609375 408.299804688 469.599609375 392.200195312 494.799804688 c 0
 373.299804688 524.900390625 348.099609375 531.200195312 327.799804688 531.200195312 c 0
 291.400390625 531.200195312 236.799804688 508.099609375 236.799804688 359 c 2
 236.799804688 315.599609375 l 2
EndSplineSet
EndChar
StartChar: uF26A3
Encoding: 992931 992931 1047
Width: 1000
Flags: MW
LayerCount: 2
Fore
SplineSet
717 -197 m 5
 746 -166 768 -144 797 -96 c 4
 869 23 892 166 892 303 c 4
 892 668 729 784 717 803 c 5
 758 803 l 1
 826 742 950 603 950 304 c 0
 950 2 826 -136 758 -197 c 1
 717 -197 l 5
50 303 m 0
 50 603 173 742 241 803 c 1
 283 803 l 1
 254 772 231 750 202 701 c 0
 131 582 108 440 108 303 c 0
 108 -62 271 -178 283 -197 c 1
 241 -197 l 1
 177 -139 50 -1 50 303 c 0
529.400390625 509.5 m 1
 529.400390625 559.200195312 l 1
 820.599609375 558.5 l 1
 820.599609375 513 l 1
 721.900390625 399.599609375 665.900390625 245.599609375 665.900390625 92.2998046875 c 1
 606.400390625 92.2998046875 l 1
 606.400390625 231.599609375 654 382.799804688 773 509.5 c 1
 529.400390625 509.5 l 1
179.400390625 317 m 2
 179.400390625 330.299804688 l 2
 179.400390625 398.900390625 184.299804688 530.5 280.900390625 566.200195312 c 0
 293.5 571.099609375 307.5 574.599609375 325 574.599609375 c 0
 361.400390625 574.599609375 396.400390625 558.5 420.200195312 531.200195312 c 0
 462.200195312 483.599609375 469.900390625 403.099609375 471.299804688 352 c 0
 471.299804688 342.900390625 471.299804688 334.5 471.299804688 327.5 c 0
 471.299804688 185.400390625 435.599609375 116.799804688 369.099609375 92.2998046875 c 0
 357.200195312 87.400390625 343.200195312 84.599609375 325 84.599609375 c 0
 266.900390625 84.599609375 180.099609375 118.200195312 179.400390625 317 c 2
234 315.599609375 m 2
 234 200.099609375 262 153.900390625 291.400390625 136.400390625 c 4
 303.299804688 129.400390625 315.200195312 127.299804688 325.700195312 127.299804688 c 0
 339.700195312 127.299804688 357.200195312 131.5 372.599609375 146.200195312 c 0
 396.400390625 169.299804688 416.700195312 217.599609375 416.700195312 316.299804688 c 2
 416.700195312 359 l 2
 416.700195312 427.599609375 405.5 469.599609375 389.400390625 494.799804688 c 0
 370.5 524.900390625 345.299804688 531.200195312 325 531.200195312 c 0
 288.599609375 531.200195312 234 508.099609375 234 359 c 2
 234 315.599609375 l 2
EndSplineSet
EndChar
StartChar: uF26A5
Encoding: 992933 992933 1049
Width: 1000
Flags: MW
LayerCount: 2
Fore
SplineSet
717 -197 m 5
 746 -166 768 -144 797 -96 c 4
 869 23 892 166 892 303 c 4
 892 668 729 784 717 803 c 5
 758 803 l 1
 826 742 950 603 950 304 c 0
 950 2 826 -136 758 -197 c 1
 717 -197 l 5
50 303 m 0
 50 603 173 742 241 803 c 1
 283 803 l 1
 254 772 231 750 202 701 c 0
 131 582 108 440 108 303 c 0
 108 -62 271 -178 283 -197 c 1
 241 -197 l 1
 177 -139 50 -1 50 303 c 0
530.099609375 404.5 m 0
 530.099609375 455.599609375 543.400390625 494.099609375 580.5 532.599609375 c 0
 609.900390625 562 638.599609375 574.599609375 677.099609375 574.599609375 c 0
 704.400390625 574.599609375 738 565.5 766 534.700195312 c 0
 796.799804688 500.400390625 820.599609375 439.5 820.599609375 333.099609375 c 0
 820.599609375 254 796.099609375 186.799804688 759 142.700195312 c 0
 728.200195312 105.599609375 687.599609375 84.599609375 644.200195312 84.599609375 c 0
 600.799804688 84.599609375 576.299804688 97.900390625 551.099609375 116.799804688 c 1
 572.799804688 154.599609375 l 1
 588.900390625 143.400390625 606.400390625 128 645.599609375 128 c 0
 679.200195312 128 709.299804688 146.900390625 731 183.299804688 c 0
 744.299804688 206.400390625 754.799804688 235.799804688 759.700195312 271.5 c 0
 760.400390625 278.5 761.099609375 285.5 761.799804688 293.200195312 c 1
 731 256.799804688 691.099609375 235.099609375 643.5 235.099609375 c 0
 607.099609375 235.099609375 586.799804688 251.200195312 567.900390625 277.799804688 c 0
 538.5 318.400390625 530.099609375 356.200195312 530.099609375 404.5 c 0
587.5 404.5 m 0
 587.5 366.700195312 589.599609375 340.099609375 609.900390625 310.700195312 c 0
 623.200195312 291.799804688 641.400390625 278.5 670.799804688 278.5 c 0
 697.400390625 278.5 720.5 291.099609375 735.900390625 310.700195312 c 4
 751.299804688 330.299804688 760.400390625 357.599609375 760.400390625 387 c 0
 760.400390625 433.200195312 747.099609375 532.599609375 677.799804688 532.599609375 c 0
 658.200195312 532.599609375 642.099609375 526.299804688 629.5 516.5 c 0
 607.799804688 499.700195312 595.900390625 473.799804688 591.700195312 454.900390625 c 0
 587.5 438.099609375 587.5 422 587.5 404.5 c 0
179.400390625 317 m 2
 179.400390625 330.299804688 l 2
 179.400390625 398.900390625 184.299804688 530.5 280.900390625 566.200195312 c 0
 293.5 571.099609375 307.5 574.599609375 325 574.599609375 c 0
 361.400390625 574.599609375 396.400390625 558.5 420.200195312 531.200195312 c 0
 462.200195312 483.599609375 469.900390625 403.099609375 471.299804688 352 c 0
 471.299804688 342.900390625 471.299804688 334.5 471.299804688 327.5 c 0
 471.299804688 185.400390625 435.599609375 116.799804688 369.099609375 92.2998046875 c 0
 357.200195312 87.400390625 343.200195312 84.599609375 325 84.599609375 c 0
 266.900390625 84.599609375 180.099609375 118.200195312 179.400390625 317 c 2
234 315.599609375 m 2
 234 200.099609375 262 153.900390625 291.400390625 136.400390625 c 4
 303.299804688 129.400390625 315.200195312 127.299804688 325.700195312 127.299804688 c 0
 339.700195312 127.299804688 357.200195312 131.5 372.599609375 146.200195312 c 0
 396.400390625 169.299804688 416.700195312 217.599609375 416.700195312 316.299804688 c 2
 416.700195312 359 l 2
 416.700195312 427.599609375 405.5 469.599609375 389.400390625 494.799804688 c 0
 370.5 524.900390625 345.299804688 531.200195312 325 531.200195312 c 0
 288.599609375 531.200195312 234 508.099609375 234 359 c 2
 234 315.599609375 l 2
EndSplineSet
EndChar
StartChar: uF26A7
Encoding: 992935 992935 1051
Width: 1000
Flags: MW
LayerCount: 2
Fore
SplineSet
717 -197 m 5
 746 -166 768 -144 797 -96 c 4
 869 23 892 166 892 303 c 4
 892 668 729 784 717 803 c 5
 758 803 l 1
 826 742 950 603 950 304 c 0
 950 2 826 -136 758 -197 c 1
 717 -197 l 5
50 303 m 0
 50 603 173 742 241 803 c 1
 283 803 l 1
 254 772 231 750 202 701 c 0
 131 582 108 440 108 303 c 0
 108 -62 271 -178 283 -197 c 1
 241 -197 l 1
 177 -139 50 -1 50 303 c 0
532.200195312 459.799804688 m 1
 549.700195312 518.599609375 586.799804688 574.599609375 668 574.599609375 c 0
 761.099609375 574.599609375 817.799804688 503.900390625 817.799804688 424.799804688 c 0
 817.799804688 356.900390625 773.700195312 319.099609375 700.900390625 254.700195312 c 0
 677.799804688 234.400390625 644.200195312 202.200195312 588.200195312 149 c 1
 817.799804688 149.700195312 l 1
 817.799804688 100 l 1
 537.799804688 100 l 1
 537.799804688 145.5 l 1
 628.799804688 235.799804688 l 2
 696 298.099609375 759.700195312 347.799804688 759.700195312 422.700195312 c 0
 759.700195312 481.5 719.099609375 529.099609375 658.900390625 529.099609375 c 0
 573.5 529.099609375 565.099609375 422.700195312 562.299804688 421.299804688 c 1
 532.200195312 459.799804688 l 1
182.200195312 459.799804688 m 1
 199.700195312 518.599609375 236.799804688 574.599609375 318 574.599609375 c 0
 411.099609375 574.599609375 467.799804688 503.900390625 467.799804688 424.799804688 c 0
 467.799804688 356.900390625 423.700195312 319.099609375 350.900390625 254.700195312 c 0
 327.799804688 234.400390625 294.200195312 202.200195312 238.200195312 149 c 1
 467.799804688 149.700195312 l 1
 467.799804688 100 l 1
 187.799804688 100 l 1
 187.799804688 145.5 l 1
 278.799804688 235.799804688 l 2
 346 298.099609375 409.700195312 347.799804688 409.700195312 422.700195312 c 0
 409.700195312 481.5 369.099609375 529.099609375 308.900390625 529.099609375 c 0
 223.5 529.099609375 215.099609375 422.700195312 212.299804688 421.299804688 c 1
 182.200195312 459.799804688 l 1
EndSplineSet
EndChar
StartChar: uF26A8
Encoding: 992936 992936 1052
Width: 1000
Flags: MW
LayerCount: 2
Fore
SplineSet
717 -197 m 5
 746 -166 768 -144 797 -96 c 4
 869 23 892 166 892 303 c 4
 892 668 729 784 717 803 c 5
 758 803 l 1
 826 742 950 603 950 304 c 0
 950 2 826 -136 758 -197 c 1
 717 -197 l 5
50 303 m 0
 50 603 173 742 241 803 c 1
 283 803 l 1
 254 772 231 750 202 701 c 0
 131 582 108 440 108 303 c 0
 108 -62 271 -178 283 -197 c 1
 241 -197 l 1
 177 -139 50 -1 50 303 c 0
529.400390625 156.700195312 m 1
 537.099609375 199.400390625 l 1
 560.200195312 167.900390625 587.5 150.400390625 611.299804688 140.599609375 c 0
 637.900390625 129.400390625 661 128 671.5 128 c 0
 698.099609375 128 719.099609375 139.200195312 734.5 157.400390625 c 0
 749.200195312 174.900390625 757.599609375 199.400390625 757.599609375 227.400390625 c 0xe8
 757.599609375 234.400390625 757.599609375 241.400390625 756.200195312 248.400390625 c 0
 752.700195312 272.200195312 741.5 293.200195312 724.700195312 307.200195312 c 0
 710.700195312 319.099609375 691.799804688 326.099609375 668 326.099609375 c 2
 616.900390625 326.099609375 l 1
 616.900390625 369.5 l 1
 657.5 372.299804688 662.400390625 373 667.299804688 373.700195312 c 0
 713.5 382.099609375 743.599609375 424.799804688 743.599609375 467.5 c 0
 743.599609375 486.400390625 736.599609375 503.200195312 724.700195312 514.400390625 c 0
 712.099609375 526.299804688 694.599609375 532.599609375 672.900390625 532.599609375 c 0
 653.299804688 532.599609375 633.700195312 527 616.900390625 517.900390625 c 0
 600.799804688 508.799804688 586.099609375 496.200195312 575.599609375 480.099609375 c 0
 571.400390625 473.799804688 567.900390625 466.799804688 564.400390625 459.799804688 c 1
 539.200195312 498.299804688 l 1
 557.400390625 526.299804688 578.400390625 544.5 598.700195312 555.700195312 c 0
 628.799804688 572.5 658.200195312 574.599609375 674.299804688 574.599609375 c 0
 705.099609375 574.599609375 735.200195312 564.799804688 758.299804688 548 c 0
 784.200195312 529.099609375 801 501.099609375 801 467.5 c 0xf0
 801 447.900390625 796.099609375 418.5 773.700195312 389.799804688 c 0
 761.799804688 375.099609375 745.700195312 360.400390625 723.299804688 347.799804688 c 1
 750.599609375 338 772.299804688 324 787.700195312 307.200195312 c 0
 810.099609375 283.400390625 820.599609375 254.700195312 820.599609375 226 c 0
 820.599609375 188.900390625 803.799804688 149.700195312 772.299804688 121.700195312 c 4
 747.099609375 99.2998046875 713.5 84.599609375 672.200195312 84.599609375 c 0
 659.599609375 84.599609375 630.200195312 86 597.299804688 101.400390625 c 0
 574.900390625 111.900390625 551.099609375 129.400390625 529.400390625 156.700195312 c 1
179.400390625 459.799804688 m 1
 196.900390625 518.599609375 234 574.599609375 315.200195312 574.599609375 c 0
 408.299804688 574.599609375 465 503.900390625 465 424.799804688 c 0
 465 356.900390625 420.900390625 319.099609375 348.099609375 254.700195312 c 0
 325 234.400390625 291.400390625 202.200195312 235.400390625 149 c 1
 465 149.700195312 l 1
 465 100 l 1
 185 100 l 1
 185 145.5 l 1
 276 235.799804688 l 2
 343.200195312 298.099609375 406.900390625 347.799804688 406.900390625 422.700195312 c 0
 406.900390625 481.5 366.299804688 529.099609375 306.099609375 529.099609375 c 0
 220.700195312 529.099609375 212.299804688 422.700195312 209.5 421.299804688 c 1
 179.400390625 459.799804688 l 1
EndSplineSet
EndChar
StartChar: uF26B1
Encoding: 992945 992945 1061
Width: 1000
Flags: MW
LayerCount: 2
Fore
SplineSet
717 -197 m 5
 746 -166 768 -144 797 -96 c 4
 869 23 892 166 892 303 c 4
 892 668 729 784 717 803 c 5
 758 803 l 1
 826 742 950 603 950 304 c 0
 950 2 826 -136 758 -197 c 1
 717 -197 l 5
50 303 m 0
 50 603 173 742 241 803 c 1
 283 803 l 1
 254 772 231 750 202 701 c 0
 131 582 108 440 108 303 c 0
 108 -62 271 -178 283 -197 c 1
 241 -197 l 1
 177 -139 50 -1 50 303 c 0
532.200195312 459.799804688 m 1
 549.700195312 518.599609375 586.799804688 574.599609375 668 574.599609375 c 0
 761.099609375 574.599609375 817.799804688 503.900390625 817.799804688 424.799804688 c 0
 817.799804688 356.900390625 773.700195312 319.099609375 700.900390625 254.700195312 c 0
 677.799804688 234.400390625 644.200195312 202.200195312 588.200195312 149 c 1
 817.799804688 149.700195312 l 1
 817.799804688 100 l 1
 537.799804688 100 l 1
 537.799804688 145.5 l 1
 628.799804688 235.799804688 l 2
 696 298.099609375 759.700195312 347.799804688 759.700195312 422.700195312 c 0
 759.700195312 481.5 719.099609375 529.099609375 658.900390625 529.099609375 c 0
 573.5 529.099609375 565.099609375 422.700195312 562.299804688 421.299804688 c 1
 532.200195312 459.799804688 l 1
182.200195312 156.700195312 m 1
 189.900390625 199.400390625 l 1
 213 167.900390625 240.299804688 150.400390625 264.099609375 140.599609375 c 0
 290.700195312 129.400390625 313.799804688 128 324.299804688 128 c 0
 350.900390625 128 371.900390625 139.200195312 387.299804688 157.400390625 c 0
 402 174.900390625 410.400390625 199.400390625 410.400390625 227.400390625 c 0xe8
 410.400390625 234.400390625 410.400390625 241.400390625 409 248.400390625 c 0
 405.5 272.200195312 394.299804688 293.200195312 377.5 307.200195312 c 0
 363.5 319.099609375 344.599609375 326.099609375 320.799804688 326.099609375 c 2
 269.700195312 326.099609375 l 1
 269.700195312 369.5 l 1
 310.299804688 372.299804688 315.200195312 373 320.099609375 373.700195312 c 0
 366.299804688 382.099609375 396.400390625 424.799804688 396.400390625 467.5 c 0
 396.400390625 486.400390625 389.400390625 503.200195312 377.5 514.400390625 c 0
 364.900390625 526.299804688 347.400390625 532.599609375 325.700195312 532.599609375 c 0
 306.099609375 532.599609375 286.5 527 269.700195312 517.900390625 c 0
 253.599609375 508.799804688 238.900390625 496.200195312 228.400390625 480.099609375 c 0
 224.200195312 473.799804688 220.700195312 466.799804688 217.200195312 459.799804688 c 1
 192 498.299804688 l 1
 210.200195312 526.299804688 231.200195312 544.5 251.5 555.700195312 c 0
 281.599609375 572.5 311 574.599609375 327.099609375 574.599609375 c 0
 357.900390625 574.599609375 388 564.799804688 411.099609375 548 c 0
 437 529.099609375 453.799804688 501.099609375 453.799804688 467.5 c 0xf0
 453.799804688 447.900390625 448.900390625 418.5 426.5 389.799804688 c 0
 414.599609375 375.099609375 398.5 360.400390625 376.099609375 347.799804688 c 1
 403.400390625 338 425.099609375 324 440.5 307.200195312 c 0
 462.900390625 283.400390625 473.400390625 254.700195312 473.400390625 226 c 0
 473.400390625 188.900390625 456.599609375 149.700195312 425.099609375 121.700195312 c 4
 399.900390625 99.2998046875 366.299804688 84.599609375 325 84.599609375 c 0
 312.400390625 84.599609375 283 86 250.099609375 101.400390625 c 0
 227.700195312 111.900390625 203.900390625 129.400390625 182.200195312 156.700195312 c 1
EndSplineSet
EndChar
StartChar: uF26B3
Encoding: 992947 992947 1063
Width: 1000
Flags: MW
LayerCount: 2
Fore
SplineSet
717 -197 m 5
 746 -166 768 -144 797 -96 c 4
 869 23 892 166 892 303 c 4
 892 668 729 784 717 803 c 5
 758 803 l 1
 826 742 950 603 950 304 c 0
 950 2 826 -136 758 -197 c 1
 717 -197 l 5
50 303 m 0
 50 603 173 742 241 803 c 1
 283 803 l 1
 254 772 231 750 202 701 c 0
 131 582 108 440 108 303 c 0
 108 -62 271 -178 283 -197 c 1
 241 -197 l 1
 177 -139 50 -1 50 303 c 0
514.700195312 219.700195312 m 1
 514.700195312 253.299804688 l 0
 514.700195312 262.400390625 515.400390625 263.799804688 522.400390625 275 c 2
 691.799804688 558.5 l 1
 756.200195312 558.5 l 1
 756.200195312 262.400390625 l 1xe8
 825.5 262.400390625 l 1
 825.5 219.700195312 l 1
 756.200195312 219.700195312 l 1
 756.200195312 100 l 1
 700.200195312 100 l 1
 700.200195312 219.700195312 l 1xf0
 514.700195312 219.700195312 l 1
569.299804688 262.400390625 m 1
 704.400390625 262.400390625 l 1xe8
 704.400390625 532.599609375 l 1
 695.299804688 476.599609375 658.900390625 414.299804688 569.299804688 262.400390625 c 1
174.5 156.700195312 m 1
 182.200195312 199.400390625 l 1
 205.299804688 167.900390625 232.599609375 150.400390625 256.400390625 140.599609375 c 0
 283 129.400390625 306.099609375 128 316.599609375 128 c 0
 343.200195312 128 364.200195312 139.200195312 379.599609375 157.400390625 c 0
 394.299804688 174.900390625 402.700195312 199.400390625 402.700195312 227.400390625 c 0xe8
 402.700195312 234.400390625 402.700195312 241.400390625 401.299804688 248.400390625 c 0
 397.799804688 272.200195312 386.599609375 293.200195312 369.799804688 307.200195312 c 0
 355.799804688 319.099609375 336.900390625 326.099609375 313.099609375 326.099609375 c 2
 262 326.099609375 l 1
 262 369.5 l 1
 302.599609375 372.299804688 307.5 373 312.400390625 373.700195312 c 0
 358.599609375 382.099609375 388.700195312 424.799804688 388.700195312 467.5 c 0
 388.700195312 486.400390625 381.700195312 503.200195312 369.799804688 514.400390625 c 0
 357.200195312 526.299804688 339.700195312 532.599609375 318 532.599609375 c 0
 298.400390625 532.599609375 278.799804688 527 262 517.900390625 c 0
 245.900390625 508.799804688 231.200195312 496.200195312 220.700195312 480.099609375 c 0
 216.5 473.799804688 213 466.799804688 209.5 459.799804688 c 1
 184.299804688 498.299804688 l 1
 202.5 526.299804688 223.5 544.5 243.799804688 555.700195312 c 0
 273.900390625 572.5 303.299804688 574.599609375 319.400390625 574.599609375 c 0
 350.200195312 574.599609375 380.299804688 564.799804688 403.400390625 548 c 0
 429.299804688 529.099609375 446.099609375 501.099609375 446.099609375 467.5 c 0xf0
 446.099609375 447.900390625 441.200195312 418.5 418.799804688 389.799804688 c 0
 406.900390625 375.099609375 390.799804688 360.400390625 368.400390625 347.799804688 c 1
 395.700195312 338 417.400390625 324 432.799804688 307.200195312 c 0
 455.200195312 283.400390625 465.700195312 254.700195312 465.700195312 226 c 0
 465.700195312 188.900390625 448.900390625 149.700195312 417.400390625 121.700195312 c 4
 392.200195312 99.2998046875 358.599609375 84.599609375 317.299804688 84.599609375 c 0
 304.700195312 84.599609375 275.299804688 86 242.400390625 101.400390625 c 0
 220 111.900390625 196.200195312 129.400390625 174.5 156.700195312 c 1
EndSplineSet
EndChar
StartChar: uF26B4
Encoding: 992948 992948 1064
Width: 1000
Flags: MW
LayerCount: 2
Fore
SplineSet
717 -197 m 5
 746 -166 768 -144 797 -96 c 4
 869 23 892 166 892 303 c 4
 892 668 729 784 717 803 c 5
 758 803 l 1
 826 742 950 603 950 304 c 0
 950 2 826 -136 758 -197 c 1
 717 -197 l 5
50 303 m 0
 50 603 173 742 241 803 c 1
 283 803 l 1
 254 772 231 750 202 701 c 0
 131 582 108 440 108 303 c 0
 108 -62 271 -178 283 -197 c 1
 241 -197 l 1
 177 -139 50 -1 50 303 c 0
530.099609375 153.200195312 m 1
 553.900390625 192.400390625 l 1
 556.700195312 187.5 560.200195312 183.299804688 563 179.099609375 c 0
 575.599609375 162.299804688 590.299804688 150.400390625 604.299804688 142.700195312 c 0
 627.400390625 130.099609375 650.5 128 663.099609375 128 c 0
 684.099609375 128 711.400390625 136.400390625 731 160.900390625 c 0
 745 178.400390625 754.799804688 205 754.799804688 243.5 c 0
 754.799804688 251.200195312 754.799804688 258.900390625 754.099609375 265.900390625 c 0
 751.299804688 298.799804688 740.799804688 320.5 728.900390625 334.5 c 0
 714.900390625 350.599609375 697.400390625 356.200195312 683.400390625 356.200195312 c 0
 628.099609375 356.200195312 606.400390625 300.200195312 606.400390625 300.200195312 c 1
 558.799804688 300.200195312 l 1
 558.799804688 558.5 l 1
 794.700195312 558.5 l 1
 794.700195312 513.700195312 l 1
 609.900390625 513.700195312 l 1
 609.900390625 370.200195312 l 1
 633 387.700195312 651.900390625 398.900390625 684.799804688 398.900390625 c 0
 719.099609375 398.900390625 750.599609375 383.5 775.099609375 356.900390625 c 4
 801 328.900390625 817.799804688 289 817.799804688 242.799804688 c 0
 817.799804688 198 800.299804688 157.400390625 770.900390625 128.700195312 c 0
 743.599609375 101.400390625 705.799804688 84.599609375 663.799804688 84.599609375 c 0
 634.400390625 84.599609375 606.400390625 92.2998046875 581.900390625 106.299804688 c 0
 561.599609375 118.200195312 543.400390625 134.299804688 530.099609375 153.200195312 c 1
182.200195312 156.700195312 m 1
 189.900390625 199.400390625 l 1
 213 167.900390625 240.299804688 150.400390625 264.099609375 140.599609375 c 0
 290.700195312 129.400390625 313.799804688 128 324.299804688 128 c 0
 350.900390625 128 371.900390625 139.200195312 387.299804688 157.400390625 c 0
 402 174.900390625 410.400390625 199.400390625 410.400390625 227.400390625 c 0xe8
 410.400390625 234.400390625 410.400390625 241.400390625 409 248.400390625 c 0
 405.5 272.200195312 394.299804688 293.200195312 377.5 307.200195312 c 0
 363.5 319.099609375 344.599609375 326.099609375 320.799804688 326.099609375 c 2
 269.700195312 326.099609375 l 1
 269.700195312 369.5 l 1
 310.299804688 372.299804688 315.200195312 373 320.099609375 373.700195312 c 0
 366.299804688 382.099609375 396.400390625 424.799804688 396.400390625 467.5 c 0
 396.400390625 486.400390625 389.400390625 503.200195312 377.5 514.400390625 c 0
 364.900390625 526.299804688 347.400390625 532.599609375 325.700195312 532.599609375 c 0
 306.099609375 532.599609375 286.5 527 269.700195312 517.900390625 c 0
 253.599609375 508.799804688 238.900390625 496.200195312 228.400390625 480.099609375 c 0
 224.200195312 473.799804688 220.700195312 466.799804688 217.200195312 459.799804688 c 1
 192 498.299804688 l 1
 210.200195312 526.299804688 231.200195312 544.5 251.5 555.700195312 c 0
 281.599609375 572.5 311 574.599609375 327.099609375 574.599609375 c 0
 357.900390625 574.599609375 388 564.799804688 411.099609375 548 c 0
 437 529.099609375 453.799804688 501.099609375 453.799804688 467.5 c 0xf0
 453.799804688 447.900390625 448.900390625 418.5 426.5 389.799804688 c 0
 414.599609375 375.099609375 398.5 360.400390625 376.099609375 347.799804688 c 1
 403.400390625 338 425.099609375 324 440.5 307.200195312 c 0
 462.900390625 283.400390625 473.400390625 254.700195312 473.400390625 226 c 0
 473.400390625 188.900390625 456.599609375 149.700195312 425.099609375 121.700195312 c 4
 399.900390625 99.2998046875 366.299804688 84.599609375 325 84.599609375 c 0
 312.400390625 84.599609375 283 86 250.099609375 101.400390625 c 0
 227.700195312 111.900390625 203.900390625 129.400390625 182.200195312 156.700195312 c 1
EndSplineSet
EndChar
StartChar: uF26BB
Encoding: 992955 992955 1071
Width: 1000
Flags: MW
LayerCount: 2
Fore
SplineSet
717 -197 m 5
 746 -166 768 -144 797 -96 c 4
 869 23 892 166 892 303 c 4
 892 668 729 784 717 803 c 5
 758 803 l 1
 826 742 950 603 950 304 c 0
 950 2 826 -136 758 -197 c 1
 717 -197 l 5
50 303 m 0
 50 603 173 742 241 803 c 1
 283 803 l 1
 254 772 231 750 202 701 c 0
 131 582 108 440 108 303 c 0
 108 -62 271 -178 283 -197 c 1
 241 -197 l 1
 177 -139 50 -1 50 303 c 0
537.099609375 459.799804688 m 1
 554.599609375 518.599609375 591.700195312 574.599609375 672.900390625 574.599609375 c 0
 766 574.599609375 822.700195312 503.900390625 822.700195312 424.799804688 c 0
 822.700195312 356.900390625 778.599609375 319.099609375 705.799804688 254.700195312 c 0
 682.700195312 234.400390625 649.099609375 202.200195312 593.099609375 149 c 1
 822.700195312 149.700195312 l 1
 822.700195312 100 l 1
 542.700195312 100 l 1
 542.700195312 145.5 l 1
 633.700195312 235.799804688 l 2
 700.900390625 298.099609375 764.599609375 347.799804688 764.599609375 422.700195312 c 0
 764.599609375 481.5 724 529.099609375 663.799804688 529.099609375 c 0
 578.400390625 529.099609375 570 422.700195312 567.200195312 421.299804688 c 1
 537.099609375 459.799804688 l 1
177.299804688 219.700195312 m 1
 177.299804688 253.299804688 l 0
 177.299804688 262.400390625 178 263.799804688 185 275 c 2
 354.400390625 558.5 l 1
 418.799804688 558.5 l 1
 418.799804688 262.400390625 l 1xe8
 488.099609375 262.400390625 l 1
 488.099609375 219.700195312 l 1
 418.799804688 219.700195312 l 1
 418.799804688 100 l 1
 362.799804688 100 l 1
 362.799804688 219.700195312 l 1xf0
 177.299804688 219.700195312 l 1
231.900390625 262.400390625 m 1
 367 262.400390625 l 1xe8
 367 532.599609375 l 1
 357.900390625 476.599609375 321.5 414.299804688 231.900390625 262.400390625 c 1
EndSplineSet
EndChar
StartChar: uF26BC
Encoding: 992956 992956 1072
Width: 1000
Flags: MW
LayerCount: 2
Fore
SplineSet
717 -197 m 5
 746 -166 768 -144 797 -96 c 4
 869 23 892 166 892 303 c 4
 892 668 729 784 717 803 c 5
 758 803 l 1
 826 742 950 603 950 304 c 0
 950 2 826 -136 758 -197 c 1
 717 -197 l 5
50 303 m 0
 50 603 173 742 241 803 c 1
 283 803 l 1
 254 772 231 750 202 701 c 0
 131 582 108 440 108 303 c 0
 108 -62 271 -178 283 -197 c 1
 241 -197 l 1
 177 -139 50 -1 50 303 c 0
534.299804688 156.700195312 m 1
 542 199.400390625 l 1
 565.099609375 167.900390625 592.400390625 150.400390625 616.200195312 140.599609375 c 0
 642.799804688 129.400390625 665.900390625 128 676.400390625 128 c 0
 703 128 724 139.200195312 739.400390625 157.400390625 c 0
 754.099609375 174.900390625 762.5 199.400390625 762.5 227.400390625 c 0xe8
 762.5 234.400390625 762.5 241.400390625 761.099609375 248.400390625 c 0
 757.599609375 272.200195312 746.400390625 293.200195312 729.599609375 307.200195312 c 0
 715.599609375 319.099609375 696.700195312 326.099609375 672.900390625 326.099609375 c 2
 621.799804688 326.099609375 l 1
 621.799804688 369.5 l 1
 662.400390625 372.299804688 667.299804688 373 672.200195312 373.700195312 c 0
 718.400390625 382.099609375 748.5 424.799804688 748.5 467.5 c 0
 748.5 486.400390625 741.5 503.200195312 729.599609375 514.400390625 c 0
 717 526.299804688 699.5 532.599609375 677.799804688 532.599609375 c 0
 658.200195312 532.599609375 638.599609375 527 621.799804688 517.900390625 c 0
 605.700195312 508.799804688 591 496.200195312 580.5 480.099609375 c 0
 576.299804688 473.799804688 572.799804688 466.799804688 569.299804688 459.799804688 c 1
 544.099609375 498.299804688 l 1
 562.299804688 526.299804688 583.299804688 544.5 603.599609375 555.700195312 c 0
 633.700195312 572.5 663.099609375 574.599609375 679.200195312 574.599609375 c 0
 710 574.599609375 740.099609375 564.799804688 763.200195312 548 c 0
 789.099609375 529.099609375 805.900390625 501.099609375 805.900390625 467.5 c 0xf0
 805.900390625 447.900390625 801 418.5 778.599609375 389.799804688 c 0
 766.700195312 375.099609375 750.599609375 360.400390625 728.200195312 347.799804688 c 1
 755.5 338 777.200195312 324 792.599609375 307.200195312 c 0
 815 283.400390625 825.5 254.700195312 825.5 226 c 0
 825.5 188.900390625 808.700195312 149.700195312 777.200195312 121.700195312 c 4
 752 99.2998046875 718.400390625 84.599609375 677.099609375 84.599609375 c 0
 664.5 84.599609375 635.099609375 86 602.200195312 101.400390625 c 0
 579.799804688 111.900390625 556 129.400390625 534.299804688 156.700195312 c 1
174.5 219.700195312 m 1
 174.5 253.299804688 l 0
 174.5 262.400390625 175.200195312 263.799804688 182.200195312 275 c 2
 351.599609375 558.5 l 1
 416 558.5 l 1
 416 262.400390625 l 1xe8
 485.299804688 262.400390625 l 1
 485.299804688 219.700195312 l 1
 416 219.700195312 l 1
 416 100 l 1
 360 100 l 1
 360 219.700195312 l 1xf0
 174.5 219.700195312 l 1
229.099609375 262.400390625 m 1
 364.200195312 262.400390625 l 1xe8
 364.200195312 532.599609375 l 1
 355.099609375 476.599609375 318.700195312 414.299804688 229.099609375 262.400390625 c 1
EndSplineSet
EndChar
StartChar: uF26BF
Encoding: 992959 992959 1075
Width: 1000
Flags: MW
LayerCount: 2
Fore
SplineSet
717 -197 m 5
 746 -166 768 -144 797 -96 c 4
 869 23 892 166 892 303 c 4
 892 668 729 784 717 803 c 5
 758 803 l 1
 826 742 950 603 950 304 c 0
 950 2 826 -136 758 -197 c 1
 717 -197 l 5
50 303 m 0
 50 603 173 742 241 803 c 1
 283 803 l 1
 254 772 231 750 202 701 c 0
 131 582 108 440 108 303 c 0
 108 -62 271 -178 283 -197 c 1
 241 -197 l 1
 177 -139 50 -1 50 303 c 0
535 326.099609375 m 0
 535 396.099609375 554.599609375 459.099609375 588.900390625 503.900390625 c 0
 621.799804688 548 668.700195312 574.599609375 721.900390625 574.599609375 c 0
 756.900390625 574.599609375 778.599609375 566.900390625 796.799804688 560.599609375 c 1
 796.799804688 518.599609375 l 1
 777.900390625 524.900390625 756.900390625 533.299804688 721.900390625 533.299804688 c 0
 683.400390625 533.299804688 654.700195312 513.700195312 633.700195312 485.700195312 c 0
 608.5 452.099609375 595.900390625 405.200195312 593.799804688 366 c 1
 623.200195312 403.099609375 668 423.400390625 712.099609375 423.400390625 c 0
 747.799804688 423.400390625 768.799804688 407.299804688 788.400390625 380.700195312 c 0
 814.299804688 344.299804688 824.099609375 309.299804688 825.5 268.700195312 c 0
 825.5 264.5 825.5 261 825.5 256.799804688 c 0
 825.5 202.200195312 812.200195312 165.099609375 777.200195312 128 c 0
 749.200195312 97.900390625 719.799804688 84.599609375 682 84.599609375 c 0
 648.400390625 84.599609375 605.700195312 97.900390625 574.900390625 145.5 c 0
 551.099609375 181.900390625 535 239.299804688 535 326.099609375 c 0
595.200195312 272.900390625 m 0
 595.200195312 266.599609375 595.200195312 260.299804688 595.900390625 254 c 0
 601.5 202.200195312 616.200195312 128 681.299804688 128 c 0
 734.5 128 757.599609375 174.900390625 764.599609375 205.700195312 c 0
 767.400390625 221.099609375 768.099609375 236.5 768.099609375 252.599609375 c 0
 768.099609375 262.400390625 768.099609375 270.799804688 767.400390625 278.5 c 0
 766 305.799804688 761.099609375 324 748.5 344.299804688 c 0
 727.5 377.200195312 700.900390625 380.700195312 684.799804688 380.700195312 c 0
 637.900390625 380.700195312 605.700195312 343.599609375 597.299804688 296 c 4
 595.900390625 288.299804688 595.200195312 280.599609375 595.200195312 272.900390625 c 0
174.5 219.700195312 m 1
 174.5 253.299804688 l 0
 174.5 262.400390625 175.200195312 263.799804688 182.200195312 275 c 2
 351.599609375 558.5 l 1
 416 558.5 l 1
 416 262.400390625 l 1xe8
 485.299804688 262.400390625 l 1
 485.299804688 219.700195312 l 1
 416 219.700195312 l 1
 416 100 l 1
 360 100 l 1
 360 219.700195312 l 1xf0
 174.5 219.700195312 l 1
229.099609375 262.400390625 m 1
 364.200195312 262.400390625 l 1xe8
 364.200195312 532.599609375 l 1
 355.099609375 476.599609375 318.700195312 414.299804688 229.099609375 262.400390625 c 1
EndSplineSet
EndChar
StartChar: uF26C0
Encoding: 992960 992960 1076
Width: 1000
Flags: MW
LayerCount: 2
Fore
SplineSet
717 -197 m 5
 746 -166 768 -144 797 -96 c 4
 869 23 892 166 892 303 c 4
 892 668 729 784 717 803 c 5
 758 803 l 1
 826 742 950 603 950 304 c 0
 950 2 826 -136 758 -197 c 1
 717 -197 l 5
50 303 m 0
 50 603 173 742 241 803 c 1
 283 803 l 1
 254 772 231 750 202 701 c 0
 131 582 108 440 108 303 c 0
 108 -62 271 -178 283 -197 c 1
 241 -197 l 1
 177 -139 50 -1 50 303 c 0
534.299804688 509.5 m 1
 534.299804688 559.200195312 l 1
 825.5 558.5 l 1
 825.5 513 l 1
 726.799804688 399.599609375 670.799804688 245.599609375 670.799804688 92.2998046875 c 1
 611.299804688 92.2998046875 l 1
 611.299804688 231.599609375 658.900390625 382.799804688 777.900390625 509.5 c 1
 534.299804688 509.5 l 1
174.5 219.700195312 m 1
 174.5 253.299804688 l 0
 174.5 262.400390625 175.200195312 263.799804688 182.200195312 275 c 2
 351.599609375 558.5 l 1
 416 558.5 l 1
 416 262.400390625 l 1xe8
 485.299804688 262.400390625 l 1
 485.299804688 219.700195312 l 1
 416 219.700195312 l 1
 416 100 l 1
 360 100 l 1
 360 219.700195312 l 1xf0
 174.5 219.700195312 l 1
229.099609375 262.400390625 m 1
 364.200195312 262.400390625 l 1xe8
 364.200195312 532.599609375 l 1
 355.099609375 476.599609375 318.700195312 414.299804688 229.099609375 262.400390625 c 1
EndSplineSet
EndChar
StartChar: uF26C3
Encoding: 992963 992963 1079
Width: 1000
Flags: MW
LayerCount: 2
Fore
SplineSet
717 -197 m 5
 746 -166 768 -144 797 -96 c 4
 869 23 892 166 892 303 c 4
 892 668 729 784 717 803 c 5
 758 803 l 1
 826 742 950 603 950 304 c 0
 950 2 826 -136 758 -197 c 1
 717 -197 l 5
50 303 m 0
 50 603 173 742 241 803 c 1
 283 803 l 1
 254 772 231 750 202 701 c 0
 131 582 108 440 108 303 c 0
 108 -62 271 -178 283 -197 c 1
 241 -197 l 1
 177 -139 50 -1 50 303 c 0
530.099609375 317 m 2
 530.099609375 330.299804688 l 2
 530.099609375 398.900390625 535 530.5 631.599609375 566.200195312 c 0
 644.200195312 571.099609375 658.200195312 574.599609375 675.700195312 574.599609375 c 0
 712.099609375 574.599609375 747.099609375 558.5 770.900390625 531.200195312 c 0
 812.900390625 483.599609375 820.599609375 403.099609375 822 352 c 0
 822 342.900390625 822 334.5 822 327.5 c 0
 822 185.400390625 786.299804688 116.799804688 719.799804688 92.2998046875 c 0
 707.900390625 87.400390625 693.900390625 84.599609375 675.700195312 84.599609375 c 0
 617.599609375 84.599609375 530.799804688 118.200195312 530.099609375 317 c 2
584.700195312 315.599609375 m 2
 584.700195312 200.099609375 612.700195312 153.900390625 642.099609375 136.400390625 c 4
 654 129.400390625 665.900390625 127.299804688 676.400390625 127.299804688 c 0
 690.400390625 127.299804688 707.900390625 131.5 723.299804688 146.200195312 c 0
 747.099609375 169.299804688 767.400390625 217.599609375 767.400390625 316.299804688 c 2
 767.400390625 359 l 2
 767.400390625 427.599609375 756.200195312 469.599609375 740.099609375 494.799804688 c 0
 721.200195312 524.900390625 696 531.200195312 675.700195312 531.200195312 c 0
 639.299804688 531.200195312 584.700195312 508.099609375 584.700195312 359 c 2
 584.700195312 315.599609375 l 2
178 153.200195312 m 1
 201.799804688 192.400390625 l 1
 204.599609375 187.5 208.099609375 183.299804688 210.900390625 179.099609375 c 0
 223.5 162.299804688 238.200195312 150.400390625 252.200195312 142.700195312 c 0
 275.299804688 130.099609375 298.400390625 128 311 128 c 0
 332 128 359.299804688 136.400390625 378.900390625 160.900390625 c 0
 392.900390625 178.400390625 402.700195312 205 402.700195312 243.5 c 0
 402.700195312 251.200195312 402.700195312 258.900390625 402 265.900390625 c 0
 399.200195312 298.799804688 388.700195312 320.5 376.799804688 334.5 c 0
 362.799804688 350.599609375 345.299804688 356.200195312 331.299804688 356.200195312 c 0
 276 356.200195312 254.299804688 300.200195312 254.299804688 300.200195312 c 1
 206.700195312 300.200195312 l 1
 206.700195312 558.5 l 1
 442.599609375 558.5 l 1
 442.599609375 513.700195312 l 1
 257.799804688 513.700195312 l 1
 257.799804688 370.200195312 l 1
 280.900390625 387.700195312 299.799804688 398.900390625 332.700195312 398.900390625 c 0
 367 398.900390625 398.5 383.5 423 356.900390625 c 4
 448.900390625 328.900390625 465.700195312 289 465.700195312 242.799804688 c 0
 465.700195312 198 448.200195312 157.400390625 418.799804688 128.700195312 c 0
 391.5 101.400390625 353.700195312 84.599609375 311.700195312 84.599609375 c 0
 282.299804688 84.599609375 254.299804688 92.2998046875 229.799804688 106.299804688 c 0
 209.5 118.200195312 191.299804688 134.299804688 178 153.200195312 c 1
EndSplineSet
EndChar
StartChar: uF26C6
Encoding: 992966 992966 1082
Width: 1000
Flags: MW
LayerCount: 2
Fore
SplineSet
717 -197 m 5
 746 -166 768 -144 797 -96 c 4
 869 23 892 166 892 303 c 4
 892 668 729 784 717 803 c 5
 758 803 l 1
 826 742 950 603 950 304 c 0
 950 2 826 -136 758 -197 c 1
 717 -197 l 5
50 303 m 0
 50 603 173 742 241 803 c 1
 283 803 l 1
 254 772 231 750 202 701 c 0
 131 582 108 440 108 303 c 0
 108 -62 271 -178 283 -197 c 1
 241 -197 l 1
 177 -139 50 -1 50 303 c 0
530.799804688 156.700195312 m 1
 537.799804688 199.400390625 l 1
 560.900390625 167.900390625 588.200195312 150.400390625 612 140.599609375 c 0
 638.599609375 129.400390625 661.700195312 128 672.200195312 128 c 0
 698.799804688 128 719.799804688 139.200195312 735.200195312 157.400390625 c 0
 749.900390625 174.900390625 759 199.400390625 759 227.400390625 c 0xe8
 759 234.400390625 759 241.400390625 757.599609375 248.400390625 c 0
 754.099609375 272.200195312 742.200195312 293.200195312 725.400390625 307.200195312 c 0
 711.400390625 319.099609375 693.200195312 326.099609375 669.400390625 326.099609375 c 2
 617.599609375 326.099609375 l 1
 617.599609375 369.5 l 1
 658.200195312 372.299804688 663.099609375 373 668 373.700195312 c 0
 714.200195312 382.099609375 745 424.799804688 745 467.5 c 0
 745 486.400390625 737.299804688 503.200195312 725.400390625 514.400390625 c 0
 712.799804688 526.299804688 695.299804688 532.599609375 673.599609375 532.599609375 c 0
 654 532.599609375 634.400390625 527 617.599609375 517.900390625 c 0
 601.5 508.799804688 587.5 496.200195312 577 480.099609375 c 0
 572.799804688 473.799804688 569.299804688 466.799804688 565.799804688 459.799804688 c 1
 540.599609375 498.299804688 l 1
 558.799804688 526.299804688 579.099609375 544.5 599.400390625 555.700195312 c 0
 629.5 572.5 658.900390625 574.599609375 675 574.599609375 c 0
 705.799804688 574.599609375 735.900390625 564.799804688 759 548 c 0
 784.900390625 529.099609375 802.400390625 501.099609375 802.400390625 467.5 c 0xf0
 802.400390625 447.900390625 796.799804688 418.5 774.400390625 389.799804688 c 0
 762.5 375.099609375 746.400390625 360.400390625 724 347.799804688 c 1
 751.299804688 338 773 324 788.400390625 307.200195312 c 0
 810.799804688 283.400390625 822 254.700195312 822 226 c 0
 822 188.900390625 804.5 149.700195312 773 121.700195312 c 4
 747.799804688 99.2998046875 714.900390625 84.599609375 673.599609375 84.599609375 c 0
 661 84.599609375 630.900390625 86 598 101.400390625 c 0
 575.599609375 111.900390625 552.5 129.400390625 530.799804688 156.700195312 c 1
178 153.200195312 m 1
 201.799804688 192.400390625 l 1
 204.599609375 187.5 208.799804688 183.299804688 211.599609375 179.099609375 c 0
 224.200195312 162.299804688 238.200195312 150.400390625 252.200195312 142.700195312 c 0
 275.299804688 130.099609375 298.400390625 128 311 128 c 0
 332 128 360 136.400390625 379.599609375 160.900390625 c 0
 393.599609375 178.400390625 403.400390625 205 403.400390625 243.5 c 0
 403.400390625 251.200195312 402.700195312 258.900390625 402 265.900390625 c 0
 399.200195312 298.799804688 388.700195312 320.5 376.799804688 334.5 c 0
 362.799804688 350.599609375 346 356.200195312 332 356.200195312 c 0
 276.700195312 356.200195312 255 300.200195312 255 300.200195312 c 1
 207.400390625 300.200195312 l 1
 207.400390625 558.5 l 1
 442.599609375 558.5 l 1
 442.599609375 513.700195312 l 1
 257.799804688 513.700195312 l 1
 257.799804688 370.200195312 l 1
 280.900390625 387.700195312 300.5 398.900390625 333.400390625 398.900390625 c 0
 367.700195312 398.900390625 398.5 383.5 423 356.900390625 c 4
 448.900390625 328.900390625 466.400390625 289 466.400390625 242.799804688 c 0
 466.400390625 198 448.200195312 157.400390625 418.799804688 128.700195312 c 0
 391.5 101.400390625 354.400390625 84.599609375 312.400390625 84.599609375 c 0
 283 84.599609375 254.299804688 92.2998046875 229.799804688 106.299804688 c 0
 209.5 118.200195312 191.299804688 134.299804688 178 153.200195312 c 1
EndSplineSet
EndChar
StartChar: uF26C8
Encoding: 992968 992968 1084
Width: 1000
Flags: MW
LayerCount: 2
Fore
SplineSet
717 -197 m 5
 746 -166 768 -144 797 -96 c 4
 869 23 892 166 892 303 c 4
 892 668 729 784 717 803 c 5
 758 803 l 1
 826 742 950 603 950 304 c 0
 950 2 826 -136 758 -197 c 1
 717 -197 l 5
50 303 m 0
 50 603 173 742 241 803 c 1
 283 803 l 1
 254 772 231 750 202 701 c 0
 131 582 108 440 108 303 c 0
 108 -62 271 -178 283 -197 c 1
 241 -197 l 1
 177 -139 50 -1 50 303 c 0
530.799804688 153.200195312 m 1
 554.599609375 192.400390625 l 1
 557.400390625 187.5 561.599609375 183.299804688 564.400390625 179.099609375 c 0
 577 162.299804688 591 150.400390625 605 142.700195312 c 0
 628.099609375 130.099609375 651.200195312 128 663.799804688 128 c 0
 684.799804688 128 712.799804688 136.400390625 732.400390625 160.900390625 c 0
 746.400390625 178.400390625 756.200195312 205 756.200195312 243.5 c 0
 756.200195312 251.200195312 755.5 258.900390625 754.799804688 265.900390625 c 0
 752 298.799804688 741.5 320.5 729.599609375 334.5 c 0
 715.599609375 350.599609375 698.799804688 356.200195312 684.799804688 356.200195312 c 0
 629.5 356.200195312 607.799804688 300.200195312 607.799804688 300.200195312 c 1
 560.200195312 300.200195312 l 1
 560.200195312 558.5 l 1
 795.400390625 558.5 l 1
 795.400390625 513.700195312 l 1
 610.599609375 513.700195312 l 1
 610.599609375 370.200195312 l 1
 633.700195312 387.700195312 653.299804688 398.900390625 686.200195312 398.900390625 c 0
 720.5 398.900390625 751.299804688 383.5 775.799804688 356.900390625 c 4
 801.700195312 328.900390625 819.200195312 289 819.200195312 242.799804688 c 0
 819.200195312 198 801 157.400390625 771.599609375 128.700195312 c 0
 744.299804688 101.400390625 707.200195312 84.599609375 665.200195312 84.599609375 c 0
 635.799804688 84.599609375 607.099609375 92.2998046875 582.599609375 106.299804688 c 0
 562.299804688 118.200195312 544.099609375 134.299804688 530.799804688 153.200195312 c 1
180.799804688 153.200195312 m 1
 204.599609375 192.400390625 l 1
 207.400390625 187.5 211.599609375 183.299804688 214.400390625 179.099609375 c 0
 227 162.299804688 241 150.400390625 255 142.700195312 c 0
 278.099609375 130.099609375 301.200195312 128 313.799804688 128 c 0
 334.799804688 128 362.799804688 136.400390625 382.400390625 160.900390625 c 0
 396.400390625 178.400390625 406.200195312 205 406.200195312 243.5 c 0
 406.200195312 251.200195312 405.5 258.900390625 404.799804688 265.900390625 c 0
 402 298.799804688 391.5 320.5 379.599609375 334.5 c 0
 365.599609375 350.599609375 348.799804688 356.200195312 334.799804688 356.200195312 c 0
 279.5 356.200195312 257.799804688 300.200195312 257.799804688 300.200195312 c 1
 210.200195312 300.200195312 l 1
 210.200195312 558.5 l 1
 445.400390625 558.5 l 1
 445.400390625 513.700195312 l 1
 260.599609375 513.700195312 l 1
 260.599609375 370.200195312 l 1
 283.700195312 387.700195312 303.299804688 398.900390625 336.200195312 398.900390625 c 0
 370.5 398.900390625 401.299804688 383.5 425.799804688 356.900390625 c 4
 451.700195312 328.900390625 469.200195312 289 469.200195312 242.799804688 c 0
 469.200195312 198 451 157.400390625 421.599609375 128.700195312 c 0
 394.299804688 101.400390625 357.200195312 84.599609375 315.200195312 84.599609375 c 0
 285.799804688 84.599609375 257.099609375 92.2998046875 232.599609375 106.299804688 c 0
 212.299804688 118.200195312 194.099609375 134.299804688 180.799804688 153.200195312 c 1
EndSplineSet
EndChar
StartChar: uF26C9
Encoding: 992969 992969 1085
Width: 1000
Flags: MW
LayerCount: 2
Fore
SplineSet
717 -197 m 5
 746 -166 768 -144 797 -96 c 4
 869 23 892 166 892 303 c 4
 892 668 729 784 717 803 c 5
 758 803 l 1
 826 742 950 603 950 304 c 0
 950 2 826 -136 758 -197 c 1
 717 -197 l 5
50 303 m 0
 50 603 173 742 241 803 c 1
 283 803 l 1
 254 772 231 750 202 701 c 0
 131 582 108 440 108 303 c 0
 108 -62 271 -178 283 -197 c 1
 241 -197 l 1
 177 -139 50 -1 50 303 c 0
530.799804688 326.099609375 m 0
 530.799804688 396.099609375 551.099609375 459.099609375 585.400390625 503.900390625 c 0
 618.299804688 548 665.200195312 574.599609375 718.400390625 574.599609375 c 0
 753.400390625 574.599609375 774.400390625 566.900390625 792.599609375 560.599609375 c 1
 792.599609375 518.599609375 l 1
 773.700195312 524.900390625 753.400390625 533.299804688 718.400390625 533.299804688 c 0
 679.900390625 533.299804688 651.200195312 513.700195312 630.200195312 485.700195312 c 0
 605 452.099609375 591.700195312 405.200195312 589.599609375 366 c 1
 619 403.099609375 664.5 423.400390625 708.599609375 423.400390625 c 0
 744.299804688 423.400390625 764.599609375 407.299804688 784.200195312 380.700195312 c 0
 810.099609375 344.299804688 820.599609375 309.299804688 822 268.700195312 c 0
 822 264.5 822 261 822 256.799804688 c 0
 822 202.200195312 808 165.099609375 773 128 c 0
 745 97.900390625 715.599609375 84.599609375 677.799804688 84.599609375 c 0
 644.200195312 84.599609375 602.200195312 97.900390625 571.400390625 145.5 c 0
 547.599609375 181.900390625 530.799804688 239.299804688 530.799804688 326.099609375 c 0
591 272.900390625 m 0
 591 266.599609375 591.700195312 260.299804688 592.400390625 254 c 0
 598 202.200195312 612.700195312 128 677.799804688 128 c 0
 731 128 753.400390625 174.900390625 760.400390625 205.700195312 c 0
 763.200195312 221.099609375 764.599609375 236.5 764.599609375 252.599609375 c 0
 764.599609375 262.400390625 763.900390625 270.799804688 763.200195312 278.5 c 0
 761.799804688 305.799804688 757.599609375 324 745 344.299804688 c 0
 724 377.200195312 696.700195312 380.700195312 680.599609375 380.700195312 c 0
 633.700195312 380.700195312 602.200195312 343.599609375 593.799804688 296 c 4
 592.400390625 288.299804688 591 280.599609375 591 272.900390625 c 0
178 153.200195312 m 1
 201.799804688 192.400390625 l 1
 204.599609375 187.5 208.799804688 183.299804688 211.599609375 179.099609375 c 0
 224.200195312 162.299804688 238.200195312 150.400390625 252.200195312 142.700195312 c 0
 275.299804688 130.099609375 298.400390625 128 311 128 c 0
 332 128 360 136.400390625 379.599609375 160.900390625 c 0
 393.599609375 178.400390625 403.400390625 205 403.400390625 243.5 c 0
 403.400390625 251.200195312 402.700195312 258.900390625 402 265.900390625 c 0
 399.200195312 298.799804688 388.700195312 320.5 376.799804688 334.5 c 0
 362.799804688 350.599609375 346 356.200195312 332 356.200195312 c 0
 276.700195312 356.200195312 255 300.200195312 255 300.200195312 c 1
 207.400390625 300.200195312 l 1
 207.400390625 558.5 l 1
 442.599609375 558.5 l 1
 442.599609375 513.700195312 l 1
 257.799804688 513.700195312 l 1
 257.799804688 370.200195312 l 1
 280.900390625 387.700195312 300.5 398.900390625 333.400390625 398.900390625 c 0
 367.700195312 398.900390625 398.5 383.5 423 356.900390625 c 4
 448.900390625 328.900390625 466.400390625 289 466.400390625 242.799804688 c 0
 466.400390625 198 448.200195312 157.400390625 418.799804688 128.700195312 c 0
 391.5 101.400390625 354.400390625 84.599609375 312.400390625 84.599609375 c 0
 283 84.599609375 254.299804688 92.2998046875 229.799804688 106.299804688 c 0
 209.5 118.200195312 191.299804688 134.299804688 178 153.200195312 c 1
EndSplineSet
EndChar
StartChar: uF26CA
Encoding: 992970 992970 1086
Width: 1000
Flags: MW
LayerCount: 2
Fore
SplineSet
717 -197 m 5
 746 -166 768 -144 797 -96 c 4
 869 23 892 166 892 303 c 4
 892 668 729 784 717 803 c 5
 758 803 l 1
 826 742 950 603 950 304 c 0
 950 2 826 -136 758 -197 c 1
 717 -197 l 5
50 303 m 0
 50 603 173 742 241 803 c 1
 283 803 l 1
 254 772 231 750 202 701 c 0
 131 582 108 440 108 303 c 0
 108 -62 271 -178 283 -197 c 1
 241 -197 l 1
 177 -139 50 -1 50 303 c 0
530.799804688 509.5 m 1
 530.799804688 559.200195312 l 1
 822 558.5 l 1
 822 513 l 1
 723.299804688 399.599609375 666.599609375 245.599609375 666.599609375 92.2998046875 c 1
 607.799804688 92.2998046875 l 1
 607.799804688 231.599609375 655.400390625 382.799804688 774.400390625 509.5 c 1
 530.799804688 509.5 l 1
178 153.200195312 m 1
 201.799804688 192.400390625 l 1
 204.599609375 187.5 208.799804688 183.299804688 211.599609375 179.099609375 c 0
 224.200195312 162.299804688 238.200195312 150.400390625 252.200195312 142.700195312 c 0
 275.299804688 130.099609375 298.400390625 128 311 128 c 0
 332 128 360 136.400390625 379.599609375 160.900390625 c 0
 393.599609375 178.400390625 403.400390625 205 403.400390625 243.5 c 0
 403.400390625 251.200195312 402.700195312 258.900390625 402 265.900390625 c 0
 399.200195312 298.799804688 388.700195312 320.5 376.799804688 334.5 c 0
 362.799804688 350.599609375 346 356.200195312 332 356.200195312 c 0
 276.700195312 356.200195312 255 300.200195312 255 300.200195312 c 1
 207.400390625 300.200195312 l 1
 207.400390625 558.5 l 1
 442.599609375 558.5 l 1
 442.599609375 513.700195312 l 1
 257.799804688 513.700195312 l 1
 257.799804688 370.200195312 l 1
 280.900390625 387.700195312 300.5 398.900390625 333.400390625 398.900390625 c 0
 367.700195312 398.900390625 398.5 383.5 423 356.900390625 c 4
 448.900390625 328.900390625 466.400390625 289 466.400390625 242.799804688 c 0
 466.400390625 198 448.200195312 157.400390625 418.799804688 128.700195312 c 0
 391.5 101.400390625 354.400390625 84.599609375 312.400390625 84.599609375 c 0
 283 84.599609375 254.299804688 92.2998046875 229.799804688 106.299804688 c 0
 209.5 118.200195312 191.299804688 134.299804688 178 153.200195312 c 1
EndSplineSet
EndChar
StartChar: uF26CE
Encoding: 992974 992974 1090
Width: 1000
Flags: MW
LayerCount: 2
Fore
SplineSet
717 -197 m 5
 746 -166 768 -144 797 -96 c 4
 869 23 892 166 892 303 c 4
 892 668 729 784 717 803 c 5
 758 803 l 1
 826 742 950 603 950 304 c 0
 950 2 826 -136 758 -197 c 1
 717 -197 l 5
50 303 m 0
 50 603 173 742 241 803 c 1
 283 803 l 1
 254 772 231 750 202 701 c 0
 131 582 108 440 108 303 c 0
 108 -62 271 -178 283 -197 c 1
 241 -197 l 1
 177 -139 50 -1 50 303 c 0
574.200195312 487.799804688 m 1
 574.200195312 528.400390625 l 1
 654.700195312 528.400390625 689.700195312 557.099609375 708.599609375 574.599609375 c 1
 721.200195312 574.599609375 l 1
 721.200195312 141.299804688 l 1
 809.400390625 141.299804688 l 1
 809.400390625 100 l 1
 578.400390625 100 l 1
 578.400390625 141.299804688 l 1
 665.200195312 141.299804688 l 1
 665.200195312 503.900390625 l 1
 640.700195312 494.099609375 616.200195312 487.799804688 574.200195312 487.799804688 c 1
190.599609375 326.099609375 m 0
 190.599609375 396.099609375 210.900390625 459.099609375 245.200195312 503.900390625 c 0
 278.099609375 548 325 574.599609375 378.200195312 574.599609375 c 0
 413.200195312 574.599609375 434.200195312 566.900390625 452.400390625 560.599609375 c 1
 452.400390625 518.599609375 l 1
 433.5 524.900390625 413.200195312 533.299804688 378.200195312 533.299804688 c 0
 339.700195312 533.299804688 311 513.700195312 290 485.700195312 c 0
 264.799804688 452.099609375 251.5 405.200195312 249.400390625 366 c 1
 278.799804688 403.099609375 324.299804688 423.400390625 368.400390625 423.400390625 c 0
 404.099609375 423.400390625 424.400390625 407.299804688 444 380.700195312 c 0
 469.900390625 344.299804688 480.400390625 309.299804688 481.799804688 268.700195312 c 0
 481.799804688 264.5 481.799804688 261 481.799804688 256.799804688 c 0
 481.799804688 202.200195312 467.799804688 165.099609375 432.799804688 128 c 0
 404.799804688 97.900390625 375.400390625 84.599609375 337.599609375 84.599609375 c 0
 304 84.599609375 262 97.900390625 231.200195312 145.5 c 0
 207.400390625 181.900390625 190.599609375 239.299804688 190.599609375 326.099609375 c 0
250.799804688 272.900390625 m 0
 250.799804688 266.599609375 251.5 260.299804688 252.200195312 254 c 0
 257.799804688 202.200195312 272.5 128 337.599609375 128 c 0
 390.799804688 128 413.200195312 174.900390625 420.200195312 205.700195312 c 0
 423 221.099609375 424.400390625 236.5 424.400390625 252.599609375 c 0
 424.400390625 262.400390625 423.700195312 270.799804688 423 278.5 c 0
 421.599609375 305.799804688 417.400390625 324 404.799804688 344.299804688 c 0
 383.799804688 377.200195312 356.5 380.700195312 340.400390625 380.700195312 c 0
 293.5 380.700195312 262 343.599609375 253.599609375 296 c 4
 252.200195312 288.299804688 250.799804688 280.599609375 250.799804688 272.900390625 c 0
EndSplineSet
EndChar
StartChar: uF26CF
Encoding: 992975 992975 1091
Width: 1000
Flags: MW
LayerCount: 2
Fore
SplineSet
717 -197 m 5
 746 -166 768 -144 797 -96 c 4
 869 23 892 166 892 303 c 4
 892 668 729 784 717 803 c 5
 758 803 l 1
 826 742 950 603 950 304 c 0
 950 2 826 -136 758 -197 c 1
 717 -197 l 5
50 303 m 0
 50 603 173 742 241 803 c 1
 283 803 l 1
 254 772 231 750 202 701 c 0
 131 582 108 440 108 303 c 0
 108 -62 271 -178 283 -197 c 1
 241 -197 l 1
 177 -139 50 -1 50 303 c 0
532.200195312 459.799804688 m 1
 549.700195312 518.599609375 586.799804688 574.599609375 668 574.599609375 c 0
 761.099609375 574.599609375 817.799804688 503.900390625 817.799804688 424.799804688 c 0
 817.799804688 356.900390625 773 319.099609375 700.200195312 254.700195312 c 0
 677.099609375 234.400390625 644.200195312 202.200195312 588.200195312 149 c 1
 817.799804688 149.700195312 l 1
 817.799804688 100 l 1
 537.799804688 100 l 1
 537.799804688 145.5 l 1
 628.799804688 235.799804688 l 2
 696 298.099609375 759 347.799804688 759 422.700195312 c 0
 759 481.5 718.400390625 529.099609375 658.200195312 529.099609375 c 0
 572.799804688 529.099609375 564.400390625 422.700195312 561.599609375 421.299804688 c 1
 532.200195312 459.799804688 l 1
182.200195312 326.099609375 m 0
 182.200195312 396.099609375 202.5 459.099609375 236.799804688 503.900390625 c 0
 269.700195312 548 316.599609375 574.599609375 369.799804688 574.599609375 c 0
 404.799804688 574.599609375 425.799804688 566.900390625 444 560.599609375 c 1
 444 518.599609375 l 1
 425.099609375 524.900390625 404.799804688 533.299804688 369.799804688 533.299804688 c 0
 331.299804688 533.299804688 302.599609375 513.700195312 281.599609375 485.700195312 c 0
 256.400390625 452.099609375 243.099609375 405.200195312 241 366 c 1
 270.400390625 403.099609375 315.900390625 423.400390625 360 423.400390625 c 0
 395.700195312 423.400390625 416 407.299804688 435.599609375 380.700195312 c 0
 461.5 344.299804688 472 309.299804688 473.400390625 268.700195312 c 0
 473.400390625 264.5 473.400390625 261 473.400390625 256.799804688 c 0
 473.400390625 202.200195312 459.400390625 165.099609375 424.400390625 128 c 0
 396.400390625 97.900390625 367 84.599609375 329.200195312 84.599609375 c 0
 295.599609375 84.599609375 253.599609375 97.900390625 222.799804688 145.5 c 0
 199 181.900390625 182.200195312 239.299804688 182.200195312 326.099609375 c 0
242.400390625 272.900390625 m 0
 242.400390625 266.599609375 243.099609375 260.299804688 243.799804688 254 c 0
 249.400390625 202.200195312 264.099609375 128 329.200195312 128 c 0
 382.400390625 128 404.799804688 174.900390625 411.799804688 205.700195312 c 0
 414.599609375 221.099609375 416 236.5 416 252.599609375 c 0
 416 262.400390625 415.299804688 270.799804688 414.599609375 278.5 c 0
 413.200195312 305.799804688 409 324 396.400390625 344.299804688 c 0
 375.400390625 377.200195312 348.099609375 380.700195312 332 380.700195312 c 0
 285.099609375 380.700195312 253.599609375 343.599609375 245.200195312 296 c 4
 243.799804688 288.299804688 242.400390625 280.599609375 242.400390625 272.900390625 c 0
EndSplineSet
EndChar
StartChar: uF26D1
Encoding: 992977 992977 1093
Width: 1000
Flags: MW
LayerCount: 2
Fore
SplineSet
717 -197 m 5
 746 -166 768 -144 797 -96 c 4
 869 23 892 166 892 303 c 4
 892 668 729 784 717 803 c 5
 758 803 l 1
 826 742 950 603 950 304 c 0
 950 2 826 -136 758 -197 c 1
 717 -197 l 5
50 303 m 0
 50 603 173 742 241 803 c 1
 283 803 l 1
 254 772 231 750 202 701 c 0
 131 582 108 440 108 303 c 0
 108 -62 271 -178 283 -197 c 1
 241 -197 l 1
 177 -139 50 -1 50 303 c 0
514 219.700195312 m 1
 514 253.299804688 l 0
 514 262.400390625 515.400390625 263.799804688 522.400390625 275 c 2
 691.799804688 558.5 l 1
 756.200195312 558.5 l 1
 756.200195312 262.400390625 l 1xe8
 824.799804688 262.400390625 l 1
 824.799804688 219.700195312 l 1
 756.200195312 219.700195312 l 1
 756.200195312 100 l 1
 700.200195312 100 l 1
 700.200195312 219.700195312 l 1xf0
 514 219.700195312 l 1
568.599609375 262.400390625 m 1
 704.400390625 262.400390625 l 1xe8
 704.400390625 532.599609375 l 1
 695.299804688 476.599609375 658.200195312 414.299804688 568.599609375 262.400390625 c 1
175.200195312 326.099609375 m 0
 175.200195312 396.099609375 194.099609375 459.099609375 228.400390625 503.900390625 c 0
 261.299804688 548 308.200195312 574.599609375 361.400390625 574.599609375 c 0
 396.400390625 574.599609375 418.799804688 566.900390625 437 560.599609375 c 1
 437 518.599609375 l 1
 418.099609375 524.900390625 396.400390625 533.299804688 361.400390625 533.299804688 c 0
 322.900390625 533.299804688 294.200195312 513.700195312 273.200195312 485.700195312 c 0
 248 452.099609375 236.099609375 405.200195312 234 366 c 1
 263.400390625 403.099609375 307.5 423.400390625 351.599609375 423.400390625 c 0
 387.299804688 423.400390625 409 407.299804688 428.599609375 380.700195312 c 0
 454.5 344.299804688 463.599609375 309.299804688 465 268.700195312 c 0
 465 264.5 465 261 465 256.799804688 c 0
 465 202.200195312 452.400390625 165.099609375 417.400390625 128 c 0
 389.400390625 97.900390625 360 84.599609375 322.200195312 84.599609375 c 0
 288.599609375 84.599609375 245.200195312 97.900390625 214.400390625 145.5 c 0
 190.599609375 181.900390625 175.200195312 239.299804688 175.200195312 326.099609375 c 0
235.400390625 272.900390625 m 0
 235.400390625 266.599609375 234.700195312 260.299804688 235.400390625 254 c 0
 241 202.200195312 255.700195312 128 320.799804688 128 c 0
 374 128 397.799804688 174.900390625 404.799804688 205.700195312 c 0
 407.599609375 221.099609375 407.599609375 236.5 407.599609375 252.599609375 c 0
 407.599609375 262.400390625 408.299804688 270.799804688 407.599609375 278.5 c 0
 406.200195312 305.799804688 400.599609375 324 388 344.299804688 c 0
 367 377.200195312 341.099609375 380.700195312 325 380.700195312 c 0
 278.099609375 380.700195312 245.200195312 343.599609375 236.799804688 296 c 4
 235.400390625 288.299804688 235.400390625 280.599609375 235.400390625 272.900390625 c 0
EndSplineSet
EndChar
StartChar: uF26D2
Encoding: 992978 992978 1094
Width: 1000
Flags: MW
LayerCount: 2
Fore
SplineSet
717 -197 m 5
 746 -166 768 -144 797 -96 c 4
 869 23 892 166 892 303 c 4
 892 668 729 784 717 803 c 5
 758 803 l 1
 826 742 950 603 950 304 c 0
 950 2 826 -136 758 -197 c 1
 717 -197 l 5
50 303 m 0
 50 603 173 742 241 803 c 1
 283 803 l 1
 254 772 231 750 202 701 c 0
 131 582 108 440 108 303 c 0
 108 -62 271 -178 283 -197 c 1
 241 -197 l 1
 177 -139 50 -1 50 303 c 0
529.400390625 153.200195312 m 1
 553.200195312 192.400390625 l 1
 556 187.5 560.200195312 183.299804688 563 179.099609375 c 0
 575.599609375 162.299804688 589.599609375 150.400390625 603.599609375 142.700195312 c 0
 626.700195312 130.099609375 649.799804688 128 662.400390625 128 c 0
 683.400390625 128 711.400390625 136.400390625 731 160.900390625 c 0
 745 178.400390625 754.799804688 205 754.799804688 243.5 c 0
 754.799804688 251.200195312 754.099609375 258.900390625 753.400390625 265.900390625 c 0
 750.599609375 298.799804688 740.099609375 320.5 728.200195312 334.5 c 0
 714.200195312 350.599609375 697.400390625 356.200195312 683.400390625 356.200195312 c 0
 628.099609375 356.200195312 606.400390625 300.200195312 606.400390625 300.200195312 c 1
 558.799804688 300.200195312 l 1
 558.799804688 558.5 l 1
 794 558.5 l 1
 794 513.700195312 l 1
 609.200195312 513.700195312 l 1
 609.200195312 370.200195312 l 1
 632.299804688 387.700195312 651.900390625 398.900390625 684.799804688 398.900390625 c 0
 719.099609375 398.900390625 749.900390625 383.5 774.400390625 356.900390625 c 4
 800.299804688 328.900390625 817.799804688 289 817.799804688 242.799804688 c 0
 817.799804688 198 799.599609375 157.400390625 770.200195312 128.700195312 c 0
 742.900390625 101.400390625 705.799804688 84.599609375 663.799804688 84.599609375 c 0
 634.400390625 84.599609375 605.700195312 92.2998046875 581.200195312 106.299804688 c 0
 560.900390625 118.200195312 542.700195312 134.299804688 529.400390625 153.200195312 c 1
182.200195312 326.099609375 m 0
 182.200195312 396.099609375 202.5 459.099609375 236.799804688 503.900390625 c 0
 269.700195312 548 316.599609375 574.599609375 369.799804688 574.599609375 c 0
 404.799804688 574.599609375 425.799804688 566.900390625 444 560.599609375 c 1
 444 518.599609375 l 1
 425.099609375 524.900390625 404.799804688 533.299804688 369.799804688 533.299804688 c 0
 331.299804688 533.299804688 302.599609375 513.700195312 281.599609375 485.700195312 c 0
 256.400390625 452.099609375 243.099609375 405.200195312 241 366 c 1
 270.400390625 403.099609375 315.900390625 423.400390625 360 423.400390625 c 0
 395.700195312 423.400390625 416 407.299804688 435.599609375 380.700195312 c 0
 461.5 344.299804688 472 309.299804688 473.400390625 268.700195312 c 0
 473.400390625 264.5 473.400390625 261 473.400390625 256.799804688 c 0
 473.400390625 202.200195312 459.400390625 165.099609375 424.400390625 128 c 0
 396.400390625 97.900390625 367 84.599609375 329.200195312 84.599609375 c 0
 295.599609375 84.599609375 253.599609375 97.900390625 222.799804688 145.5 c 0
 199 181.900390625 182.200195312 239.299804688 182.200195312 326.099609375 c 0
242.400390625 272.900390625 m 0
 242.400390625 266.599609375 243.099609375 260.299804688 243.799804688 254 c 0
 249.400390625 202.200195312 264.099609375 128 329.200195312 128 c 0
 382.400390625 128 404.799804688 174.900390625 411.799804688 205.700195312 c 0
 414.599609375 221.099609375 416 236.5 416 252.599609375 c 0
 416 262.400390625 415.299804688 270.799804688 414.599609375 278.5 c 0
 413.200195312 305.799804688 409 324 396.400390625 344.299804688 c 0
 375.400390625 377.200195312 348.099609375 380.700195312 332 380.700195312 c 0
 285.099609375 380.700195312 253.599609375 343.599609375 245.200195312 296 c 4
 243.799804688 288.299804688 242.400390625 280.599609375 242.400390625 272.900390625 c 0
EndSplineSet
EndChar
StartChar: uF26D6
Encoding: 992982 992982 1098
Width: 1000
Flags: MW
LayerCount: 2
Fore
SplineSet
717 -197 m 5
 746 -166 768 -144 797 -96 c 4
 869 23 892 166 892 303 c 4
 892 668 729 784 717 803 c 5
 758 803 l 1
 826 742 950 603 950 304 c 0
 950 2 826 -136 758 -197 c 1
 717 -197 l 5
50 303 m 0
 50 603 173 742 241 803 c 1
 283 803 l 1
 254 772 231 750 202 701 c 0
 131 582 108 440 108 303 c 0
 108 -62 271 -178 283 -197 c 1
 241 -197 l 1
 177 -139 50 -1 50 303 c 0
529.400390625 404.5 m 0
 529.400390625 455.599609375 542.700195312 494.099609375 579.799804688 532.599609375 c 0
 609.200195312 562 637.900390625 574.599609375 676.400390625 574.599609375 c 0
 703.700195312 574.599609375 738 565.5 766 534.700195312 c 0
 796.799804688 500.400390625 820.599609375 439.5 820.599609375 333.099609375 c 0
 820.599609375 254 796.099609375 186.799804688 759 142.700195312 c 0
 728.200195312 105.599609375 687.599609375 84.599609375 644.200195312 84.599609375 c 0
 600.799804688 84.599609375 575.599609375 97.900390625 550.400390625 116.799804688 c 1
 572.799804688 154.599609375 l 1
 588.900390625 143.400390625 606.400390625 128 645.599609375 128 c 0
 679.200195312 128 709.299804688 146.900390625 731 183.299804688 c 0
 744.299804688 206.400390625 754.099609375 235.799804688 759 271.5 c 0
 759.700195312 278.5 761.099609375 285.5 761.799804688 293.200195312 c 1
 731 256.799804688 690.400390625 235.099609375 642.799804688 235.099609375 c 0
 606.400390625 235.099609375 586.099609375 251.200195312 567.200195312 277.799804688 c 0
 537.799804688 318.400390625 529.400390625 356.200195312 529.400390625 404.5 c 0
586.799804688 404.5 m 0
 586.799804688 366.700195312 588.900390625 340.099609375 609.200195312 310.700195312 c 0
 622.5 291.799804688 641.400390625 278.5 670.799804688 278.5 c 0
 697.400390625 278.5 719.799804688 291.099609375 735.200195312 310.700195312 c 4
 750.599609375 330.299804688 760.400390625 357.599609375 760.400390625 387 c 0
 760.400390625 433.200195312 747.099609375 532.599609375 677.799804688 532.599609375 c 0
 658.200195312 532.599609375 641.400390625 526.299804688 628.799804688 516.5 c 0
 607.099609375 499.700195312 595.200195312 473.799804688 591 454.900390625 c 0
 586.799804688 438.099609375 586.799804688 422 586.799804688 404.5 c 0
179.400390625 326.099609375 m 0
 179.400390625 396.099609375 199.700195312 459.099609375 234 503.900390625 c 0
 266.900390625 548 313.799804688 574.599609375 367 574.599609375 c 0
 402 574.599609375 423 566.900390625 441.200195312 560.599609375 c 1
 441.200195312 518.599609375 l 1
 422.299804688 524.900390625 402 533.299804688 367 533.299804688 c 0
 328.5 533.299804688 299.799804688 513.700195312 278.799804688 485.700195312 c 0
 253.599609375 452.099609375 240.299804688 405.200195312 238.200195312 366 c 1
 267.599609375 403.099609375 313.099609375 423.400390625 357.200195312 423.400390625 c 0
 392.900390625 423.400390625 413.200195312 407.299804688 432.799804688 380.700195312 c 0
 458.700195312 344.299804688 469.200195312 309.299804688 470.599609375 268.700195312 c 0
 470.599609375 264.5 470.599609375 261 470.599609375 256.799804688 c 0
 470.599609375 202.200195312 456.599609375 165.099609375 421.599609375 128 c 0
 393.599609375 97.900390625 364.200195312 84.599609375 326.400390625 84.599609375 c 0
 292.799804688 84.599609375 250.799804688 97.900390625 220 145.5 c 0
 196.200195312 181.900390625 179.400390625 239.299804688 179.400390625 326.099609375 c 0
239.599609375 272.900390625 m 0
 239.599609375 266.599609375 240.299804688 260.299804688 241 254 c 0
 246.599609375 202.200195312 261.299804688 128 326.400390625 128 c 0
 379.599609375 128 402 174.900390625 409 205.700195312 c 0
 411.799804688 221.099609375 413.200195312 236.5 413.200195312 252.599609375 c 0
 413.200195312 262.400390625 412.5 270.799804688 411.799804688 278.5 c 0
 410.400390625 305.799804688 406.200195312 324 393.599609375 344.299804688 c 0
 372.599609375 377.200195312 345.299804688 380.700195312 329.200195312 380.700195312 c 0
 282.299804688 380.700195312 250.799804688 343.599609375 242.400390625 296 c 4
 241 288.299804688 239.599609375 280.599609375 239.599609375 272.900390625 c 0
EndSplineSet
EndChar
StartChar: uF26D8
Encoding: 992984 992984 1100
Width: 1000
Flags: MW
LayerCount: 2
Fore
SplineSet
717 -197 m 5
 746 -166 768 -144 797 -96 c 4
 869 23 892 166 892 303 c 4
 892 668 729 784 717 803 c 5
 758 803 l 1
 826 742 950 603 950 304 c 0
 950 2 826 -136 758 -197 c 1
 717 -197 l 5
50 303 m 0
 50 603 173 742 241 803 c 1
 283 803 l 1
 254 772 231 750 202 701 c 0
 131 582 108 440 108 303 c 0
 108 -62 271 -178 283 -197 c 1
 241 -197 l 1
 177 -139 50 -1 50 303 c 0
574.900390625 487.799804688 m 1
 574.900390625 528.400390625 l 1
 655.400390625 528.400390625 689.700195312 557.099609375 708.599609375 574.599609375 c 1
 721.900390625 574.599609375 l 1
 721.900390625 141.299804688 l 1
 809.400390625 141.299804688 l 1
 809.400390625 100 l 1
 578.400390625 100 l 1
 578.400390625 141.299804688 l 1
 665.900390625 141.299804688 l 1
 665.900390625 503.900390625 l 1
 641.400390625 494.099609375 616.900390625 487.799804688 574.900390625 487.799804688 c 1
190.599609375 509.5 m 1
 190.599609375 559.200195312 l 1
 481.799804688 558.5 l 1
 481.799804688 513 l 1
 383.099609375 399.599609375 327.099609375 245.599609375 327.099609375 92.2998046875 c 1
 267.599609375 92.2998046875 l 1
 267.599609375 231.599609375 315.200195312 382.799804688 434.200195312 509.5 c 1
 190.599609375 509.5 l 1
EndSplineSet
EndChar
StartChar: uF26D9
Encoding: 992985 992985 1101
Width: 1000
Flags: MW
LayerCount: 2
Fore
SplineSet
717 -197 m 5
 746 -166 768 -144 797 -96 c 4
 869 23 892 166 892 303 c 4
 892 668 729 784 717 803 c 5
 758 803 l 1
 826 742 950 603 950 304 c 0
 950 2 826 -136 758 -197 c 1
 717 -197 l 5
50 303 m 0
 50 603 173 742 241 803 c 1
 283 803 l 1
 254 772 231 750 202 701 c 0
 131 582 108 440 108 303 c 0
 108 -62 271 -178 283 -197 c 1
 241 -197 l 1
 177 -139 50 -1 50 303 c 0
532.200195312 459.799804688 m 1
 549.700195312 518.599609375 586.799804688 574.599609375 668 574.599609375 c 0
 761.099609375 574.599609375 817.799804688 503.900390625 817.799804688 424.799804688 c 0
 817.799804688 356.900390625 773.700195312 319.099609375 700.900390625 254.700195312 c 0
 677.799804688 234.400390625 644.200195312 202.200195312 588.200195312 149 c 1
 817.799804688 149.700195312 l 1
 817.799804688 100 l 1
 537.799804688 100 l 1
 537.799804688 145.5 l 1
 628.799804688 235.799804688 l 2
 696 298.099609375 759.700195312 347.799804688 759.700195312 422.700195312 c 0
 759.700195312 481.5 719.099609375 529.099609375 658.900390625 529.099609375 c 0
 573.5 529.099609375 565.099609375 422.700195312 562.299804688 421.299804688 c 1
 532.200195312 459.799804688 l 1
182.200195312 509.5 m 1
 182.200195312 559.200195312 l 1
 473.400390625 558.5 l 1
 473.400390625 513 l 1
 374.700195312 399.599609375 318.700195312 245.599609375 318.700195312 92.2998046875 c 1
 259.200195312 92.2998046875 l 1
 259.200195312 231.599609375 306.799804688 382.799804688 425.799804688 509.5 c 1
 182.200195312 509.5 l 1
EndSplineSet
EndChar
StartChar: uF26DB
Encoding: 992987 992987 1103
Width: 1000
Flags: MW
LayerCount: 2
Fore
SplineSet
717 -197 m 5
 746 -166 768 -144 797 -96 c 4
 869 23 892 166 892 303 c 4
 892 668 729 784 717 803 c 5
 758 803 l 1
 826 742 950 603 950 304 c 0
 950 2 826 -136 758 -197 c 1
 717 -197 l 5
50 303 m 0
 50 603 173 742 241 803 c 1
 283 803 l 1
 254 772 231 750 202 701 c 0
 131 582 108 440 108 303 c 0
 108 -62 271 -178 283 -197 c 1
 241 -197 l 1
 177 -139 50 -1 50 303 c 0
514.700195312 219.700195312 m 1
 514.700195312 253.299804688 l 0
 514.700195312 262.400390625 515.400390625 263.799804688 522.400390625 275 c 2
 691.799804688 558.5 l 1
 756.200195312 558.5 l 1
 756.200195312 262.400390625 l 1xe8
 825.5 262.400390625 l 1
 825.5 219.700195312 l 1
 756.200195312 219.700195312 l 1
 756.200195312 100 l 1
 700.200195312 100 l 1
 700.200195312 219.700195312 l 1xf0
 514.700195312 219.700195312 l 1
569.299804688 262.400390625 m 1
 704.400390625 262.400390625 l 1xe8
 704.400390625 532.599609375 l 1
 695.299804688 476.599609375 658.900390625 414.299804688 569.299804688 262.400390625 c 1
174.5 509.5 m 1
 174.5 559.200195312 l 1
 465.700195312 558.5 l 1
 465.700195312 513 l 1
 367 399.599609375 311 245.599609375 311 92.2998046875 c 1
 251.5 92.2998046875 l 1
 251.5 231.599609375 299.099609375 382.799804688 418.099609375 509.5 c 1
 174.5 509.5 l 1
EndSplineSet
EndChar
StartChar: uF26DC
Encoding: 992988 992988 1104
Width: 1000
Flags: MW
LayerCount: 2
Fore
SplineSet
717 -197 m 5
 746 -166 768 -144 797 -96 c 4
 869 23 892 166 892 303 c 4
 892 668 729 784 717 803 c 5
 758 803 l 1
 826 742 950 603 950 304 c 0
 950 2 826 -136 758 -197 c 1
 717 -197 l 5
50 303 m 0
 50 603 173 742 241 803 c 1
 283 803 l 1
 254 772 231 750 202 701 c 0
 131 582 108 440 108 303 c 0
 108 -62 271 -178 283 -197 c 1
 241 -197 l 1
 177 -139 50 -1 50 303 c 0
530.099609375 153.200195312 m 1
 553.900390625 192.400390625 l 1
 556.700195312 187.5 560.200195312 183.299804688 563 179.099609375 c 0
 575.599609375 162.299804688 590.299804688 150.400390625 604.299804688 142.700195312 c 0
 627.400390625 130.099609375 650.5 128 663.099609375 128 c 0
 684.099609375 128 711.400390625 136.400390625 731 160.900390625 c 0
 745 178.400390625 754.799804688 205 754.799804688 243.5 c 0
 754.799804688 251.200195312 754.799804688 258.900390625 754.099609375 265.900390625 c 0
 751.299804688 298.799804688 740.799804688 320.5 728.900390625 334.5 c 0
 714.900390625 350.599609375 697.400390625 356.200195312 683.400390625 356.200195312 c 0
 628.099609375 356.200195312 606.400390625 300.200195312 606.400390625 300.200195312 c 1
 558.799804688 300.200195312 l 1
 558.799804688 558.5 l 1
 794.700195312 558.5 l 1
 794.700195312 513.700195312 l 1
 609.900390625 513.700195312 l 1
 609.900390625 370.200195312 l 1
 633 387.700195312 651.900390625 398.900390625 684.799804688 398.900390625 c 0
 719.099609375 398.900390625 750.599609375 383.5 775.099609375 356.900390625 c 4
 801 328.900390625 817.799804688 289 817.799804688 242.799804688 c 0
 817.799804688 198 800.299804688 157.400390625 770.900390625 128.700195312 c 0
 743.599609375 101.400390625 705.799804688 84.599609375 663.799804688 84.599609375 c 0
 634.400390625 84.599609375 606.400390625 92.2998046875 581.900390625 106.299804688 c 0
 561.599609375 118.200195312 543.400390625 134.299804688 530.099609375 153.200195312 c 1
182.200195312 509.5 m 1
 182.200195312 559.200195312 l 1
 473.400390625 558.5 l 1
 473.400390625 513 l 1
 374.700195312 399.599609375 318.700195312 245.599609375 318.700195312 92.2998046875 c 1
 259.200195312 92.2998046875 l 1
 259.200195312 231.599609375 306.799804688 382.799804688 425.799804688 509.5 c 1
 182.200195312 509.5 l 1
EndSplineSet
EndChar
StartChar: uF26DD
Encoding: 992989 992989 1105
Width: 1000
Flags: MW
LayerCount: 2
Fore
SplineSet
717 -197 m 5
 746 -166 768 -144 797 -96 c 4
 869 23 892 166 892 303 c 4
 892 668 729 784 717 803 c 5
 758 803 l 1
 826 742 950 603 950 304 c 0
 950 2 826 -136 758 -197 c 1
 717 -197 l 5
50 303 m 0
 50 603 173 742 241 803 c 1
 283 803 l 1
 254 772 231 750 202 701 c 0
 131 582 108 440 108 303 c 0
 108 -62 271 -178 283 -197 c 1
 241 -197 l 1
 177 -139 50 -1 50 303 c 0
530.099609375 326.099609375 m 0
 530.099609375 396.099609375 549.700195312 459.099609375 584 503.900390625 c 0
 616.900390625 548 663.799804688 574.599609375 717 574.599609375 c 0
 752 574.599609375 773.700195312 566.900390625 791.900390625 560.599609375 c 1
 791.900390625 518.599609375 l 1
 773 524.900390625 752 533.299804688 717 533.299804688 c 0
 678.5 533.299804688 649.799804688 513.700195312 628.799804688 485.700195312 c 0
 603.599609375 452.099609375 591 405.200195312 588.900390625 366 c 1
 618.299804688 403.099609375 663.099609375 423.400390625 707.200195312 423.400390625 c 0
 742.900390625 423.400390625 763.900390625 407.299804688 783.5 380.700195312 c 0
 809.400390625 344.299804688 819.200195312 309.299804688 820.599609375 268.700195312 c 0
 820.599609375 264.5 820.599609375 261 820.599609375 256.799804688 c 0
 820.599609375 202.200195312 807.299804688 165.099609375 772.299804688 128 c 0
 744.299804688 97.900390625 714.900390625 84.599609375 677.099609375 84.599609375 c 0
 643.5 84.599609375 600.799804688 97.900390625 570 145.5 c 0
 546.200195312 181.900390625 530.099609375 239.299804688 530.099609375 326.099609375 c 0
590.299804688 272.900390625 m 0
 590.299804688 266.599609375 590.299804688 260.299804688 591 254 c 0
 596.599609375 202.200195312 611.299804688 128 676.400390625 128 c 0
 729.599609375 128 752.700195312 174.900390625 759.700195312 205.700195312 c 0
 762.5 221.099609375 763.200195312 236.5 763.200195312 252.599609375 c 0
 763.200195312 262.400390625 763.200195312 270.799804688 762.5 278.5 c 0
 761.099609375 305.799804688 756.200195312 324 743.599609375 344.299804688 c 0
 722.599609375 377.200195312 696 380.700195312 679.900390625 380.700195312 c 0
 633 380.700195312 600.799804688 343.599609375 592.400390625 296 c 4
 591 288.299804688 590.299804688 280.599609375 590.299804688 272.900390625 c 0
179.400390625 509.5 m 1
 179.400390625 559.200195312 l 1
 470.599609375 558.5 l 1
 470.599609375 513 l 1
 371.900390625 399.599609375 315.900390625 245.599609375 315.900390625 92.2998046875 c 1
 256.400390625 92.2998046875 l 1
 256.400390625 231.599609375 304 382.799804688 423 509.5 c 1
 179.400390625 509.5 l 1
EndSplineSet
EndChar
StartChar: uF26DE
Encoding: 992990 992990 1106
Width: 1000
Flags: MW
LayerCount: 2
Fore
SplineSet
717 -197 m 5
 746 -166 768 -144 797 -96 c 4
 869 23 892 166 892 303 c 4
 892 668 729 784 717 803 c 5
 758 803 l 1
 826 742 950 603 950 304 c 0
 950 2 826 -136 758 -197 c 1
 717 -197 l 5
50 303 m 0
 50 603 173 742 241 803 c 1
 283 803 l 1
 254 772 231 750 202 701 c 0
 131 582 108 440 108 303 c 0
 108 -62 271 -178 283 -197 c 1
 241 -197 l 1
 177 -139 50 -1 50 303 c 0
529.400390625 509.5 m 1
 529.400390625 559.200195312 l 1
 820.599609375 558.5 l 1
 820.599609375 513 l 1
 721.900390625 399.599609375 665.900390625 245.599609375 665.900390625 92.2998046875 c 1
 606.400390625 92.2998046875 l 1
 606.400390625 231.599609375 654 382.799804688 773 509.5 c 1
 529.400390625 509.5 l 1
179.400390625 509.5 m 1
 179.400390625 559.200195312 l 1
 470.599609375 558.5 l 1
 470.599609375 513 l 1
 371.900390625 399.599609375 315.900390625 245.599609375 315.900390625 92.2998046875 c 1
 256.400390625 92.2998046875 l 1
 256.400390625 231.599609375 304 382.799804688 423 509.5 c 1
 179.400390625 509.5 l 1
EndSplineSet
EndChar
StartChar: uF26DF
Encoding: 992991 992991 1107
Width: 1000
Flags: MW
LayerCount: 2
Fore
SplineSet
717 -197 m 5
 746 -166 768 -144 797 -96 c 4
 869 23 892 166 892 303 c 4
 892 668 729 784 717 803 c 5
 758 803 l 1
 826 742 950 603 950 304 c 0
 950 2 826 -136 758 -197 c 1
 717 -197 l 5
50 303 m 0
 50 603 173 742 241 803 c 1
 283 803 l 1
 254 772 231 750 202 701 c 0
 131 582 108 440 108 303 c 0
 108 -62 271 -178 283 -197 c 1
 241 -197 l 1
 177 -139 50 -1 50 303 c 0
529.400390625 226 m 0xf2
 529.400390625 274.299804688 558.099609375 323.299804688 626.700195312 347.799804688 c 1
 572.099609375 363.900390625 539.200195312 406.599609375 539.200195312 451.400390625 c 0
 539.200195312 516.5 597.299804688 574.599609375 675 574.599609375 c 0
 676.400390625 574.599609375 677.099609375 574.599609375 678.5 574.599609375 c 4
 750.599609375 573.200195312 810.799804688 518.599609375 810.799804688 452.099609375 c 0xec
 810.799804688 410.099609375 784.900390625 369.5 723.299804688 347.799804688 c 1
 768.099609375 333.799804688 820.599609375 293.200195312 820.599609375 225.299804688 c 0
 820.599609375 151.799804688 757.599609375 84.599609375 675 84.599609375 c 0
 592.400390625 84.599609375 529.400390625 151.099609375 529.400390625 226 c 0xf2
586.099609375 226.700195312 m 0
 586.099609375 191.700195312 598 163.700195312 619 146.900390625 c 0
 633.700195312 135 652.599609375 128 675 128 c 0
 694.599609375 128 715.599609375 134.299804688 732.400390625 148.299804688 c 0
 750.599609375 163.700195312 763.900390625 189.599609375 763.900390625 227.400390625 c 0xf2
 763.900390625 233.700195312 763.200195312 240 762.5 246.299804688 c 0
 759 270.099609375 749.200195312 289.700195312 734.5 303.700195312 c 0
 719.099609375 318.400390625 698.799804688 326.099609375 674.299804688 326.099609375 c 0
 657.5 326.099609375 637.200195312 320.5 621.099609375 307.900390625 c 0
 604.299804688 294.599609375 590.299804688 274.299804688 586.799804688 243.5 c 0
 586.099609375 237.900390625 586.099609375 232.299804688 586.099609375 226.700195312 c 0
588.200195312 451.400390625 m 0
 588.200195312 425.5 598 404.5 614.099609375 390.5 c 0
 629.5 377.200195312 650.5 369.5 674.299804688 369.5 c 0
 698.099609375 369.5 718.400390625 376.5 733.099609375 388.400390625 c 0
 751.299804688 403.099609375 761.799804688 424.799804688 761.799804688 451.400390625 c 0
 761.799804688 458.400390625 761.099609375 465.400390625 759.700195312 471.700195312 c 0
 755.5 490.599609375 745 506.700195312 730.299804688 517.200195312 c 0
 715.599609375 527.700195312 696.700195312 533.299804688 675 533.299804688 c 0xec
 651.900390625 533.299804688 631.599609375 527 616.900390625 515.099609375 c 0
 601.5 502.5 591.700195312 485 588.900390625 463.299804688 c 0
 588.200195312 459.799804688 588.200195312 455.599609375 588.200195312 451.400390625 c 0
179.400390625 509.5 m 1
 179.400390625 559.200195312 l 1
 470.599609375 558.5 l 1
 470.599609375 513 l 1
 371.900390625 399.599609375 315.900390625 245.599609375 315.900390625 92.2998046875 c 1
 256.400390625 92.2998046875 l 1
 256.400390625 231.599609375 304 382.799804688 423 509.5 c 1
 179.400390625 509.5 l 1
EndSplineSet
EndChar
StartChar: uF26E1
Encoding: 992993 992993 1109
Width: 1000
Flags: MW
LayerCount: 2
Fore
SplineSet
717 -197 m 5
 746 -166 768 -144 797 -96 c 4
 869 23 892 166 892 303 c 4
 892 668 729 784 717 803 c 5
 758 803 l 1
 826 742 950 603 950 304 c 0
 950 2 826 -136 758 -197 c 1
 717 -197 l 5
50 303 m 0
 50 603 173 742 241 803 c 1
 283 803 l 1
 254 772 231 750 202 701 c 0
 131 582 108 440 108 303 c 0
 108 -62 271 -178 283 -197 c 1
 241 -197 l 1
 177 -139 50 -1 50 303 c 0
529.400390625 317 m 2
 529.400390625 330.299804688 l 2
 529.400390625 398.900390625 533.599609375 530.5 630.200195312 566.200195312 c 0
 642.799804688 571.099609375 657.5 574.599609375 675 574.599609375 c 0
 711.400390625 574.599609375 746.400390625 558.5 770.200195312 531.200195312 c 0
 812.200195312 483.599609375 819.200195312 403.099609375 820.599609375 352 c 0
 820.599609375 342.900390625 820.599609375 334.5 820.599609375 327.5 c 0
 820.599609375 185.400390625 784.900390625 116.799804688 718.400390625 92.2998046875 c 0
 706.5 87.400390625 693.200195312 84.599609375 675 84.599609375 c 0
 616.900390625 84.599609375 530.099609375 118.200195312 529.400390625 317 c 2
584 315.599609375 m 2
 584 200.099609375 612 153.900390625 641.400390625 136.400390625 c 4
 653.299804688 129.400390625 664.5 127.299804688 675 127.299804688 c 0
 689 127.299804688 707.200195312 131.5 722.599609375 146.200195312 c 0
 746.400390625 169.299804688 766 217.599609375 766 316.299804688 c 2
 766 359 l 2
 766 427.599609375 755.5 469.599609375 739.400390625 494.799804688 c 0
 720.5 524.900390625 695.299804688 531.200195312 675 531.200195312 c 0
 638.599609375 531.200195312 584 508.099609375 584 359 c 2
 584 315.599609375 l 2
179.400390625 226 m 0xf2
 179.400390625 274.299804688 207.400390625 323.299804688 276 347.799804688 c 1
 221.400390625 363.900390625 189.200195312 406.599609375 189.200195312 451.400390625 c 0
 189.200195312 516.5 247.299804688 574.599609375 325 574.599609375 c 0
 326.400390625 574.599609375 326.400390625 574.599609375 327.799804688 574.599609375 c 4
 399.900390625 573.200195312 460.799804688 518.599609375 460.799804688 452.099609375 c 0xec
 460.799804688 410.099609375 434.200195312 369.5 372.599609375 347.799804688 c 1
 417.400390625 333.799804688 470.599609375 293.200195312 470.599609375 225.299804688 c 0
 470.599609375 151.799804688 407.599609375 84.599609375 325 84.599609375 c 0
 242.400390625 84.599609375 179.400390625 151.099609375 179.400390625 226 c 0xf2
235.400390625 226.700195312 m 0
 235.400390625 191.700195312 248 163.700195312 269 146.900390625 c 0
 283.700195312 135 302.599609375 128 325 128 c 0
 344.599609375 128 365.599609375 134.299804688 382.400390625 148.299804688 c 0
 400.599609375 163.700195312 413.200195312 189.599609375 413.200195312 227.400390625 c 0xf2
 413.200195312 233.700195312 412.5 240 411.799804688 246.299804688 c 0
 408.299804688 270.099609375 398.5 289.700195312 383.799804688 303.700195312 c 0
 368.400390625 318.400390625 348.099609375 326.099609375 323.599609375 326.099609375 c 0
 306.799804688 326.099609375 286.5 320.5 270.400390625 307.900390625 c 0
 253.599609375 294.599609375 240.299804688 274.299804688 236.799804688 243.5 c 0
 236.099609375 237.900390625 235.400390625 232.299804688 235.400390625 226.700195312 c 0
238.200195312 451.400390625 m 0
 238.200195312 425.5 247.299804688 404.5 263.400390625 390.5 c 0
 278.799804688 377.200195312 299.799804688 369.5 323.599609375 369.5 c 0
 347.400390625 369.5 367.700195312 376.5 382.400390625 388.400390625 c 0
 400.599609375 403.099609375 411.799804688 424.799804688 411.799804688 451.400390625 c 0
 411.799804688 458.400390625 410.400390625 465.400390625 409 471.700195312 c 0
 404.799804688 490.599609375 394.299804688 506.700195312 379.599609375 517.200195312 c 0
 364.900390625 527.700195312 346.700195312 533.299804688 325 533.299804688 c 0xec
 301.900390625 533.299804688 280.900390625 527 266.200195312 515.099609375 c 0
 250.799804688 502.5 241 485 238.200195312 463.299804688 c 0
 237.5 459.799804688 238.200195312 455.599609375 238.200195312 451.400390625 c 0
EndSplineSet
EndChar
StartChar: uF26E5
Encoding: 992997 992997 1113
Width: 1000
Flags: MW
LayerCount: 2
Fore
SplineSet
717 -197 m 5
 746 -166 768 -144 797 -96 c 4
 869 23 892 166 892 303 c 4
 892 668 729 784 717 803 c 5
 758 803 l 1
 826 742 950 603 950 304 c 0
 950 2 826 -136 758 -197 c 1
 717 -197 l 5
50 303 m 0
 50 603 173 742 241 803 c 1
 283 803 l 1
 254 772 231 750 202 701 c 0
 131 582 108 440 108 303 c 0
 108 -62 271 -178 283 -197 c 1
 241 -197 l 1
 177 -139 50 -1 50 303 c 0
514.700195312 219.700195312 m 1
 514.700195312 253.299804688 l 0
 514.700195312 262.400390625 515.400390625 263.799804688 522.400390625 275 c 2
 691.799804688 558.5 l 1
 756.200195312 558.5 l 1
 756.200195312 262.400390625 l 1xe8
 825.5 262.400390625 l 1
 825.5 219.700195312 l 1
 756.200195312 219.700195312 l 1
 756.200195312 100 l 1
 700.200195312 100 l 1
 700.200195312 219.700195312 l 1xf0
 514.700195312 219.700195312 l 1
569.299804688 262.400390625 m 1
 704.400390625 262.400390625 l 1xe8
 704.400390625 532.599609375 l 1
 695.299804688 476.599609375 658.900390625 414.299804688 569.299804688 262.400390625 c 1
174.5 226 m 0xf2
 174.5 274.299804688 203.200195312 323.299804688 271.799804688 347.799804688 c 1
 217.200195312 363.900390625 184.299804688 406.599609375 184.299804688 451.400390625 c 0
 184.299804688 516.5 242.400390625 574.599609375 320.099609375 574.599609375 c 0
 321.5 574.599609375 322.200195312 574.599609375 323.599609375 574.599609375 c 4
 395.700195312 573.200195312 455.900390625 518.599609375 455.900390625 452.099609375 c 0xec
 455.900390625 410.099609375 430 369.5 368.400390625 347.799804688 c 1
 413.200195312 333.799804688 465.700195312 293.200195312 465.700195312 225.299804688 c 0
 465.700195312 151.799804688 402.700195312 84.599609375 320.099609375 84.599609375 c 0
 237.5 84.599609375 174.5 151.099609375 174.5 226 c 0xf2
231.200195312 226.700195312 m 0
 231.200195312 191.700195312 243.099609375 163.700195312 264.099609375 146.900390625 c 0
 278.799804688 135 297.700195312 128 320.099609375 128 c 0
 339.700195312 128 360.700195312 134.299804688 377.5 148.299804688 c 0
 395.700195312 163.700195312 409 189.599609375 409 227.400390625 c 0xf2
 409 233.700195312 408.299804688 240 407.599609375 246.299804688 c 0
 404.099609375 270.099609375 394.299804688 289.700195312 379.599609375 303.700195312 c 0
 364.200195312 318.400390625 343.900390625 326.099609375 319.400390625 326.099609375 c 0
 302.599609375 326.099609375 282.299804688 320.5 266.200195312 307.900390625 c 0
 249.400390625 294.599609375 235.400390625 274.299804688 231.900390625 243.5 c 0
 231.200195312 237.900390625 231.200195312 232.299804688 231.200195312 226.700195312 c 0
233.299804688 451.400390625 m 0
 233.299804688 425.5 243.099609375 404.5 259.200195312 390.5 c 0
 274.599609375 377.200195312 295.599609375 369.5 319.400390625 369.5 c 0
 343.200195312 369.5 363.5 376.5 378.200195312 388.400390625 c 0
 396.400390625 403.099609375 406.900390625 424.799804688 406.900390625 451.400390625 c 0
 406.900390625 458.400390625 406.200195312 465.400390625 404.799804688 471.700195312 c 0
 400.599609375 490.599609375 390.099609375 506.700195312 375.400390625 517.200195312 c 0
 360.700195312 527.700195312 341.799804688 533.299804688 320.099609375 533.299804688 c 0xec
 297 533.299804688 276.700195312 527 262 515.099609375 c 0
 246.599609375 502.5 236.799804688 485 234 463.299804688 c 0
 233.299804688 459.799804688 233.299804688 455.599609375 233.299804688 451.400390625 c 0
EndSplineSet
EndChar
StartChar: uF26E6
Encoding: 992998 992998 1114
Width: 1000
Flags: MW
LayerCount: 2
Fore
SplineSet
717 -197 m 5
 746 -166 768 -144 797 -96 c 4
 869 23 892 166 892 303 c 4
 892 668 729 784 717 803 c 5
 758 803 l 1
 826 742 950 603 950 304 c 0
 950 2 826 -136 758 -197 c 1
 717 -197 l 5
50 303 m 0
 50 603 173 742 241 803 c 1
 283 803 l 1
 254 772 231 750 202 701 c 0
 131 582 108 440 108 303 c 0
 108 -62 271 -178 283 -197 c 1
 241 -197 l 1
 177 -139 50 -1 50 303 c 0
530.099609375 153.200195312 m 1
 553.900390625 192.400390625 l 1
 556.700195312 187.5 560.200195312 183.299804688 563 179.099609375 c 0
 575.599609375 162.299804688 590.299804688 150.400390625 604.299804688 142.700195312 c 0
 627.400390625 130.099609375 650.5 128 663.099609375 128 c 0
 684.099609375 128 711.400390625 136.400390625 731 160.900390625 c 0
 745 178.400390625 754.799804688 205 754.799804688 243.5 c 0
 754.799804688 251.200195312 754.799804688 258.900390625 754.099609375 265.900390625 c 0
 751.299804688 298.799804688 740.799804688 320.5 728.900390625 334.5 c 0
 714.900390625 350.599609375 697.400390625 356.200195312 683.400390625 356.200195312 c 0
 628.099609375 356.200195312 606.400390625 300.200195312 606.400390625 300.200195312 c 1
 558.799804688 300.200195312 l 1
 558.799804688 558.5 l 1
 794.700195312 558.5 l 1
 794.700195312 513.700195312 l 1
 609.900390625 513.700195312 l 1
 609.900390625 370.200195312 l 1
 633 387.700195312 651.900390625 398.900390625 684.799804688 398.900390625 c 0
 719.099609375 398.900390625 750.599609375 383.5 775.099609375 356.900390625 c 4
 801 328.900390625 817.799804688 289 817.799804688 242.799804688 c 0
 817.799804688 198 800.299804688 157.400390625 770.900390625 128.700195312 c 0
 743.599609375 101.400390625 705.799804688 84.599609375 663.799804688 84.599609375 c 0
 634.400390625 84.599609375 606.400390625 92.2998046875 581.900390625 106.299804688 c 0
 561.599609375 118.200195312 543.400390625 134.299804688 530.099609375 153.200195312 c 1
182.200195312 226 m 0xf2
 182.200195312 274.299804688 210.900390625 323.299804688 279.5 347.799804688 c 1
 224.900390625 363.900390625 192 406.599609375 192 451.400390625 c 0
 192 516.5 250.099609375 574.599609375 327.799804688 574.599609375 c 0
 329.200195312 574.599609375 329.900390625 574.599609375 331.299804688 574.599609375 c 4
 403.400390625 573.200195312 463.599609375 518.599609375 463.599609375 452.099609375 c 0xec
 463.599609375 410.099609375 437.700195312 369.5 376.099609375 347.799804688 c 1
 420.900390625 333.799804688 473.400390625 293.200195312 473.400390625 225.299804688 c 0
 473.400390625 151.799804688 410.400390625 84.599609375 327.799804688 84.599609375 c 0
 245.200195312 84.599609375 182.200195312 151.099609375 182.200195312 226 c 0xf2
238.900390625 226.700195312 m 0
 238.900390625 191.700195312 250.799804688 163.700195312 271.799804688 146.900390625 c 0
 286.5 135 305.400390625 128 327.799804688 128 c 0
 347.400390625 128 368.400390625 134.299804688 385.200195312 148.299804688 c 0
 403.400390625 163.700195312 416.700195312 189.599609375 416.700195312 227.400390625 c 0xf2
 416.700195312 233.700195312 416 240 415.299804688 246.299804688 c 0
 411.799804688 270.099609375 402 289.700195312 387.299804688 303.700195312 c 0
 371.900390625 318.400390625 351.599609375 326.099609375 327.099609375 326.099609375 c 0
 310.299804688 326.099609375 290 320.5 273.900390625 307.900390625 c 0
 257.099609375 294.599609375 243.099609375 274.299804688 239.599609375 243.5 c 0
 238.900390625 237.900390625 238.900390625 232.299804688 238.900390625 226.700195312 c 0
241 451.400390625 m 0
 241 425.5 250.799804688 404.5 266.900390625 390.5 c 0
 282.299804688 377.200195312 303.299804688 369.5 327.099609375 369.5 c 0
 350.900390625 369.5 371.200195312 376.5 385.900390625 388.400390625 c 0
 404.099609375 403.099609375 414.599609375 424.799804688 414.599609375 451.400390625 c 0
 414.599609375 458.400390625 413.900390625 465.400390625 412.5 471.700195312 c 0
 408.299804688 490.599609375 397.799804688 506.700195312 383.099609375 517.200195312 c 0
 368.400390625 527.700195312 349.5 533.299804688 327.799804688 533.299804688 c 0xec
 304.700195312 533.299804688 284.400390625 527 269.700195312 515.099609375 c 0
 254.299804688 502.5 244.5 485 241.700195312 463.299804688 c 0
 241 459.799804688 241 455.599609375 241 451.400390625 c 0
EndSplineSet
EndChar
StartChar: uF26E7
Encoding: 992999 992999 1115
Width: 1000
Flags: MW
LayerCount: 2
Fore
SplineSet
717 -197 m 5
 746 -166 768 -144 797 -96 c 4
 869 23 892 166 892 303 c 4
 892 668 729 784 717 803 c 5
 758 803 l 1
 826 742 950 603 950 304 c 0
 950 2 826 -136 758 -197 c 1
 717 -197 l 5
50 303 m 0
 50 603 173 742 241 803 c 1
 283 803 l 1
 254 772 231 750 202 701 c 0
 131 582 108 440 108 303 c 0
 108 -62 271 -178 283 -197 c 1
 241 -197 l 1
 177 -139 50 -1 50 303 c 0
530.099609375 326.099609375 m 0
 530.099609375 396.099609375 549.700195312 459.099609375 584 503.900390625 c 0
 616.900390625 548 663.799804688 574.599609375 717 574.599609375 c 0
 752 574.599609375 773.700195312 566.900390625 791.900390625 560.599609375 c 1
 791.900390625 518.599609375 l 1
 773 524.900390625 752 533.299804688 717 533.299804688 c 0
 678.5 533.299804688 649.799804688 513.700195312 628.799804688 485.700195312 c 0
 603.599609375 452.099609375 591 405.200195312 588.900390625 366 c 1
 618.299804688 403.099609375 663.099609375 423.400390625 707.200195312 423.400390625 c 0
 742.900390625 423.400390625 763.900390625 407.299804688 783.5 380.700195312 c 0
 809.400390625 344.299804688 819.200195312 309.299804688 820.599609375 268.700195312 c 0
 820.599609375 264.5 820.599609375 261 820.599609375 256.799804688 c 0
 820.599609375 202.200195312 807.299804688 165.099609375 772.299804688 128 c 0
 744.299804688 97.900390625 714.900390625 84.599609375 677.099609375 84.599609375 c 0
 643.5 84.599609375 600.799804688 97.900390625 570 145.5 c 0
 546.200195312 181.900390625 530.099609375 239.299804688 530.099609375 326.099609375 c 0
590.299804688 272.900390625 m 0
 590.299804688 266.599609375 590.299804688 260.299804688 591 254 c 0
 596.599609375 202.200195312 611.299804688 128 676.400390625 128 c 0
 729.599609375 128 752.700195312 174.900390625 759.700195312 205.700195312 c 0
 762.5 221.099609375 763.200195312 236.5 763.200195312 252.599609375 c 0
 763.200195312 262.400390625 763.200195312 270.799804688 762.5 278.5 c 0
 761.099609375 305.799804688 756.200195312 324 743.599609375 344.299804688 c 0
 722.599609375 377.200195312 696 380.700195312 679.900390625 380.700195312 c 0
 633 380.700195312 600.799804688 343.599609375 592.400390625 296 c 4
 591 288.299804688 590.299804688 280.599609375 590.299804688 272.900390625 c 0
179.400390625 226 m 0xf2
 179.400390625 274.299804688 208.099609375 323.299804688 276.700195312 347.799804688 c 1
 222.099609375 363.900390625 189.200195312 406.599609375 189.200195312 451.400390625 c 0
 189.200195312 516.5 247.299804688 574.599609375 325 574.599609375 c 0
 326.400390625 574.599609375 327.099609375 574.599609375 328.5 574.599609375 c 4
 400.599609375 573.200195312 460.799804688 518.599609375 460.799804688 452.099609375 c 0xec
 460.799804688 410.099609375 434.900390625 369.5 373.299804688 347.799804688 c 1
 418.099609375 333.799804688 470.599609375 293.200195312 470.599609375 225.299804688 c 0
 470.599609375 151.799804688 407.599609375 84.599609375 325 84.599609375 c 0
 242.400390625 84.599609375 179.400390625 151.099609375 179.400390625 226 c 0xf2
236.099609375 226.700195312 m 0
 236.099609375 191.700195312 248 163.700195312 269 146.900390625 c 0
 283.700195312 135 302.599609375 128 325 128 c 0
 344.599609375 128 365.599609375 134.299804688 382.400390625 148.299804688 c 0
 400.599609375 163.700195312 413.900390625 189.599609375 413.900390625 227.400390625 c 0xf2
 413.900390625 233.700195312 413.200195312 240 412.5 246.299804688 c 0
 409 270.099609375 399.200195312 289.700195312 384.5 303.700195312 c 0
 369.099609375 318.400390625 348.799804688 326.099609375 324.299804688 326.099609375 c 0
 307.5 326.099609375 287.200195312 320.5 271.099609375 307.900390625 c 0
 254.299804688 294.599609375 240.299804688 274.299804688 236.799804688 243.5 c 0
 236.099609375 237.900390625 236.099609375 232.299804688 236.099609375 226.700195312 c 0
238.200195312 451.400390625 m 0
 238.200195312 425.5 248 404.5 264.099609375 390.5 c 0
 279.5 377.200195312 300.5 369.5 324.299804688 369.5 c 0
 348.099609375 369.5 368.400390625 376.5 383.099609375 388.400390625 c 0
 401.299804688 403.099609375 411.799804688 424.799804688 411.799804688 451.400390625 c 0
 411.799804688 458.400390625 411.099609375 465.400390625 409.700195312 471.700195312 c 0
 405.5 490.599609375 395 506.700195312 380.299804688 517.200195312 c 0
 365.599609375 527.700195312 346.700195312 533.299804688 325 533.299804688 c 0xec
 301.900390625 533.299804688 281.599609375 527 266.900390625 515.099609375 c 0
 251.5 502.5 241.700195312 485 238.900390625 463.299804688 c 0
 238.200195312 459.799804688 238.200195312 455.599609375 238.200195312 451.400390625 c 0
EndSplineSet
EndChar
StartChar: uF26EB
Encoding: 993003 993003 1119
Width: 1000
Flags: MW
LayerCount: 2
Fore
SplineSet
717 -197 m 5
 746 -166 768 -144 797 -96 c 4
 869 23 892 166 892 303 c 4
 892 668 729 784 717 803 c 5
 758 803 l 1
 826 742 950 603 950 304 c 0
 950 2 826 -136 758 -197 c 1
 717 -197 l 5
50 303 m 0
 50 603 173 742 241 803 c 1
 283 803 l 1
 254 772 231 750 202 701 c 0
 131 582 108 440 108 303 c 0
 108 -62 271 -178 283 -197 c 1
 241 -197 l 1
 177 -139 50 -1 50 303 c 0
528.700195312 317 m 2
 528.700195312 330.299804688 l 2
 528.700195312 398.900390625 533.599609375 530.5 630.200195312 566.200195312 c 0
 642.799804688 571.099609375 656.799804688 574.599609375 674.299804688 574.599609375 c 0
 710.700195312 574.599609375 745.700195312 558.5 769.5 531.200195312 c 0
 811.5 483.599609375 819.200195312 403.099609375 820.599609375 352 c 0
 820.599609375 342.900390625 820.599609375 334.5 820.599609375 327.5 c 0
 820.599609375 185.400390625 784.900390625 116.799804688 718.400390625 92.2998046875 c 0
 706.5 87.400390625 692.5 84.599609375 674.299804688 84.599609375 c 0
 616.200195312 84.599609375 529.400390625 118.200195312 528.700195312 317 c 2
583.299804688 315.599609375 m 2
 583.299804688 200.099609375 611.299804688 153.900390625 640.700195312 136.400390625 c 4
 652.599609375 129.400390625 664.5 127.299804688 675 127.299804688 c 0
 689 127.299804688 706.5 131.5 721.900390625 146.200195312 c 0
 745.700195312 169.299804688 766 217.599609375 766 316.299804688 c 2
 766 359 l 2
 766 427.599609375 754.799804688 469.599609375 738.700195312 494.799804688 c 0
 719.799804688 524.900390625 694.599609375 531.200195312 674.299804688 531.200195312 c 0
 637.900390625 531.200195312 583.299804688 508.099609375 583.299804688 359 c 2
 583.299804688 315.599609375 l 2
179.400390625 404.5 m 0
 179.400390625 455.599609375 192.700195312 494.099609375 229.799804688 532.599609375 c 0
 259.200195312 562 287.900390625 574.599609375 326.400390625 574.599609375 c 0
 353.700195312 574.599609375 387.299804688 565.5 415.299804688 534.700195312 c 0
 446.099609375 500.400390625 469.900390625 439.5 469.900390625 333.099609375 c 0
 469.900390625 254 445.400390625 186.799804688 408.299804688 142.700195312 c 0
 377.5 105.599609375 336.900390625 84.599609375 293.5 84.599609375 c 0
 250.099609375 84.599609375 225.599609375 97.900390625 200.400390625 116.799804688 c 1
 222.099609375 154.599609375 l 1
 238.200195312 143.400390625 255.700195312 128 294.900390625 128 c 0
 328.5 128 358.599609375 146.900390625 380.299804688 183.299804688 c 0
 393.599609375 206.400390625 404.099609375 235.799804688 409 271.5 c 0
 409.700195312 278.5 410.400390625 285.5 411.099609375 293.200195312 c 1
 380.299804688 256.799804688 340.400390625 235.099609375 292.799804688 235.099609375 c 0
 256.400390625 235.099609375 236.099609375 251.200195312 217.200195312 277.799804688 c 0
 187.799804688 318.400390625 179.400390625 356.200195312 179.400390625 404.5 c 0
236.799804688 404.5 m 0
 236.799804688 366.700195312 238.900390625 340.099609375 259.200195312 310.700195312 c 0
 272.5 291.799804688 290.700195312 278.5 320.099609375 278.5 c 0
 346.700195312 278.5 369.799804688 291.099609375 385.200195312 310.700195312 c 4
 400.599609375 330.299804688 409.700195312 357.599609375 409.700195312 387 c 0
 409.700195312 433.200195312 396.400390625 532.599609375 327.099609375 532.599609375 c 0
 307.5 532.599609375 291.400390625 526.299804688 278.799804688 516.5 c 0
 257.099609375 499.700195312 245.200195312 473.799804688 241 454.900390625 c 0
 236.799804688 438.099609375 236.799804688 422 236.799804688 404.5 c 0
EndSplineSet
EndChar
StartChar: uF26EE
Encoding: 993006 993006 1122
Width: 1000
Flags: MW
LayerCount: 2
Fore
SplineSet
717 -197 m 5
 746 -166 768 -144 797 -96 c 4
 869 23 892 166 892 303 c 4
 892 668 729 784 717 803 c 5
 758 803 l 1
 826 742 950 603 950 304 c 0
 950 2 826 -136 758 -197 c 1
 717 -197 l 5
50 303 m 0
 50 603 173 742 241 803 c 1
 283 803 l 1
 254 772 231 750 202 701 c 0
 131 582 108 440 108 303 c 0
 108 -62 271 -178 283 -197 c 1
 241 -197 l 1
 177 -139 50 -1 50 303 c 0
529.400390625 156.700195312 m 1
 536.400390625 199.400390625 l 1
 559.5 167.900390625 586.799804688 150.400390625 610.599609375 140.599609375 c 0
 637.200195312 129.400390625 660.299804688 128 670.799804688 128 c 0
 697.400390625 128 718.400390625 139.200195312 733.799804688 157.400390625 c 0
 748.5 174.900390625 757.599609375 199.400390625 757.599609375 227.400390625 c 0xe8
 757.599609375 234.400390625 757.599609375 241.400390625 756.200195312 248.400390625 c 0
 752.700195312 272.200195312 740.799804688 293.200195312 724 307.200195312 c 0
 710 319.099609375 691.799804688 326.099609375 668 326.099609375 c 2
 616.200195312 326.099609375 l 1
 616.200195312 369.5 l 1
 656.799804688 372.299804688 661.700195312 373 666.599609375 373.700195312 c 0
 712.799804688 382.099609375 743.599609375 424.799804688 743.599609375 467.5 c 0
 743.599609375 486.400390625 735.900390625 503.200195312 724 514.400390625 c 0
 711.400390625 526.299804688 693.900390625 532.599609375 672.200195312 532.599609375 c 0
 652.599609375 532.599609375 633 527 616.200195312 517.900390625 c 0
 600.099609375 508.799804688 586.099609375 496.200195312 575.599609375 480.099609375 c 0
 571.400390625 473.799804688 567.900390625 466.799804688 564.400390625 459.799804688 c 1
 539.200195312 498.299804688 l 1
 557.400390625 526.299804688 577.700195312 544.5 598 555.700195312 c 0
 628.099609375 572.5 657.5 574.599609375 673.599609375 574.599609375 c 0
 704.400390625 574.599609375 734.5 564.799804688 757.599609375 548 c 0
 783.5 529.099609375 801 501.099609375 801 467.5 c 0xf0
 801 447.900390625 795.400390625 418.5 773 389.799804688 c 0
 761.099609375 375.099609375 745 360.400390625 722.599609375 347.799804688 c 1
 749.900390625 338 771.599609375 324 787 307.200195312 c 0
 809.400390625 283.400390625 820.599609375 254.700195312 820.599609375 226 c 0
 820.599609375 188.900390625 803.099609375 149.700195312 771.599609375 121.700195312 c 4
 746.400390625 99.2998046875 713.5 84.599609375 672.200195312 84.599609375 c 0
 659.599609375 84.599609375 629.5 86 596.599609375 101.400390625 c 0
 574.200195312 111.900390625 551.099609375 129.400390625 529.400390625 156.700195312 c 1
179.400390625 404.5 m 0
 179.400390625 455.599609375 192.700195312 494.099609375 229.799804688 532.599609375 c 0
 259.200195312 562 287.900390625 574.599609375 326.400390625 574.599609375 c 0
 353.700195312 574.599609375 388 565.5 416 534.700195312 c 0
 446.799804688 500.400390625 470.599609375 439.5 470.599609375 333.099609375 c 0
 470.599609375 254 446.099609375 186.799804688 409 142.700195312 c 0
 378.200195312 105.599609375 337.599609375 84.599609375 294.200195312 84.599609375 c 0
 250.799804688 84.599609375 225.599609375 97.900390625 200.400390625 116.799804688 c 1
 222.799804688 154.599609375 l 1
 238.900390625 143.400390625 256.400390625 128 295.599609375 128 c 0
 329.200195312 128 359.299804688 146.900390625 381 183.299804688 c 0
 394.299804688 206.400390625 404.099609375 235.799804688 409 271.5 c 0
 409.700195312 278.5 411.099609375 285.5 411.799804688 293.200195312 c 1
 381 256.799804688 340.400390625 235.099609375 292.799804688 235.099609375 c 0
 256.400390625 235.099609375 236.099609375 251.200195312 217.200195312 277.799804688 c 0
 187.799804688 318.400390625 179.400390625 356.200195312 179.400390625 404.5 c 0
236.799804688 404.5 m 0
 236.799804688 366.700195312 238.900390625 340.099609375 259.200195312 310.700195312 c 0
 272.5 291.799804688 291.400390625 278.5 320.799804688 278.5 c 0
 347.400390625 278.5 369.799804688 291.099609375 385.200195312 310.700195312 c 4
 400.599609375 330.299804688 410.400390625 357.599609375 410.400390625 387 c 0
 410.400390625 433.200195312 397.099609375 532.599609375 327.799804688 532.599609375 c 0
 308.200195312 532.599609375 291.400390625 526.299804688 278.799804688 516.5 c 0
 257.099609375 499.700195312 245.200195312 473.799804688 241 454.900390625 c 0
 236.799804688 438.099609375 236.799804688 422 236.799804688 404.5 c 0
EndSplineSet
EndChar
StartChar: uF26EF
Encoding: 993007 993007 1123
Width: 1000
Flags: MW
LayerCount: 2
Fore
SplineSet
717 -197 m 5
 746 -166 768 -144 797 -96 c 4
 869 23 892 166 892 303 c 4
 892 668 729 784 717 803 c 5
 758 803 l 1
 826 742 950 603 950 304 c 0
 950 2 826 -136 758 -197 c 1
 717 -197 l 5
50 303 m 0
 50 603 173 742 241 803 c 1
 283 803 l 1
 254 772 231 750 202 701 c 0
 131 582 108 440 108 303 c 0
 108 -62 271 -178 283 -197 c 1
 241 -197 l 1
 177 -139 50 -1 50 303 c 0
514 219.700195312 m 1
 514 253.299804688 l 0
 514 262.400390625 515.400390625 263.799804688 522.400390625 275 c 2
 691.799804688 558.5 l 1
 756.200195312 558.5 l 1
 756.200195312 262.400390625 l 1xe8
 824.799804688 262.400390625 l 1
 824.799804688 219.700195312 l 1
 756.200195312 219.700195312 l 1
 756.200195312 100 l 1
 700.200195312 100 l 1
 700.200195312 219.700195312 l 1xf0
 514 219.700195312 l 1
568.599609375 262.400390625 m 1
 704.400390625 262.400390625 l 1xe8
 704.400390625 532.599609375 l 1
 695.299804688 476.599609375 658.200195312 414.299804688 568.599609375 262.400390625 c 1
175.200195312 404.5 m 0
 175.200195312 455.599609375 188.5 494.099609375 225.599609375 532.599609375 c 0
 255 562 283.700195312 574.599609375 322.200195312 574.599609375 c 0
 349.5 574.599609375 382.400390625 565.5 410.400390625 534.700195312 c 0
 441.200195312 500.400390625 465 439.5 465 333.099609375 c 0
 465 254 440.5 186.799804688 403.400390625 142.700195312 c 0
 372.599609375 105.599609375 332 84.599609375 288.599609375 84.599609375 c 0
 245.200195312 84.599609375 221.400390625 97.900390625 196.200195312 116.799804688 c 1
 217.200195312 154.599609375 l 1
 233.299804688 143.400390625 250.799804688 128 290 128 c 0
 323.599609375 128 353.700195312 146.900390625 375.400390625 183.299804688 c 0
 388.700195312 206.400390625 399.900390625 235.799804688 404.799804688 271.5 c 0
 405.5 278.5 405.5 285.5 406.200195312 293.200195312 c 1
 375.400390625 256.799804688 336.200195312 235.099609375 288.599609375 235.099609375 c 0
 252.200195312 235.099609375 231.900390625 251.200195312 213 277.799804688 c 0
 183.599609375 318.400390625 175.200195312 356.200195312 175.200195312 404.5 c 0
232.599609375 404.5 m 0
 232.599609375 366.700195312 234.700195312 340.099609375 255 310.700195312 c 0
 268.299804688 291.799804688 285.799804688 278.5 315.200195312 278.5 c 0
 341.799804688 278.5 365.599609375 291.099609375 381 310.700195312 c 4
 396.400390625 330.299804688 404.799804688 357.599609375 404.799804688 387 c 0
 404.799804688 433.200195312 391.5 532.599609375 322.200195312 532.599609375 c 0
 302.599609375 532.599609375 287.200195312 526.299804688 274.599609375 516.5 c 0
 252.900390625 499.700195312 241 473.799804688 236.799804688 454.900390625 c 0
 232.599609375 438.099609375 232.599609375 422 232.599609375 404.5 c 0
EndSplineSet
EndChar
StartChar: uF26F0
Encoding: 993008 993008 1124
Width: 1000
Flags: MW
LayerCount: 2
Fore
SplineSet
717 -197 m 5
 746 -166 768 -144 797 -96 c 4
 869 23 892 166 892 303 c 4
 892 668 729 784 717 803 c 5
 758 803 l 1
 826 742 950 603 950 304 c 0
 950 2 826 -136 758 -197 c 1
 717 -197 l 5
50 303 m 0
 50 603 173 742 241 803 c 1
 283 803 l 1
 254 772 231 750 202 701 c 0
 131 582 108 440 108 303 c 0
 108 -62 271 -178 283 -197 c 1
 241 -197 l 1
 177 -139 50 -1 50 303 c 0
529.400390625 153.200195312 m 1
 553.200195312 192.400390625 l 1
 556 187.5 560.200195312 183.299804688 563 179.099609375 c 0
 575.599609375 162.299804688 589.599609375 150.400390625 603.599609375 142.700195312 c 0
 626.700195312 130.099609375 649.799804688 128 662.400390625 128 c 0
 683.400390625 128 711.400390625 136.400390625 731 160.900390625 c 0
 745 178.400390625 754.799804688 205 754.799804688 243.5 c 0
 754.799804688 251.200195312 754.099609375 258.900390625 753.400390625 265.900390625 c 0
 750.599609375 298.799804688 740.099609375 320.5 728.200195312 334.5 c 0
 714.200195312 350.599609375 697.400390625 356.200195312 683.400390625 356.200195312 c 0
 628.099609375 356.200195312 606.400390625 300.200195312 606.400390625 300.200195312 c 1
 558.799804688 300.200195312 l 1
 558.799804688 558.5 l 1
 794 558.5 l 1
 794 513.700195312 l 1
 609.200195312 513.700195312 l 1
 609.200195312 370.200195312 l 1
 632.299804688 387.700195312 651.900390625 398.900390625 684.799804688 398.900390625 c 0
 719.099609375 398.900390625 749.900390625 383.5 774.400390625 356.900390625 c 4
 800.299804688 328.900390625 817.799804688 289 817.799804688 242.799804688 c 0
 817.799804688 198 799.599609375 157.400390625 770.200195312 128.700195312 c 0
 742.900390625 101.400390625 705.799804688 84.599609375 663.799804688 84.599609375 c 0
 634.400390625 84.599609375 605.700195312 92.2998046875 581.200195312 106.299804688 c 0
 560.900390625 118.200195312 542.700195312 134.299804688 529.400390625 153.200195312 c 1
182.200195312 404.5 m 0
 182.200195312 455.599609375 195.5 494.099609375 232.599609375 532.599609375 c 0
 262 562 290.700195312 574.599609375 329.200195312 574.599609375 c 0
 356.5 574.599609375 390.799804688 565.5 418.799804688 534.700195312 c 0
 449.599609375 500.400390625 473.400390625 439.5 473.400390625 333.099609375 c 0
 473.400390625 254 448.900390625 186.799804688 411.799804688 142.700195312 c 0
 381 105.599609375 340.400390625 84.599609375 297 84.599609375 c 0
 253.599609375 84.599609375 228.400390625 97.900390625 203.200195312 116.799804688 c 1
 225.599609375 154.599609375 l 1
 241.700195312 143.400390625 259.200195312 128 298.400390625 128 c 0
 332 128 362.099609375 146.900390625 383.799804688 183.299804688 c 0
 397.099609375 206.400390625 406.900390625 235.799804688 411.799804688 271.5 c 0
 412.5 278.5 413.900390625 285.5 414.599609375 293.200195312 c 1
 383.799804688 256.799804688 343.200195312 235.099609375 295.599609375 235.099609375 c 0
 259.200195312 235.099609375 238.900390625 251.200195312 220 277.799804688 c 0
 190.599609375 318.400390625 182.200195312 356.200195312 182.200195312 404.5 c 0
239.599609375 404.5 m 0
 239.599609375 366.700195312 241.700195312 340.099609375 262 310.700195312 c 0
 275.299804688 291.799804688 294.200195312 278.5 323.599609375 278.5 c 0
 350.200195312 278.5 372.599609375 291.099609375 388 310.700195312 c 4
 403.400390625 330.299804688 413.200195312 357.599609375 413.200195312 387 c 0
 413.200195312 433.200195312 399.900390625 532.599609375 330.599609375 532.599609375 c 0
 311 532.599609375 294.200195312 526.299804688 281.599609375 516.5 c 0
 259.900390625 499.700195312 248 473.799804688 243.799804688 454.900390625 c 0
 239.599609375 438.099609375 239.599609375 422 239.599609375 404.5 c 0
EndSplineSet
EndChar
StartChar: uF26F1
Encoding: 993009 993009 1125
Width: 1000
Flags: MW
LayerCount: 2
Fore
SplineSet
717 -197 m 5
 746 -166 768 -144 797 -96 c 4
 869 23 892 166 892 303 c 4
 892 668 729 784 717 803 c 5
 758 803 l 1
 826 742 950 603 950 304 c 0
 950 2 826 -136 758 -197 c 1
 717 -197 l 5
50 303 m 0
 50 603 173 742 241 803 c 1
 283 803 l 1
 254 772 231 750 202 701 c 0
 131 582 108 440 108 303 c 0
 108 -62 271 -178 283 -197 c 1
 241 -197 l 1
 177 -139 50 -1 50 303 c 0
529.400390625 326.099609375 m 0
 529.400390625 396.099609375 549.700195312 459.099609375 584 503.900390625 c 0
 616.900390625 548 663.799804688 574.599609375 717 574.599609375 c 0
 752 574.599609375 773 566.900390625 791.200195312 560.599609375 c 1
 791.200195312 518.599609375 l 1
 772.299804688 524.900390625 752 533.299804688 717 533.299804688 c 0
 678.5 533.299804688 649.799804688 513.700195312 628.799804688 485.700195312 c 0
 603.599609375 452.099609375 590.299804688 405.200195312 588.200195312 366 c 1
 617.599609375 403.099609375 663.099609375 423.400390625 707.200195312 423.400390625 c 0
 742.900390625 423.400390625 763.200195312 407.299804688 782.799804688 380.700195312 c 0
 808.700195312 344.299804688 819.200195312 309.299804688 820.599609375 268.700195312 c 0
 820.599609375 264.5 820.599609375 261 820.599609375 256.799804688 c 0
 820.599609375 202.200195312 806.599609375 165.099609375 771.599609375 128 c 0
 743.599609375 97.900390625 714.200195312 84.599609375 676.400390625 84.599609375 c 0
 642.799804688 84.599609375 600.799804688 97.900390625 570 145.5 c 0
 546.200195312 181.900390625 529.400390625 239.299804688 529.400390625 326.099609375 c 0
589.599609375 272.900390625 m 0
 589.599609375 266.599609375 590.299804688 260.299804688 591 254 c 0
 596.599609375 202.200195312 611.299804688 128 676.400390625 128 c 0
 729.599609375 128 752 174.900390625 759 205.700195312 c 0
 761.799804688 221.099609375 763.200195312 236.5 763.200195312 252.599609375 c 0
 763.200195312 262.400390625 762.5 270.799804688 761.799804688 278.5 c 0
 760.400390625 305.799804688 756.200195312 324 743.599609375 344.299804688 c 0
 722.599609375 377.200195312 695.299804688 380.700195312 679.200195312 380.700195312 c 0
 632.299804688 380.700195312 600.799804688 343.599609375 592.400390625 296 c 4
 591 288.299804688 589.599609375 280.599609375 589.599609375 272.900390625 c 0
179.400390625 404.5 m 0
 179.400390625 455.599609375 192.700195312 494.099609375 229.799804688 532.599609375 c 0
 259.200195312 562 287.900390625 574.599609375 326.400390625 574.599609375 c 0
 353.700195312 574.599609375 388 565.5 416 534.700195312 c 0
 446.799804688 500.400390625 470.599609375 439.5 470.599609375 333.099609375 c 0
 470.599609375 254 446.099609375 186.799804688 409 142.700195312 c 0
 378.200195312 105.599609375 337.599609375 84.599609375 294.200195312 84.599609375 c 0
 250.799804688 84.599609375 225.599609375 97.900390625 200.400390625 116.799804688 c 1
 222.799804688 154.599609375 l 1
 238.900390625 143.400390625 256.400390625 128 295.599609375 128 c 0
 329.200195312 128 359.299804688 146.900390625 381 183.299804688 c 0
 394.299804688 206.400390625 404.099609375 235.799804688 409 271.5 c 0
 409.700195312 278.5 411.099609375 285.5 411.799804688 293.200195312 c 1
 381 256.799804688 340.400390625 235.099609375 292.799804688 235.099609375 c 0
 256.400390625 235.099609375 236.099609375 251.200195312 217.200195312 277.799804688 c 0
 187.799804688 318.400390625 179.400390625 356.200195312 179.400390625 404.5 c 0
236.799804688 404.5 m 0
 236.799804688 366.700195312 238.900390625 340.099609375 259.200195312 310.700195312 c 0
 272.5 291.799804688 291.400390625 278.5 320.799804688 278.5 c 0
 347.400390625 278.5 369.799804688 291.099609375 385.200195312 310.700195312 c 4
 400.599609375 330.299804688 410.400390625 357.599609375 410.400390625 387 c 0
 410.400390625 433.200195312 397.099609375 532.599609375 327.799804688 532.599609375 c 0
 308.200195312 532.599609375 291.400390625 526.299804688 278.799804688 516.5 c 0
 257.099609375 499.700195312 245.200195312 473.799804688 241 454.900390625 c 0
 236.799804688 438.099609375 236.799804688 422 236.799804688 404.5 c 0
EndSplineSet
EndChar
StartChar: uF26F2
Encoding: 993010 993010 1126
Width: 1000
Flags: MW
LayerCount: 2
Fore
SplineSet
717 -197 m 5
 746 -166 768 -144 797 -96 c 4
 869 23 892 166 892 303 c 4
 892 668 729 784 717 803 c 5
 758 803 l 1
 826 742 950 603 950 304 c 0
 950 2 826 -136 758 -197 c 1
 717 -197 l 5
50 303 m 0
 50 603 173 742 241 803 c 1
 283 803 l 1
 254 772 231 750 202 701 c 0
 131 582 108 440 108 303 c 0
 108 -62 271 -178 283 -197 c 1
 241 -197 l 1
 177 -139 50 -1 50 303 c 0
529.400390625 509.5 m 1
 529.400390625 559.200195312 l 1
 820.599609375 558.5 l 1
 820.599609375 513 l 1
 721.900390625 399.599609375 665.200195312 245.599609375 665.200195312 92.2998046875 c 1
 606.400390625 92.2998046875 l 1
 606.400390625 231.599609375 654 382.799804688 773 509.5 c 1
 529.400390625 509.5 l 1
179.400390625 404.5 m 0
 179.400390625 455.599609375 192.700195312 494.099609375 229.799804688 532.599609375 c 0
 259.200195312 562 287.900390625 574.599609375 326.400390625 574.599609375 c 0
 353.700195312 574.599609375 388 565.5 416 534.700195312 c 0
 446.799804688 500.400390625 470.599609375 439.5 470.599609375 333.099609375 c 0
 470.599609375 254 446.099609375 186.799804688 409 142.700195312 c 0
 378.200195312 105.599609375 337.599609375 84.599609375 294.200195312 84.599609375 c 0
 250.799804688 84.599609375 225.599609375 97.900390625 200.400390625 116.799804688 c 1
 222.799804688 154.599609375 l 1
 238.900390625 143.400390625 256.400390625 128 295.599609375 128 c 0
 329.200195312 128 359.299804688 146.900390625 381 183.299804688 c 0
 394.299804688 206.400390625 404.099609375 235.799804688 409 271.5 c 0
 409.700195312 278.5 411.099609375 285.5 411.799804688 293.200195312 c 1
 381 256.799804688 340.400390625 235.099609375 292.799804688 235.099609375 c 0
 256.400390625 235.099609375 236.099609375 251.200195312 217.200195312 277.799804688 c 0
 187.799804688 318.400390625 179.400390625 356.200195312 179.400390625 404.5 c 0
236.799804688 404.5 m 0
 236.799804688 366.700195312 238.900390625 340.099609375 259.200195312 310.700195312 c 0
 272.5 291.799804688 291.400390625 278.5 320.799804688 278.5 c 0
 347.400390625 278.5 369.799804688 291.099609375 385.200195312 310.700195312 c 4
 400.599609375 330.299804688 410.400390625 357.599609375 410.400390625 387 c 0
 410.400390625 433.200195312 397.099609375 532.599609375 327.799804688 532.599609375 c 0
 308.200195312 532.599609375 291.400390625 526.299804688 278.799804688 516.5 c 0
 257.099609375 499.700195312 245.200195312 473.799804688 241 454.900390625 c 0
 236.799804688 438.099609375 236.799804688 422 236.799804688 404.5 c 0
EndSplineSet
EndChar
StartChar: uF26F5
Encoding: 993013 993013 1129
Width: 1000
Flags: MW
LayerCount: 2
Fore
SplineSet
717 -197 m 5
 746 -166 768 -144 797 -96 c 4
 869 23 892 166 892 303 c 4
 892 668 729 784 717 803 c 5
 758 803 l 1
 826 742 950 603 950 304 c 0
 950 2 826 -136 758 -197 c 1
 717 -197 l 5
50 303 m 0
 50 603 173 742 241 803 c 1
 283 803 l 1
 254 772 231 750 202 701 c 0
 131 582 108 440 108 303 c 0
 108 -62 271 -178 283 -197 c 1
 241 -197 l 1
 177 -139 50 -1 50 303 c 0
624.599609375 317 m 2
 624.599609375 330.299804688 l 2
 624.599609375 398.900390625 628.099609375 530.5 692.5 566.200195312 c 0
 700.900390625 571.099609375 710 574.599609375 721.900390625 574.599609375 c 0
 746.400390625 574.599609375 769.5 558.5 785.599609375 531.200195312 c 0
 813.599609375 483.599609375 818.5 403.099609375 819.200195312 352 c 0
 819.200195312 342.900390625 819.200195312 334.5 819.200195312 327.5 c 0
 819.200195312 185.400390625 795.400390625 116.799804688 751.299804688 92.2998046875 c 0
 743.599609375 87.400390625 733.799804688 84.599609375 721.900390625 84.599609375 c 0
 683.400390625 84.599609375 625.299804688 118.200195312 624.599609375 317 c 2
661 315.599609375 m 2
 661 200.099609375 679.900390625 153.900390625 699.5 136.400390625 c 4
 707.200195312 129.400390625 715.599609375 127.299804688 722.599609375 127.299804688 c 0
 731.700195312 127.299804688 742.900390625 131.5 753.400390625 146.200195312 c 0
 769.5 169.299804688 782.799804688 217.599609375 782.799804688 316.299804688 c 2
 782.799804688 359 l 2
 782.799804688 427.599609375 775.099609375 469.599609375 764.599609375 494.799804688 c 0
 752 524.900390625 735.200195312 531.200195312 721.900390625 531.200195312 c 0
 697.400390625 531.200195312 661 508.099609375 661 359 c 2
 661 315.599609375 l 2
391.5 317 m 2
 391.5 330.299804688 l 2
 391.5 398.900390625 395 530.5 459.400390625 566.200195312 c 0
 467.799804688 571.099609375 476.900390625 574.599609375 488.799804688 574.599609375 c 0
 513.299804688 574.599609375 536.400390625 558.5 552.5 531.200195312 c 0
 580.5 483.599609375 585.400390625 403.099609375 586.099609375 352 c 0
 586.099609375 342.900390625 586.099609375 334.5 586.099609375 327.5 c 0
 586.099609375 185.400390625 562.299804688 116.799804688 518.200195312 92.2998046875 c 0
 510.5 87.400390625 500.700195312 84.599609375 488.799804688 84.599609375 c 0
 450.299804688 84.599609375 392.200195312 118.200195312 391.5 317 c 2
427.900390625 315.599609375 m 2
 427.900390625 200.099609375 446.799804688 153.900390625 466.400390625 136.400390625 c 4
 474.099609375 129.400390625 482.5 127.299804688 489.5 127.299804688 c 0
 498.599609375 127.299804688 509.799804688 131.5 520.299804688 146.200195312 c 0
 536.400390625 169.299804688 549.700195312 217.599609375 549.700195312 316.299804688 c 2
 549.700195312 359 l 2
 549.700195312 427.599609375 542 469.599609375 531.5 494.799804688 c 0
 518.900390625 524.900390625 502.099609375 531.200195312 488.799804688 531.200195312 c 0
 464.299804688 531.200195312 427.900390625 508.099609375 427.900390625 359 c 2
 427.900390625 315.599609375 l 2
180.799804688 487.799804688 m 1
 180.799804688 528.400390625 l 1
 234.700195312 528.400390625 257.099609375 557.099609375 269.700195312 574.599609375 c 1
 278.799804688 574.599609375 l 1
 278.799804688 141.299804688 l 1
 336.900390625 141.299804688 l 1
 336.900390625 100 l 1
 182.900390625 100 l 1
 182.900390625 141.299804688 l 1
 241.700195312 141.299804688 l 1
 241.700195312 503.900390625 l 1
 225.599609375 494.099609375 208.799804688 487.799804688 180.799804688 487.799804688 c 1
EndSplineSet
EndChar
StartChar: uF26FD
Encoding: 993021 993021 1137
Width: 1000
Flags: MW
LayerCount: 2
Fore
SplineSet
717 -197 m 5
 746 -166 768 -144 797 -96 c 4
 869 23 892 166 892 303 c 4
 892 668 729 784 717 803 c 5
 758 803 l 1
 826 742 950 603 950 304 c 0
 950 2 826 -136 758 -197 c 1
 717 -197 l 5
50 303 m 0
 50 603 173 742 241 803 c 1
 283 803 l 1
 254 772 231 750 202 701 c 0
 131 582 108 440 108 303 c 0
 108 -62 271 -178 283 -197 c 1
 241 -197 l 1
 177 -139 50 -1 50 303 c 0
751.299804688 100 m 1
 751.299804688 585.799804688 l 1
 814.299804688 585.799804688 l 1
 814.299804688 100 l 1
 751.299804688 100 l 1
469.200195312 100 m 1
 469.200195312 585.799804688 l 1
 532.200195312 585.799804688 l 1
 532.200195312 100 l 1
 469.200195312 100 l 1
611.299804688 100 m 1
 611.299804688 585.799804688 l 1
 674.299804688 585.799804688 l 1
 674.299804688 100 l 1
 611.299804688 100 l 1
185.700195312 585.799804688 m 1
 250.799804688 585.799804688 l 1
 274.599609375 464.700195312 305.400390625 247 318.700195312 149 c 1
 367.700195312 585.799804688 l 1
 422.299804688 585.799804688 l 1
 345.299804688 100 l 1
 280.900390625 100 l 1
 185.700195312 585.799804688 l 1
EndSplineSet
EndChar
StartChar: uF26FF
Encoding: 993023 993023 1139
Width: 1000
Flags: MW
LayerCount: 2
Fore
SplineSet
717 -197 m 5
 746 -166 768 -144 797 -96 c 4
 869 23 892 166 892 303 c 4
 892 668 729 784 717 803 c 5
 758 803 l 1
 826 742 950 603 950 304 c 0
 950 2 826 -136 758 -197 c 1
 717 -197 l 5
50 303 m 0
 50 603 173 742 241 803 c 1
 283 803 l 1
 254 772 231 750 202 701 c 0
 131 582 108 440 108 303 c 0
 108 -62 271 -178 283 -197 c 1
 241 -197 l 1
 177 -139 50 -1 50 303 c 0
276.700195312 100 m 5
 464.299804688 355.5 l 5
 464.299804688 356.200195312 l 5
 286.5 585.799804688 l 5
 360 585.799804688 l 5
 495.099609375 403.099609375 l 5
 626.700195312 585.799804688 l 5
 693.900390625 585.799804688 l 5
 525.200195312 356.200195312 l 5
 525.200195312 355.5 l 5
 723.299804688 100 l 5
 649.799804688 100 l 5
 495.799804688 313.5 l 5
 494.400390625 313.5 l 5
 343.900390625 100 l 5
 276.700195312 100 l 5
EndSplineSet
EndChar
StartChar: uF2702
Encoding: 993026 993026 1142
Width: 1000
Flags: MW
LayerCount: 2
Fore
SplineSet
717 -197 m 5
 746 -166 768 -144 797 -96 c 4
 869 23 892 166 892 303 c 4
 892 668 729 784 717 803 c 5
 758 803 l 1
 826 742 950 603 950 304 c 0
 950 2 826 -136 758 -197 c 1
 717 -197 l 5
50 303 m 0
 50 603 173 742 241 803 c 1
 283 803 l 1
 254 772 231 750 202 701 c 0
 131 582 108 440 108 303 c 0
 108 -62 271 -178 283 -197 c 1
 241 -197 l 1
 177 -139 50 -1 50 303 c 0
169.599609375 100 m 1
 286.5 361.799804688 l 1
 286.5 362.5 l 1
 179.400390625 585.799804688 l 1
 246.599609375 585.799804688 l 1
 318.700195312 433.900390625 l 1
 385.900390625 585.799804688 l 1
 446.799804688 585.799804688 l 1
 350.200195312 368.799804688 l 1
 350.200195312 368.099609375 l 1
 476.200195312 100 l 1
 411.099609375 100 l 1
 318.700195312 295.299804688 l 1
 316.599609375 295.299804688 l 1
 229.099609375 100 l 1
 169.599609375 100 l 1
518.200195312 100 m 1
 518.200195312 585.799804688 l 1
 581.200195312 585.799804688 l 1
 581.200195312 100 l 1
 518.200195312 100 l 1
642.799804688 100 m 1
 642.799804688 585.799804688 l 1
 705.799804688 585.799804688 l 1
 705.799804688 100 l 1
 642.799804688 100 l 1
767.400390625 100 m 1
 767.400390625 585.799804688 l 1
 830.400390625 585.799804688 l 1
 830.400390625 100 l 1
 767.400390625 100 l 1
EndSplineSet
EndChar
StartChar: uF2708
Encoding: 993032 993032 1148
Width: 1000
Flags: MW
LayerCount: 2
Fore
SplineSet
717 -197 m 5
 746 -166 768 -144 797 -96 c 4
 869 23 892 166 892 303 c 4
 892 668 729 784 717 803 c 5
 758 803 l 1
 826 742 950 603 950 304 c 0
 950 2 826 -136 758 -197 c 1
 717 -197 l 5
50 303 m 0
 50 603 173 742 241 803 c 1
 283 803 l 1
 254 772 231 750 202 701 c 0
 131 582 108 440 108 303 c 0
 108 -62 271 -178 283 -197 c 1
 241 -197 l 1
 177 -139 50 -1 50 303 c 0
285.799804688 513 m 1
 285.799804688 575.299804688 l 1
 348.799804688 575.299804688 l 1
 348.799804688 513 l 1
 285.799804688 513 l 1
291.400390625 100 m 1
 291.400390625 411.5 l 1
 343.200195312 411.5 l 1
 343.200195312 100 l 1
 291.400390625 100 l 1
411.799804688 411.5 m 1
 465 411.5 l 1
 530.799804688 240.700195312 l 2
 556.700195312 167.900390625 560.900390625 156.700195312 564.400390625 135 c 1
 570.700195312 181.200195312 653.299804688 384.200195312 662.400390625 411.5 c 1
 714.200195312 411.5 l 1
 593.799804688 100 l 1
 532.200195312 100 l 1
 411.799804688 411.5 l 1
EndSplineSet
EndChar
StartChar: uF2709
Encoding: 993033 993033 1149
Width: 1000
Flags: MW
LayerCount: 2
Fore
SplineSet
717 -197 m 5
 746 -166 768 -144 797 -96 c 4
 869 23 892 166 892 303 c 4
 892 668 729 784 717 803 c 5
 758 803 l 1
 826 742 950 603 950 304 c 0
 950 2 826 -136 758 -197 c 1
 717 -197 l 5
50 303 m 0
 50 603 173 742 241 803 c 1
 283 803 l 1
 254 772 231 750 202 701 c 0
 131 582 108 440 108 303 c 0
 108 -62 271 -178 283 -197 c 1
 241 -197 l 1
 177 -139 50 -1 50 303 c 0
348.799804688 411.5 m 1
 402.700195312 411.5 l 1
 467.799804688 240.700195312 l 2
 493.700195312 167.900390625 497.900390625 156.700195312 501.400390625 135 c 1
 507.700195312 181.200195312 590.299804688 384.200195312 599.400390625 411.5 c 1
 651.200195312 411.5 l 1
 530.799804688 100 l 1
 469.200195312 100 l 1
 348.799804688 411.5 l 1
EndSplineSet
EndChar
StartChar: uF270A
Encoding: 993034 993034 1150
Width: 1000
Flags: MW
LayerCount: 2
Fore
SplineSet
717 -197 m 5
 746 -166 768 -144 797 -96 c 4
 869 23 892 166 892 303 c 4
 892 668 729 784 717 803 c 5
 758 803 l 1
 826 742 950 603 950 304 c 0
 950 2 826 -136 758 -197 c 1
 717 -197 l 5
50 303 m 0
 50 603 173 742 241 803 c 1
 283 803 l 1
 254 772 231 750 202 701 c 0
 131 582 108 440 108 303 c 0
 108 -62 271 -178 283 -197 c 1
 241 -197 l 1
 177 -139 50 -1 50 303 c 0
285.799804688 411.5 m 1
 340.400390625 411.5 l 1
 404.799804688 240.700195312 l 2
 430.700195312 167.900390625 434.900390625 156.700195312 438.400390625 135 c 1
 444.700195312 181.200195312 527.299804688 384.200195312 536.400390625 411.5 c 1
 588.200195312 411.5 l 1
 467.799804688 100 l 1
 406.200195312 100 l 1
 285.799804688 411.5 l 1
651.200195312 513 m 1
 651.200195312 575.299804688 l 1
 714.200195312 575.299804688 l 1
 714.200195312 513 l 1
 651.200195312 513 l 1
655.400390625 100 m 1
 655.400390625 411.5 l 1
 708.599609375 411.5 l 1
 708.599609375 100 l 1
 655.400390625 100 l 1
EndSplineSet
EndChar
StartChar: uF270D
Encoding: 993037 993037 1153
Width: 1000
Flags: MW
LayerCount: 2
Fore
SplineSet
717 -197 m 5
 746 -166 768 -144 797 -96 c 4
 869 23 892 166 892 303 c 4
 892 668 729 784 717 803 c 5
 758 803 l 1
 826 742 950 603 950 304 c 0
 950 2 826 -136 758 -197 c 1
 717 -197 l 5
50 303 m 0
 50 603 173 742 241 803 c 1
 283 803 l 1
 254 772 231 750 202 701 c 0
 131 582 108 440 108 303 c 0
 108 -62 271 -178 283 -197 c 1
 241 -197 l 1
 177 -139 50 -1 50 303 c 0
281.599609375 513 m 1
 281.599609375 575.299804688 l 1
 344.599609375 575.299804688 l 1
 344.599609375 513 l 1
 281.599609375 513 l 1
285.799804688 100 m 1
 285.799804688 411.5 l 1
 339 411.5 l 1
 339 100 l 1
 285.799804688 100 l 1
396.400390625 100 m 1
 532.200195312 259.599609375 l 1
 532.200195312 261 l 1
 400.599609375 411.5 l 1
 459.400390625 411.5 l 1
 556 296 l 1
 556 296 l 1
 649.799804688 411.5 l 1
 707.200195312 411.5 l 1
 578.400390625 261 l 1
 578.400390625 260.299804688 l 1
 718.400390625 100 l 1
 661 100 l 1
 556 231.599609375 l 1
 455.200195312 100 l 1
 396.400390625 100 l 1
EndSplineSet
EndChar
StartChar: uF270E
Encoding: 993038 993038 1154
Width: 1000
Flags: MW
LayerCount: 2
Fore
SplineSet
717 -197 m 5
 746 -166 768 -144 797 -96 c 4
 869 23 892 166 892 303 c 4
 892 668 729 784 717 803 c 5
 758 803 l 1
 826 742 950 603 950 304 c 0
 950 2 826 -136 758 -197 c 1
 717 -197 l 5
50 303 m 0
 50 603 173 742 241 803 c 1
 283 803 l 1
 254 772 231 750 202 701 c 0
 131 582 108 440 108 303 c 0
 108 -62 271 -178 283 -197 c 1
 241 -197 l 1
 177 -139 50 -1 50 303 c 0
339 100 m 1
 474.799804688 259.599609375 l 1
 474.799804688 261 l 1
 343.200195312 411.5 l 1
 401.299804688 411.5 l 1
 497.900390625 296 l 1
 498.599609375 296 l 1
 591.700195312 411.5 l 1
 649.799804688 411.5 l 1
 521 261 l 1
 521 260.299804688 l 1
 661 100 l 1
 602.900390625 100 l 1
 497.900390625 231.599609375 l 1
 397.099609375 100 l 1
 339 100 l 1
EndSplineSet
EndChar
StartChar: uF2711
Encoding: 993041 993041 1157
Width: 1000
Flags: MW
LayerCount: 2
Fore
SplineSet
717 -197 m 5
 746 -166 768 -144 797 -96 c 4
 869 23 892 166 892 303 c 4
 892 668 729 784 717 803 c 5
 758 803 l 1
 826 742 950 603 950 304 c 0
 950 2 826 -136 758 -197 c 1
 717 -197 l 5
50 303 m 0
 50 603 173 742 241 803 c 1
 283 803 l 1
 254 772 231 750 202 701 c 0
 131 582 108 440 108 303 c 0
 108 -62 271 -178 283 -197 c 1
 241 -197 l 1
 177 -139 50 -1 50 303 c 0
187.799804688 100 m 1
 287.900390625 259.599609375 l 1
 287.900390625 261 l 1
 192 411.5 l 1
 248.700195312 411.5 l 1
 315.900390625 306.5 l 1
 316.599609375 306.5 l 1
 382.400390625 411.5 l 1
 437 411.5 l 1
 345.299804688 261.700195312 l 1
 345.299804688 261 l 1
 448.200195312 100 l 1
 390.099609375 100 l 1
 316.599609375 215.5 l 1
 245.900390625 100 l 1
 187.799804688 100 l 1
484.599609375 513 m 1
 484.599609375 575.299804688 l 1
 544.799804688 575.299804688 l 1
 544.799804688 513 l 1
 484.599609375 513 l 1
488.099609375 100 m 1
 488.099609375 411.5 l 1
 540.599609375 411.5 l 1
 540.599609375 100 l 1
 488.099609375 100 l 1
617.599609375 513 m 1
 617.599609375 575.299804688 l 1
 677.799804688 575.299804688 l 1
 677.799804688 513 l 1
 617.599609375 513 l 1
621.099609375 100 m 1
 621.099609375 411.5 l 1
 673.599609375 411.5 l 1
 673.599609375 100 l 1
 621.099609375 100 l 1
750.599609375 513 m 1
 750.599609375 575.299804688 l 1
 812.200195312 575.299804688 l 1
 812.200195312 513 l 1
 750.599609375 513 l 1
754.099609375 100 m 1
 754.099609375 411.5 l 1
 806.599609375 411.5 l 1
 806.599609375 100 l 1
 754.099609375 100 l 1
EndSplineSet
EndChar
StartChar: uF2715
Encoding: 993045 993045 1161
Width: 1000
Flags: MW
LayerCount: 2
Fore
SplineSet
717 -197 m 5
 746 -166 768 -144 797 -96 c 4
 869 23 892 166 892 303 c 4
 892 668 729 784 717 803 c 5
 758 803 l 1
 826 742 950 603 950 304 c 0
 950 2 826 -136 758 -197 c 1
 717 -197 l 5
50 303 m 0
 50 603 173 742 241 803 c 1
 283 803 l 1
 254 772 231 750 202 701 c 0
 131 582 108 440 108 303 c 0
 108 -62 271 -178 283 -197 c 1
 241 -197 l 1
 177 -139 50 -1 50 303 c 0
295.599609375 100 m 1
 295.599609375 585.799804688 l 1
 470.599609375 585.799804688 l 2
 532.200195312 585.799804688 579.099609375 575.299804688 613.400390625 559.900390625 c 0
 662.400390625 534 681.299804688 494.099609375 681.299804688 464 c 0xf8
 681.299804688 419.900390625 644.200195312 374.400390625 551.099609375 354.099609375 c 1
 634.400390625 342.900390625 704.400390625 297.400390625 704.400390625 231.599609375 c 0
 704.400390625 184.700195312 672.200195312 145.5 623.200195312 122.400390625 c 0
 596.599609375 111.200195312 565.799804688 104.200195312 535 101.400390625 c 0
 521 100 506.299804688 100 492.299804688 100 c 2
 295.599609375 100 l 1
354.400390625 139.200195312 m 1
 474.099609375 139.200195312 l 2
 546.200195312 139.200195312 596.599609375 158.099609375 623.200195312 183.299804688 c 0
 639.299804688 198 647 215.5 647 232.299804688 c 0xf4
 647 263.099609375 618.299804688 296.700195312 566.5 315.599609375 c 0
 546.900390625 322.599609375 523.799804688 328.200195312 497.900390625 330.299804688 c 0
 483.900390625 331 469.200195312 331 455.200195312 331 c 2
 355.099609375 331 l 1
 354.400390625 305.099609375 l 1
 354.400390625 139.200195312 l 1
354.400390625 374.400390625 m 1
 455.200195312 374.400390625 l 2
 521 374.400390625 568.599609375 391.200195312 596.599609375 412.900390625 c 0
 616.200195312 428.299804688 626 445.799804688 626 463.299804688 c 0xf8
 626 496.900390625 580.5 546.599609375 451 546.599609375 c 2
 355.099609375 546.599609375 l 1
 354.400390625 522.099609375 l 1
 354.400390625 374.400390625 l 1
EndSplineSet
EndChar
StartChar: uF2716
Encoding: 993046 993046 1162
Width: 1000
Flags: MW
LayerCount: 2
Fore
SplineSet
717 -197 m 5
 746 -166 768 -144 797 -96 c 4
 869 23 892 166 892 303 c 4
 892 668 729 784 717 803 c 5
 758 803 l 1
 826 742 950 603 950 304 c 0
 950 2 826 -136 758 -197 c 1
 717 -197 l 5
50 303 m 0
 50 603 173 742 241 803 c 1
 283 803 l 1
 254 772 231 750 202 701 c 0
 131 582 108 440 108 303 c 0
 108 -62 271 -178 283 -197 c 1
 241 -197 l 1
 177 -139 50 -1 50 303 c 0
295.599609375 342.900390625 m 0
 295.599609375 478.700195312 393.599609375 601.200195312 560.200195312 601.200195312 c 0
 619.700195312 601.200195312 660.299804688 590.700195312 696.700195312 577.400390625 c 1
 686.200195312 519.299804688 l 1
 648.400390625 542.400390625 619.700195312 556.400390625 556.700195312 556.400390625 c 0
 438.400390625 556.400390625 358.599609375 453.5 358.599609375 342.900390625 c 0
 358.599609375 230.200195312 438.400390625 129.400390625 559.5 129.400390625 c 0
 641.400390625 129.400390625 665.200195312 149 700.200195312 172.099609375 c 1
 704.400390625 123.099609375 l 1
 655.400390625 94.400390625 627.400390625 84.599609375 558.099609375 84.599609375 c 0
 392.900390625 84.599609375 295.599609375 208.5 295.599609375 342.900390625 c 0
EndSplineSet
EndChar
StartChar: uF2717
Encoding: 993047 993047 1163
Width: 1000
Flags: MW
LayerCount: 2
Fore
SplineSet
717 -197 m 5
 746 -166 768 -144 797 -96 c 4
 869 23 892 166 892 303 c 4
 892 668 729 784 717 803 c 5
 758 803 l 1
 826 742 950 603 950 304 c 0
 950 2 826 -136 758 -197 c 1
 717 -197 l 5
50 303 m 0
 50 603 173 742 241 803 c 1
 283 803 l 1
 254 772 231 750 202 701 c 0
 131 582 108 440 108 303 c 0
 108 -62 271 -178 283 -197 c 1
 241 -197 l 1
 177 -139 50 -1 50 303 c 0
272.5 100 m 1
 272.5 585.799804688 l 1
 467.099609375 585.799804688 l 2
 520.299804688 585.799804688 561.599609375 580.200195312 611.299804688 552.900390625 c 0
 689 507.400390625 727.5 423.400390625 727.5 339.400390625 c 0
 727.5 216.200195312 640.700195312 114 509.099609375 101.400390625 c 0
 495.799804688 100 481.799804688 100 468.5 100 c 2
 272.5 100 l 1
333.400390625 139.200195312 m 1
 453.099609375 139.200195312 l 2
 479.700195312 139.200195312 558.799804688 139.200195312 616.900390625 203.599609375 c 0
 651.900390625 242.099609375 666.599609375 290.400390625 666.599609375 338.700195312 c 0
 666.599609375 381.400390625 656.099609375 415.700195312 642.099609375 442.299804688 c 0
 621.099609375 482.200195312 591.700195312 505.299804688 572.099609375 517.200195312 c 0
 532.900390625 541 495.799804688 546.599609375 453.099609375 546.599609375 c 2
 333.400390625 546.599609375 l 1
 333.400390625 139.200195312 l 1
EndSplineSet
EndChar
StartChar: uF2719
Encoding: 993049 993049 1165
Width: 1000
Flags: MW
LayerCount: 2
Fore
SplineSet
717 -197 m 5
 746 -166 768 -144 797 -96 c 4
 869 23 892 166 892 303 c 4
 892 668 729 784 717 803 c 5
 758 803 l 1
 826 742 950 603 950 304 c 0
 950 2 826 -136 758 -197 c 1
 717 -197 l 5
50 303 m 0
 50 603 173 742 241 803 c 1
 283 803 l 1
 254 772 231 750 202 701 c 0
 131 582 108 440 108 303 c 0
 108 -62 271 -178 283 -197 c 1
 241 -197 l 1
 177 -139 50 -1 50 303 c 0
332.700195312 100 m 1
 332.700195312 583.700195312 l 1
 667.299804688 583.700195312 l 1
 667.299804688 537.5 l 1
 395.700195312 538.900390625 l 1
 395.700195312 363.200195312 l 1
 637.900390625 363.200195312 l 1
 637.900390625 320.5 l 1
 395.700195312 320.5 l 1
 395.700195312 100 l 1
 332.700195312 100 l 1
EndSplineSet
EndChar
StartChar: uF271A
Encoding: 993050 993050 1166
Width: 1000
Flags: MW
LayerCount: 2
Fore
SplineSet
717 -197 m 5
 746 -166 768 -144 797 -96 c 4
 869 23 892 166 892 303 c 4
 892 668 729 784 717 803 c 5
 758 803 l 1
 826 742 950 603 950 304 c 0
 950 2 826 -136 758 -197 c 1
 717 -197 l 5
50 303 m 0
 50 603 173 742 241 803 c 1
 283 803 l 1
 254 772 231 750 202 701 c 0
 131 582 108 440 108 303 c 0
 108 -62 271 -178 283 -197 c 1
 241 -197 l 1
 177 -139 50 -1 50 303 c 0
287.900390625 342.900390625 m 0
 287.900390625 478.700195312 388 601.200195312 548.299804688 601.200195312 c 0
 621.099609375 601.200195312 665.900390625 587.900390625 706.5 567.599609375 c 1
 696 509.5 l 1
 656.799804688 538.900390625 619.700195312 556.400390625 549.700195312 556.400390625 c 0
 430.700195312 556.400390625 350.900390625 454.200195312 350.900390625 343.599609375 c 0
 350.900390625 223.200195312 438.400390625 129.400390625 549 129.400390625 c 0
 611.299804688 129.400390625 651.900390625 143.400390625 657.5 144.099609375 c 1
 657.5 265.900390625 l 1
 545.5 265.900390625 l 1
 545.5 309.299804688 l 1
 712.099609375 309.299804688 l 1
 712.099609375 118.200195312 l 1
 658.900390625 93.7001953125 601.5 84.599609375 548.299804688 84.599609375 c 0
 394.299804688 84.599609375 287.900390625 200.799804688 287.900390625 342.900390625 c 0
EndSplineSet
EndChar
StartChar: uF271D
Encoding: 993053 993053 1169
Width: 1000
Flags: MW
LayerCount: 2
Fore
SplineSet
717 -197 m 5
 746 -166 768 -144 797 -96 c 4
 869 23 892 166 892 303 c 4
 892 668 729 784 717 803 c 5
 758 803 l 1
 826 742 950 603 950 304 c 0
 950 2 826 -136 758 -197 c 1
 717 -197 l 5
50 303 m 0
 50 603 173 742 241 803 c 1
 283 803 l 1
 254 772 231 750 202 701 c 0
 131 582 108 440 108 303 c 0
 108 -62 271 -178 283 -197 c 1
 241 -197 l 1
 177 -139 50 -1 50 303 c 0
368.400390625 114 m 1
 378.200195312 166.5 l 1
 384.5 161.599609375 414.599609375 128 471.299804688 128 c 0
 518.900390625 128 570 144.099609375 570 209.900390625 c 2
 570 585.799804688 l 1
 631.599609375 585.799804688 l 1
 631.599609375 208.5 l 2
 631.599609375 109.099609375 563.700195312 84.599609375 495.799804688 84.599609375 c 0
 453.099609375 84.599609375 411.099609375 92.2998046875 368.400390625 114 c 1
EndSplineSet
EndChar
StartChar: uF271E
Encoding: 993054 993054 1170
Width: 1000
Flags: MW
LayerCount: 2
Fore
SplineSet
717 -197 m 5
 746 -166 768 -144 797 -96 c 4
 869 23 892 166 892 303 c 4
 892 668 729 784 717 803 c 5
 758 803 l 1
 826 742 950 603 950 304 c 0
 950 2 826 -136 758 -197 c 1
 717 -197 l 5
50 303 m 0
 50 603 173 742 241 803 c 1
 283 803 l 1
 254 772 231 750 202 701 c 0
 131 582 108 440 108 303 c 0
 108 -62 271 -178 283 -197 c 1
 241 -197 l 1
 177 -139 50 -1 50 303 c 0
278.799804688 100 m 1
 278.799804688 585.799804688 l 1
 339 585.799804688 l 1
 339 326.099609375 l 1
 644.200195312 585.799804688 l 1
 711.400390625 585.799804688 l 1
 497.200195312 394 l 1
 497.200195312 393.299804688 l 1
 721.200195312 100 l 1
 655.400390625 100 l 1
 451 354.099609375 l 1
 339 259.599609375 l 1
 339 100 l 1
 278.799804688 100 l 1
EndSplineSet
EndChar
StartChar: uF2723
Encoding: 993059 993059 1175
Width: 1000
Flags: MW
LayerCount: 2
Fore
SplineSet
717 -197 m 5
 746 -166 768 -144 797 -96 c 4
 869 23 892 166 892 303 c 4
 892 668 729 784 717 803 c 5
 758 803 l 1
 826 742 950 603 950 304 c 0
 950 2 826 -136 758 -197 c 1
 717 -197 l 5
50 303 m 0
 50 603 173 742 241 803 c 1
 283 803 l 1
 254 772 231 750 202 701 c 0
 131 582 108 440 108 303 c 0
 108 -62 271 -178 283 -197 c 1
 241 -197 l 1
 177 -139 50 -1 50 303 c 0
307.5 100 m 1
 307.5 585.799804688 l 1
 493 585.799804688 l 2
 538.5 585.799804688 579.799804688 581.599609375 622.5 558.5 c 0
 667.299804688 532.599609375 692.5 490.599609375 692.5 445.099609375 c 0
 692.5 386.299804688 644.200195312 301.599609375 496.5 301.599609375 c 0
 487.400390625 301.599609375 478.299804688 302.299804688 469.200195312 302.299804688 c 2
 370.5 302.299804688 l 1
 370.5 100 l 1
 307.5 100 l 1
368.400390625 342.900390625 m 1
 479.700195312 342.900390625 l 2
 605 342.900390625 635.799804688 403.799804688 635.799804688 445.099609375 c 0
 635.799804688 485 605 546.599609375 479.700195312 546.599609375 c 2
 368.400390625 546.599609375 l 1
 368.400390625 342.900390625 l 1
EndSplineSet
EndChar
StartChar: uF2724
Encoding: 993060 993060 1176
Width: 1000
Flags: MW
LayerCount: 2
Fore
SplineSet
717 -197 m 5
 746 -166 768 -144 797 -96 c 4
 869 23 892 166 892 303 c 4
 892 668 729 784 717 803 c 5
 758 803 l 1
 826 742 950 603 950 304 c 0
 950 2 826 -136 758 -197 c 1
 717 -197 l 5
50 303 m 0
 50 603 173 742 241 803 c 1
 283 803 l 1
 254 772 231 750 202 701 c 0
 131 582 108 440 108 303 c 0
 108 -62 271 -178 283 -197 c 1
 241 -197 l 1
 177 -139 50 -1 50 303 c 0
249.400390625 341.5 m 0
 249.400390625 459.099609375 320.099609375 571.799804688 451.700195312 597 c 0
 467.799804688 599.799804688 483.200195312 601.200195312 499.299804688 601.200195312 c 0
 558.799804688 601.200195312 616.200195312 580.900390625 661 546.599609375 c 0
 717 499.700195312 750.599609375 426.200195312 750.599609375 341.5 c 0
 750.599609375 206.400390625 665.900390625 140.599609375 639.299804688 123.099609375 c 1
 731 12.5 l 1
 650.5 12.5 l 1
 580.5 96.5 l 1
 558.099609375 90.900390625 536.400390625 84.599609375 499.299804688 84.599609375 c 0
 439.799804688 84.599609375 384.5 104.200195312 339.700195312 137.799804688 c 0
 283.700195312 184 249.400390625 256.799804688 249.400390625 341.5 c 0
310.299804688 340.799804688 m 0
 310.299804688 239.299804688 369.099609375 158.099609375 452.400390625 135.700195312 c 0
 467.799804688 131.5 483.900390625 129.400390625 500.700195312 129.400390625 c 0
 524.5 129.400390625 538.5 134.299804688 547.599609375 135.700195312 c 1
 462.900390625 236.5 l 1
 537.099609375 236.5 l 1
 602.900390625 163 l 1
 603.599609375 163 l 1
 630.200195312 183.299804688 689.700195312 233.700195312 689.700195312 340.799804688 c 0
 689.700195312 416.400390625 658.900390625 479.400390625 611.299804688 517.200195312 c 0
 580.5 542.400390625 540.599609375 556.400390625 498.599609375 556.400390625 c 2
 497.900390625 556.400390625 l 2
 454.5 555.700195312 413.200195312 539.599609375 380.299804688 510.200195312 c 0
 341.799804688 475.900390625 315.900390625 424.099609375 311.700195312 359 c 0
 311.700195312 352.700195312 310.299804688 347.099609375 310.299804688 340.799804688 c 0
EndSplineSet
EndChar
StartChar: uF2726
Encoding: 993062 993062 1178
Width: 1000
Flags: MW
LayerCount: 2
Fore
SplineSet
717 -197 m 5
 746 -166 768 -144 797 -96 c 4
 869 23 892 166 892 303 c 4
 892 668 729 784 717 803 c 5
 758 803 l 1
 826 742 950 603 950 304 c 0
 950 2 826 -136 758 -197 c 1
 717 -197 l 5
50 303 m 0
 50 603 173 742 241 803 c 1
 283 803 l 1
 254 772 231 750 202 701 c 0
 131 582 108 440 108 303 c 0
 108 -62 271 -178 283 -197 c 1
 241 -197 l 1
 177 -139 50 -1 50 303 c 0
323.599609375 132.900390625 m 1
 334.099609375 191 l 1
 367.700195312 163.700195312 420.900390625 132.900390625 503.5 132.900390625 c 0
 576.299804688 132.900390625 620.400390625 177 620.400390625 225.299804688 c 0
 620.400390625 262.400390625 595.900390625 295.299804688 553.900390625 309.299804688 c 0
 495.799804688 328.900390625 399.900390625 324 351.599609375 394.700195312 c 0
 339.700195312 413.599609375 332 435.299804688 331.299804688 463.299804688 c 0
 331.299804688 531.200195312 391.5 601.200195312 509.799804688 601.200195312 c 0
 514 601.200195312 517.5 601.200195312 521.700195312 601.200195312 c 0
 581.900390625 599.799804688 617.599609375 585.799804688 651.900390625 567.599609375 c 1
 642.099609375 509.5 l 1
 607.799804688 536.799804688 575.599609375 554.299804688 509.099609375 554.299804688 c 0
 432.799804688 554.299804688 387.299804688 513 387.299804688 471.700195312 c 0
 387.299804688 436.700195312 417.400390625 409.400390625 454.5 396.799804688 c 0
 479 389.099609375 551.099609375 377.900390625 580.5 367.400390625 c 0
 627.400390625 349.200195312 676.400390625 302.299804688 676.400390625 232.299804688 c 0
 676.400390625 156.700195312 614.099609375 84.599609375 503.5 84.599609375 c 0
 426.5 84.599609375 367.700195312 104.900390625 323.599609375 132.900390625 c 1
EndSplineSet
EndChar
StartChar: uF2728
Encoding: 993064 993064 1180
Width: 1000
Flags: MW
LayerCount: 2
Fore
SplineSet
717 -197 m 5
 746 -166 768 -144 797 -96 c 4
 869 23 892 166 892 303 c 4
 892 668 729 784 717 803 c 5
 758 803 l 1
 826 742 950 603 950 304 c 0
 950 2 826 -136 758 -197 c 1
 717 -197 l 5
50 303 m 0
 50 603 173 742 241 803 c 1
 283 803 l 1
 254 772 231 750 202 701 c 0
 131 582 108 440 108 303 c 0
 108 -62 271 -178 283 -197 c 1
 241 -197 l 1
 177 -139 50 -1 50 303 c 0
301.900390625 279.900390625 m 2
 301.900390625 585.799804688 l 1
 364.900390625 585.799804688 l 1
 364.900390625 295.299804688 l 2
 364.900390625 276.400390625 364.200195312 256.799804688 367 237.900390625 c 0
 370.5 213.400390625 380.299804688 188.900390625 397.799804688 168.599609375 c 0
 420.200195312 142.700195312 455.200195312 123.799804688 501.400390625 123.799804688 c 0
 535 123.799804688 571.400390625 134.299804688 598 157.400390625 c 0
 621.799804688 177.700195312 638.599609375 207.799804688 642.099609375 248.400390625 c 2
 642.099609375 585.799804688 l 1
 697.400390625 585.799804688 l 1
 697.400390625 286.200195312 l 2
 697.400390625 269.400390625 704.400390625 195.200195312 644.900390625 135 c 0
 616.900390625 111.200195312 567.200195312 84.599609375 501.400390625 84.599609375 c 0
 446.099609375 84.599609375 395.700195312 102.099609375 360 130.099609375 c 0
 329.900390625 157.400390625 308.900390625 195.200195312 303.299804688 237.200195312 c 0
 301.900390625 251.900390625 301.900390625 265.900390625 301.900390625 279.900390625 c 2
EndSplineSet
EndChar
StartChar: uF272C
Encoding: 993068 993068 1184
Width: 1000
Flags: MW
LayerCount: 2
Fore
SplineSet
717 -197 m 5
 746 -166 768 -144 797 -96 c 4
 869 23 892 166 892 303 c 4
 892 668 729 784 717 803 c 5
 758 803 l 1
 826 742 950 603 950 304 c 0
 950 2 826 -136 758 -197 c 1
 717 -197 l 5
50 303 m 0
 50 603 173 742 241 803 c 1
 283 803 l 1
 254 772 231 750 202 701 c 0
 131 582 108 440 108 303 c 0
 108 -62 271 -178 283 -197 c 1
 241 -197 l 1
 177 -139 50 -1 50 303 c 0
239.599609375 585.799804688 m 1
 313.099609375 585.799804688 l 1
 434.200195312 436.700195312 l 2
 471.299804688 390.5 495.099609375 363.200195312 507.700195312 343.599609375 c 1
 530.099609375 377.900390625 698.799804688 585.799804688 698.799804688 585.799804688 c 17
 760.400390625 585.799804688 l 1
 524.5 294.599609375 l 1
 524.5 100 l 1
 463.599609375 100 l 1
 463.599609375 294.599609375 l 1
 239.599609375 585.799804688 l 1
EndSplineSet
EndChar
